<?xml version="1.0" encoding="utf-8"?>
<!-- Generator: Adobe Illustrator 16.0.3, SVG Export Plug-In . SVG Version: 6.00 Build 0)  -->
<!DOCTYPE svg PUBLIC "-//W3C//DTD SVG 1.1//EN" "http://www.w3.org/Graphics/SVG/1.1/DTD/svg11.dtd">
<svg version="1.1" id="Camada_1" xmlns="http://www.w3.org/2000/svg" xmlns:xlink="http://www.w3.org/1999/xlink" x="0px" y="0px"
	 width="162px" height="166px" viewBox="0 0 162 166" enable-background="new 0 0 162 166" xml:space="preserve">
<g>
	<polygon fill="#FFFFFF" stroke="#B1B3B4" stroke-width="4" stroke-miterlimit="10" points="134.88,135.525 81.146,158.137 
		27.159,136.133 4.544,82.396 26.55,28.409 80.286,5.794 134.272,27.8 156.886,81.536 	"/>
	<path fill="#480E3F" d="M57.994,61.563l2.986,1.161c0,0-1.493,3.815,0,5.143s2.986,1.493,3.981,5.309
		c0.996,3.816,10.617,16.093,14.268,16.093s10.617-4.313,13.936-9.788c3.318-5.475,4.479-9.954,4.479-9.954s1.328,0.995,1.991-1.659
		s-0.332-4.313,0.995-4.977c1.328-0.664,3.152-1.327,3.152-1.327s-0.166,8.295-1.327,9.29c-1.161,0.996-1.659,7.632-5.475,11.281
		S83.377,93.582,80.889,93.582c-2.489,0-15.429-7.965-18.249-14.601c-2.82-6.636-3.152-7.798-4.646-9.622
		C56.501,67.534,57.994,61.563,57.994,61.563z"/>
	<path fill="#480E3F" d="M80.556,41.447c-6.779,0-12.275,5.496-12.275,12.276S73.776,66,80.556,66
		c6.781,0,12.277-5.496,12.277-12.276S87.337,41.447,80.556,41.447z M80.556,57.622c-2.152,0-3.897-1.746-3.897-3.898
		s1.745-3.898,3.897-3.898c2.154,0,3.899,1.746,3.899,3.898S82.71,57.622,80.556,57.622z"/>
	<path fill="#480E3F" d="M92.833,34.936c0,0-17.005,0-23.475,0c-6.47,0-8.461,5.89-8.461,5.89s0,16.258,0,17.917
		s1.908,1.907,1.908,1.907h3.406c-1.013-2.094-1.581-4.444-1.581-6.926c0-8.796,7.13-15.926,15.925-15.926
		c8.797,0,15.928,7.13,15.928,15.926c0,2.369-0.521,4.615-1.449,6.636c0.695,0,1.81,0,2.485,0c1.036,0,1.12-1.12,1.12-1.12
		s0-9.041,0-15.263C98.64,37.756,92.833,34.936,92.833,34.936z"/>
	<path fill="#480E3F" d="M94.823,90.43l-14.268,25.549L66.455,89.682c0,0-0.166,2.986-8.544,4.895
		c-8.377,1.908-16.838,5.393-16.838,12.609c0,7.215,1.742,10.699,13.023,12.939c11.281,2.238,39.069,5.143,51.927,0.996
		c12.856-4.148,17.75-6.721,14.848-14.02c-2.904-7.299-4.48-7.715-10.12-9.457C105.109,95.904,95.321,91.84,94.823,90.43z"/>
</g>
</svg>
