<?xml version="1.0" encoding="utf-8"?>
<!-- Generator: Adobe Illustrator 16.0.3, SVG Export Plug-In . SVG Version: 6.00 Build 0)  -->
<!DOCTYPE svg PUBLIC "-//W3C//DTD SVG 1.1//EN" "http://www.w3.org/Graphics/SVG/1.1/DTD/svg11.dtd">
<svg version="1.1" id="Camada_1" xmlns="http://www.w3.org/2000/svg" xmlns:xlink="http://www.w3.org/1999/xlink" x="0px" y="0px"
	 width="162px" height="166px" viewBox="0 0 162 166" enable-background="new 0 0 162 166" xml:space="preserve">
<g>
	<polygon fill="#FFFFFF" stroke="#B1B3B4" stroke-width="4" stroke-miterlimit="10" points="135.164,135.523 81.43,158.137 
		27.444,136.131 4.829,82.395 26.834,28.408 80.571,5.794 134.557,27.799 157.17,81.536 	"/>
	<g>
		<path fill="#480E3F" d="M31.75,74.793c0,0,19.834,33,51.167,33c31.334,0,50.668-34.666,50.668-34.666s-28.5,23.832-50.918,23.832
			C60.25,96.959,31.75,74.793,31.75,74.793z"/>
		<path fill="#480E3F" d="M82.666,65.711c9.875,0,50.918,2.375,50.918,2.375c-5.584,0-22.418-11.625-32.168-11.939
			c-9.75-0.313-18,6.564-18,6.564c-9.5-5.125-19.75-10.25-33.125-2.875s-21.875,9.125-21.875,9.125
			C70.917,64.586,72.792,65.711,82.666,65.711z"/>
		<path fill="#480E3F" d="M46.784,77.745c5.381,0.979,12.617,1.902,20.133,1.717c15.125-0.375,16.625-1,16.625-1
			S61.717,79.772,46.784,77.745z"/>
		<path fill="#480E3F" d="M46.784,77.745c-5.447-0.99-8.992-2.033-8.992-2.033C40.164,76.612,43.286,77.27,46.784,77.745z"/>
	</g>
</g>
</svg>
