<?xml version="1.0" encoding="utf-8"?>
<!-- Generator: Adobe Illustrator 23.0.1, SVG Export Plug-In . SVG Version: 6.00 Build 0)  -->
<svg version="1.1" id="Camada_1" xmlns="http://www.w3.org/2000/svg" xmlns:xlink="http://www.w3.org/1999/xlink" x="0px" y="0px"
	 viewBox="0 0 162 166" style="enable-background:new 0 0 162 166;" xml:space="preserve">
<style type="text/css">
	.st0{fill:none;stroke:#FFFFFF;stroke-width:4;stroke-miterlimit:10;}
	.st1{fill:#FFFFFF;}
</style>
<polygon class="st0" points="135.2,135.5 81.4,158.1 27.4,136.1 4.8,82.4 26.8,28.4 80.6,5.8 134.6,27.8 157.2,81.5 "/>
<path class="st1" d="M95.2,37c-6.3,0-13.3,3.8-13.3,3.8c-3.6,1.8-8.7-3.7-17-3.7s-18.5,6.1-10.4,29.6c3.8,18.8,1.8,35.3,1.8,43.2
	c0,7.8,12.5,17.2,12.5,17.2c0-22.7,0.7-39.8,13-39.8c12.3,0,11.7,39.8,11.7,39.8c14.3-12.5,11.2-22.5,9.5-38.8
	c-1.7-16.3,4-22.3,6-34.3S101.5,37,95.2,37z M63.9,42.7c0,4.2,4.6,4.9,4.6,4.9c-4.6,0-5,5.3-5,3.3c-0.3-3.4-3-3.2-3.4-3.4
	C63.6,46.8,63.9,42.7,63.9,42.7z M62.3,57.8c-0.2-2.2-1.9-2-2.2-2.1c2.2-0.4,2.4-3,2.4-3c0,2.7,2.9,3.1,2.9,3.1
	C62.5,55.8,62.3,59.1,62.3,57.8z M70.2,55.8c-0.2-2.2-1.9-2-2.2-2.1c2.2-0.4,2.4-3,2.4-3c0,2.7,2.9,3.1,2.9,3.1
	C70.4,53.8,70.2,57.1,70.2,55.8z"/>
</svg>
