<?xml version="1.0" encoding="utf-8"?>
<!-- Generator: Adobe Illustrator 23.0.1, SVG Export Plug-In . SVG Version: 6.00 Build 0)  -->
<svg version="1.1" id="Camada_1" xmlns="http://www.w3.org/2000/svg" xmlns:xlink="http://www.w3.org/1999/xlink" x="0px" y="0px"
	 viewBox="0 0 162 166" style="enable-background:new 0 0 162 166;" xml:space="preserve">
<style type="text/css">
	.st0{fill:#ECEDED;}
	.st1{fill:#480E3F;}
</style>
<path class="st0" d="M34,80.4c0,0-8.9,18.7,0,23s33.6,7.5,61.4,3.1c27.8-4.4,42.2-6.9,40.8-20.6c-1.3-13.8-4.8-14.9-4.8-14.9
	S85.2,105.4,34,80.4z"/>
<g>
	<path class="st1" d="M50.7,68.5c-2,0-4.4,1.7-5.9,1.7c-1.5,0-4.8-1.7-6.3-1.7S34,70.2,34,74.9s3.3,9.3,3.3,9.3s13,0,14.2,0
		c1.2,0,3.8-5.4,3.8-9.4C55.3,70.7,52.8,68.5,50.7,68.5z"/>
	<polygon class="st1" points="51.2,85.8 38.4,85.8 38.4,88.1 36.3,88.1 36.3,89.6 53.5,89.6 53.5,88.1 51.2,88.1 	"/>
	<polygon class="st1" points="50.4,90.7 39.2,90.7 39.2,92.7 37.4,92.7 37.4,94 52.3,94 52.3,92.7 50.4,92.7 	"/>
	<polygon class="st1" points="49.3,95.2 40,95.2 40,96.8 38.5,96.8 38.5,97.9 50.9,97.9 50.9,96.8 49.3,96.8 	"/>
	<polygon class="st1" points="48.1,99 41.6,99 41.6,100.1 40.5,100.1 40.5,100.9 49.2,100.9 49.2,100.1 48.1,100.1 	"/>
	<path class="st1" d="M75.8,68.5c-2,0-4.4,1.7-5.9,1.7c-1.5,0-4.8-1.7-6.3-1.7c-1.5,0-4.5,1.8-4.5,6.4s3.3,9.3,3.3,9.3s13,0,14.2,0
		s3.8-5.4,3.8-9.4C80.4,70.7,77.8,68.5,75.8,68.5z"/>
	<polygon class="st1" points="76.3,85.8 63.4,85.8 63.4,88.1 61.3,88.1 61.3,89.6 78.5,89.6 78.5,88.1 76.3,88.1 	"/>
	<polygon class="st1" points="75.5,90.7 64.3,90.7 64.3,92.7 62.5,92.7 62.5,94 77.4,94 77.4,92.7 75.5,92.7 	"/>
	<polygon class="st1" points="74.3,95.2 65.1,95.2 65.1,96.8 63.6,96.8 63.6,97.9 76,97.9 76,96.8 74.3,96.8 	"/>
	<polygon class="st1" points="73.2,99 66.6,99 66.6,100.1 65.6,100.1 65.6,100.9 74.3,100.9 74.3,100.1 73.2,100.1 	"/>
	<path class="st1" d="M101.5,68.5c-2,0-4.4,1.7-5.9,1.7c-1.5,0-4.8-1.7-6.3-1.7c-1.5,0-4.5,1.8-4.5,6.4s3.3,9.3,3.3,9.3s13,0,14.2,0
		c1.2,0,3.8-5.4,3.8-9.4C106.1,70.7,103.5,68.5,101.5,68.5z"/>
	<polygon class="st1" points="102,85.8 89.1,85.8 89.1,88.1 87,88.1 87,89.6 104.2,89.6 104.2,88.1 102,88.1 	"/>
	<polygon class="st1" points="101.1,90.7 89.9,90.7 89.9,92.7 88.1,92.7 88.1,94 103.1,94 103.1,92.7 101.1,92.7 	"/>
	<polygon class="st1" points="100,95.2 90.8,95.2 90.8,96.8 89.3,96.8 89.3,97.9 101.6,97.9 101.6,96.8 100,96.8 	"/>
	<polygon class="st1" points="98.8,99 92.3,99 92.3,100.1 91.3,100.1 91.3,100.9 100,100.9 100,100.1 98.8,100.1 	"/>
	<path class="st1" d="M127.7,78.7c1.2,0,3.8-5.4,3.8-9.4c0-4-2.6-6.3-4.6-6.3c-2,0-4.4,1.7-5.9,1.7c-1.5,0-4.8-1.7-6.3-1.7
		c-1.5,0-4.5,1.8-4.5,6.4c0,4.6,3.3,9.3,3.3,9.3S126.4,78.7,127.7,78.7z"/>
	<polygon class="st1" points="127.3,80.4 114.5,80.4 114.5,82.6 112.4,82.6 112.4,84.2 129.6,84.2 129.6,82.6 127.3,82.6 	"/>
	<polygon class="st1" points="126.5,85.3 115.3,85.3 115.3,87.2 113.5,87.2 113.5,88.6 128.5,88.6 128.5,87.2 126.5,87.2 	"/>
	<polygon class="st1" points="125.4,89.7 116.1,89.7 116.1,91.4 114.6,91.4 114.6,92.5 127,92.5 127,91.4 125.4,91.4 	"/>
	<polygon class="st1" points="124.2,93.6 117.7,93.6 117.7,94.7 116.6,94.7 116.6,95.5 125.3,95.5 125.3,94.7 124.2,94.7 	"/>
</g>
</svg>
