<?xml version="1.0" encoding="utf-8"?>
<!-- Generator: Adobe Illustrator 23.0.1, SVG Export Plug-In . SVG Version: 6.00 Build 0)  -->
<svg version="1.1" id="Camada_1" xmlns="http://www.w3.org/2000/svg" xmlns:xlink="http://www.w3.org/1999/xlink" x="0px" y="0px"
	 viewBox="0 0 1089 162" style="enable-background:new 0 0 1089 162;" xml:space="preserve">
<style type="text/css">
	.st0{fill:url(#SVGID_1_);}
	.st1{fill:url(#SVGID_2_);}
	.st2{fill:url(#SVGID_3_);}
	.st3{fill:url(#SVGID_4_);}
	.st4{fill:url(#SVGID_5_);}
	.st5{fill:url(#SVGID_6_);}
	.st6{fill:url(#SVGID_7_);}
	.st7{fill:url(#SVGID_8_);}
	.st8{fill:url(#SVGID_9_);}
	.st9{fill:url(#SVGID_10_);}
	.st10{fill:url(#SVGID_11_);}
	.st11{fill:url(#SVGID_12_);}
	.st12{fill:url(#SVGID_13_);}
	.st13{fill:url(#SVGID_14_);}
	.st14{fill:url(#SVGID_15_);}
	.st15{fill:url(#SVGID_16_);}
	.st16{fill:url(#SVGID_17_);}
	.st17{fill:url(#SVGID_18_);}
	.st18{fill:url(#SVGID_19_);}
	.st19{fill:url(#SVGID_20_);}
	.st20{fill:url(#SVGID_21_);}
	.st21{fill:url(#SVGID_22_);}
	.st22{fill:url(#SVGID_23_);}
	.st23{fill:url(#SVGID_24_);}
	.st24{fill:url(#SVGID_25_);}
	.st25{fill:url(#SVGID_26_);}
	.st26{fill:url(#SVGID_27_);}
	.st27{fill:url(#SVGID_28_);}
	.st28{fill:url(#SVGID_29_);}
</style>
<g>
	<linearGradient id="SVGID_1_" gradientUnits="userSpaceOnUse" x1="98.7088" y1="-32.5395" x2="88.0421" y2="198.1272">
		<stop  offset="6.666670e-02" style="stop-color:#FFF8B1"/>
		<stop  offset="0.1951" style="stop-color:#FCF5AE"/>
		<stop  offset="0.3015" style="stop-color:#F3EAA5"/>
		<stop  offset="0.4001" style="stop-color:#E5D996"/>
		<stop  offset="0.494" style="stop-color:#D0C180"/>
		<stop  offset="0.5845" style="stop-color:#B5A165"/>
		<stop  offset="0.6713" style="stop-color:#957C43"/>
		<stop  offset="0.736" style="stop-color:#785A26"/>
		<stop  offset="0.8764" style="stop-color:#996C25"/>
		<stop  offset="0.9063" style="stop-color:#9D7025"/>
		<stop  offset="0.936" style="stop-color:#A97B23"/>
		<stop  offset="0.9657" style="stop-color:#BD8F21"/>
		<stop  offset="0.9952" style="stop-color:#D9AA1E"/>
		<stop  offset="1" style="stop-color:#DEAF1D"/>
	</linearGradient>
	<path class="st0" d="M148.2,149.6c0.3,0,0.5,0.2,0.5,0.5c0,0.2-0.2,0.4-0.5,0.4c-4.5,0-8.5-0.8-12.1-2.3c-3.6-1.5-6.7-3.7-9.3-6.4
		c-2.6-2.7-4.5-5.9-5.8-9.7c-1.3-3.7-2-7.8-2-12.3c0-5.4,0.8-10.8,2.4-16.2c1.6-5.3,3.7-10.6,6.3-15.7c2.6-5.1,5.5-10.2,8.9-15.1
		c3.4-4.9,6.8-9.6,10.3-14.1c3.5-4.5,6.9-8.8,10.3-12.9c3.4-4.1,6.4-7.9,9-11.3c2.6-3.5,4.8-6.6,6.4-9.5c1.7-2.9,2.5-5.4,2.6-7.5
		c0-0.9-0.2-1.6-0.6-2.2c-0.4-0.6-1.3-0.9-2.7-0.9c-1.7,0-3.7,0.6-6.1,1.8c-4.6,2.2-9.6,5.2-14.9,9.1c-5.3,3.9-10.6,8.3-16,13.3
		c-5.4,5-10.8,10.2-16.1,15.9c-5.3,5.6-10.4,11.2-15.2,16.9c-4.8,5.6-9.3,11.1-13.3,16.5c-4,5.3-7.4,10.2-10.1,14.5
		c-0.2,0-0.2,0-0.2,0.1c0,0.1,0,0.1-0.1,0.1c-0.3,0-0.5-0.2-0.5-0.6c1.1-5.7,3.1-11.4,6-17.1c2.9-5.7,6.1-11.4,9.8-16.9
		c3.7-5.5,7.5-10.9,11.5-16.1c4-5.2,7.7-10.1,11-14.6c3.3-4.6,6.1-8.7,8.3-12.5c2.2-3.8,3.3-7,3.4-9.8c0-0.6-0.2-1-0.5-1.2
		c-0.4-0.2-0.7-0.2-1.1-0.2c-2,0-4.7,0.8-7.9,2.4c-3.2,1.6-6.7,3.6-10.4,6.1c-3.7,2.5-7.6,5.2-11.6,8.3c-4,3-7.7,6-11.3,8.9
		c-3.5,2.9-6.7,5.6-9.4,8.1c-2.8,2.5-4.8,4.3-6.1,5.6c-9.5,9.1-19.2,19.4-29.2,30.8s-20.1,24.1-30.4,37.9c-0.2,0.2-0.3,0.2-0.4,0.2
		c-0.1,0-0.1,0,0,0.1c-0.1,0-0.2,0-0.2-0.1c-0.2-0.2-0.2-0.3-0.2-0.5c0.6-4.6,2-9.4,4.2-14.4c2.3-5,5.1-9.9,8.4-15
		c3.3-5,7-10.1,11-15.2c4.1-5.1,8.2-10.1,12.4-15.1c4.2-5,8.3-9.8,12.3-14.6c4-4.8,7.6-9.4,10.8-13.8c3.2-4.4,5.9-8.6,8.1-12.6
		c2.2-4,3.4-7.7,3.8-11.2c0-0.3,0.2-0.5,0.5-0.5c0.3,0.1,0.5,0.3,0.5,0.6c-0.7,5.4-2.8,11.2-6.3,17.3c-3.5,6.1-7.6,12.4-12.6,18.9
		c-4.9,6.4-10.2,13-15.9,19.6c-5.7,6.6-11,13.1-16,19.5c-5,6.4-9.4,12.5-13.1,18.4c-3.7,5.9-6.1,11.4-7,16.5
		c10.1-13.5,20-25.9,29.8-37.1C51.3,71.1,60.8,61,70.1,52.1c1.5-1.4,3.7-3.4,6.5-5.9c2.8-2.5,6-5.2,9.6-8.1c3.5-2.9,7.3-5.9,11.3-9
		c4-3.1,7.8-5.8,11.6-8.3c3.8-2.4,7.3-4.4,10.6-6c3.3-1.6,6-2.4,8.1-2.4c1.4,0,2.4,0.4,3.1,1.1c0.7,0.7,1.1,1.8,1.1,3
		c0,2.2-1.1,5.1-3.2,8.7c-2.2,3.6-4.9,7.6-8.3,12.2c-3.4,4.6-7.1,9.4-11.2,14.6c-4.1,5.2-8,10.5-11.8,15.9
		c-3.8,5.4-7.2,10.8-10.2,16.2c-3,5.4-5.2,10.5-6.4,15.3c2.9-4.4,6.4-9.2,10.4-14.5c4-5.3,8.5-10.7,13.3-16.2
		c4.8-5.5,9.8-11,15.1-16.5c5.3-5.5,10.6-10.6,15.9-15.3c5.3-4.8,10.5-9,15.6-12.8c5.1-3.8,9.9-6.8,14.5-9c2.6-1.3,4.8-1.9,6.5-1.9
		c2,0,3.4,0.6,4.2,1.9c0.8,1.3,1.2,2.8,1.2,4.4c0,2-0.8,4.3-2.4,7.1c-1.6,2.8-3.8,5.9-6.4,9.4c-2.7,3.5-5.7,7.3-9.1,11.4
		c-3.4,4.1-6.9,8.5-10.4,13c-3.5,4.6-7,9.3-10.4,14.2c-3.4,4.9-6.5,9.9-9.1,15c-2.7,5.1-4.8,10.3-6.4,15.6
		c-1.6,5.3-2.4,10.5-2.4,15.7c0,4.2,0.6,8.1,1.9,11.6c1.3,3.5,3.1,6.5,5.5,9c2.4,2.5,5.2,4.4,8.7,5.7
		C140.1,149,143.9,149.6,148.2,149.6z"/>
	<linearGradient id="SVGID_2_" gradientUnits="userSpaceOnUse" x1="171.4596" y1="-29.1753" x2="160.7929" y2="201.4914">
		<stop  offset="6.666670e-02" style="stop-color:#FFF8B1"/>
		<stop  offset="0.1951" style="stop-color:#FCF5AE"/>
		<stop  offset="0.3015" style="stop-color:#F3EAA5"/>
		<stop  offset="0.4001" style="stop-color:#E5D996"/>
		<stop  offset="0.494" style="stop-color:#D0C180"/>
		<stop  offset="0.5845" style="stop-color:#B5A165"/>
		<stop  offset="0.6713" style="stop-color:#957C43"/>
		<stop  offset="0.736" style="stop-color:#785A26"/>
		<stop  offset="0.8764" style="stop-color:#996C25"/>
		<stop  offset="0.9063" style="stop-color:#9D7025"/>
		<stop  offset="0.936" style="stop-color:#A97B23"/>
		<stop  offset="0.9657" style="stop-color:#BD8F21"/>
		<stop  offset="0.9952" style="stop-color:#D9AA1E"/>
		<stop  offset="1" style="stop-color:#DEAF1D"/>
	</linearGradient>
	<path class="st1" d="M179.3,83.7c0.5,0,0.7,0.2,0.7,0.7c-1.3,1.5-2.9,3-4.5,4.5c-1.7,1.5-3.5,2.8-5.4,4c-1.9,1.2-3.9,2.1-6,2.9
		c-2.1,0.7-4.2,1.1-6.3,1.1c-1.9,0-3.3-0.5-4.1-1.6c-0.9-1.1-1.4-2.4-1.5-4c0-1.2,0.2-2.4,0.5-3.6c0.3-1.2,0.8-2.3,1.5-3.4
		c0.6-1,1.4-1.9,2.4-2.5c0.9-0.7,2-1,3.3-1c1.7,0,2.7,0.6,2.8,1.7c0,0.6-0.2,1.1-0.7,1.6c-0.5,0.5-1,1-1.7,1.5
		c-0.7,0.5-1.4,0.9-2.2,1.2c-0.8,0.4-1.5,0.6-2.2,0.8c-0.6,1.5-0.9,2.9-0.9,4.4c0.1,1.1,0.4,2,1.1,2.7c0.6,0.7,1.6,1.1,2.9,1.1
		c1.9,0,3.8-0.4,5.7-1.1c1.9-0.7,3.7-1.7,5.5-2.8c1.8-1.1,3.5-2.4,5.1-3.8C176.7,86.6,178.1,85.1,179.3,83.7z M161.5,82
		c-1,0-2,0.5-2.9,1.4c-0.9,0.9-1.7,2-2.3,3.2c1.1-0.4,2.3-1,3.6-1.8c1.3-0.8,1.9-1.6,1.9-2.3C161.9,82.1,161.7,82,161.5,82z"/>
	<linearGradient id="SVGID_3_" gradientUnits="userSpaceOnUse" x1="214.5533" y1="-27.1825" x2="203.8866" y2="203.4842">
		<stop  offset="6.666670e-02" style="stop-color:#FFF8B1"/>
		<stop  offset="0.1951" style="stop-color:#FCF5AE"/>
		<stop  offset="0.3015" style="stop-color:#F3EAA5"/>
		<stop  offset="0.4001" style="stop-color:#E5D996"/>
		<stop  offset="0.494" style="stop-color:#D0C180"/>
		<stop  offset="0.5845" style="stop-color:#B5A165"/>
		<stop  offset="0.6713" style="stop-color:#957C43"/>
		<stop  offset="0.736" style="stop-color:#785A26"/>
		<stop  offset="0.8764" style="stop-color:#996C25"/>
		<stop  offset="0.9063" style="stop-color:#9D7025"/>
		<stop  offset="0.936" style="stop-color:#A97B23"/>
		<stop  offset="0.9657" style="stop-color:#BD8F21"/>
		<stop  offset="0.9952" style="stop-color:#D9AA1E"/>
		<stop  offset="1" style="stop-color:#DEAF1D"/>
	</linearGradient>
	<path class="st2" d="M246.5,32.4c1.6,0.2,2.4,1.1,2.4,2.7c0,1.4-0.9,3.4-2.7,5.8c-1.8,2.5-4.2,5.3-7.2,8.4c-3,3.1-6.5,6.4-10.4,9.8
		c-4,3.5-8.1,6.9-12.4,10.4c-4.3,3.5-8.6,6.8-13,9.9c-4.4,3.1-8.5,5.9-12.4,8.4c-2.8,3.8-5.1,7.1-6.7,10c-1.7,2.9-2.5,5.2-2.5,6.7
		c0,1.6,0.9,2.4,2.8,2.4c2.3,0,5.1-0.8,8.4-2.5c3.3-1.7,6.8-3.7,10.3-6.1c2.3-1.6,4.5-3.2,6.7-4.9c2.2-1.7,4.1-3.3,5.8-4.9
		c1.1-1,2.2-2.1,3.2-3.2c1-1.1,1.6-1.7,1.8-1.7c0.4,0,0.6,0.2,0.6,0.6c-1,1.2-2.4,2.6-4.1,4.2c-1.7,1.6-3.7,3.3-5.9,5.1
		c-2.2,1.8-4.5,3.5-7,5.2c-2.4,1.7-4.9,3.2-7.3,4.6c-2.4,1.4-4.7,2.5-6.9,3.3c-2.2,0.8-4.1,1.2-5.7,1.2c-1.6,0-2.7-0.4-3.4-1.1
		c-0.7-0.7-1.1-1.7-1.1-2.8c0-1.4,0.5-3.3,1.5-5.5c1-2.3,2.3-4.8,4.1-7.4c-2.8,1.3-5,2.4-6.7,3.2c-1.7,0.8-3.3,1.2-4.6,1.2
		c-0.6,0-1.2-0.2-1.7-0.5c-0.5-0.3-0.7-0.9-0.7-1.9c0-1.2,0.3-2.4,0.9-3.7c0.6-1.3,1.4-2.4,2.3-3.5c0.9-1.1,2-1.9,3.2-2.6
		c1.2-0.7,2.4-1,3.6-1c1.6,0,2.9,0.5,4,1.4c1.1,0.9,1.7,2.2,1.9,3.8c2.5-3.8,5.5-7.8,8.9-12c3.4-4.2,7-8.4,10.8-12.4
		c3.8-4.1,7.7-8,11.6-11.7c3.9-3.7,7.6-7,11.1-9.8c3.5-2.8,6.7-5,9.6-6.7C242.5,33.3,244.8,32.4,246.5,32.4z M181.8,92
		c0.4-0.2,0.9-0.5,1.4-0.7c0.5-0.2,1.1-0.5,1.7-0.8c0.5-0.3,1-0.7,1.4-1.1c0.4-0.4,0.5-0.9,0.5-1.4c0-0.9-0.2-1.7-0.7-2.6
		c-0.5-0.9-1.2-1.3-2.2-1.3c-0.9,0-1.9,0.4-3.1,1.2c-1.2,0.8-2.4,1.7-3.5,2.8s-2,2.1-2.8,3.2c-0.8,1.1-1.2,2-1.2,2.7
		c0,0.5,0.4,0.7,1.1,0.7c0.9,0,1.9-0.2,3.1-0.7C178.6,93.5,180.1,92.8,181.8,92z M224.6,61.4c3.3-2.8,6.4-5.6,9.2-8.3
		c2.8-2.7,5.3-5.1,7.4-7.4c2.1-2.3,3.8-4.3,5-6.2c1.2-1.8,1.8-3.4,1.8-4.5c0-1.1-0.5-1.7-1.4-1.7c-1.2,0-2.9,0.8-5.2,2.4
		c-2.3,1.6-5,3.7-8.1,6.3c-3.1,2.6-6.4,5.7-10,9.2c-3.6,3.5-7.2,7.2-10.8,11.1s-7.2,7.8-10.7,11.9c-3.5,4-6.6,7.9-9.4,11.6
		c5-3.2,10.3-7,16-11.2C214,70.3,219.4,65.9,224.6,61.4z"/>
	<linearGradient id="SVGID_4_" gradientUnits="userSpaceOnUse" x1="231.9202" y1="-26.3794" x2="221.2535" y2="204.2872">
		<stop  offset="6.666670e-02" style="stop-color:#FFF8B1"/>
		<stop  offset="0.1951" style="stop-color:#FCF5AE"/>
		<stop  offset="0.3015" style="stop-color:#F3EAA5"/>
		<stop  offset="0.4001" style="stop-color:#E5D996"/>
		<stop  offset="0.494" style="stop-color:#D0C180"/>
		<stop  offset="0.5845" style="stop-color:#B5A165"/>
		<stop  offset="0.6713" style="stop-color:#957C43"/>
		<stop  offset="0.736" style="stop-color:#785A26"/>
		<stop  offset="0.8764" style="stop-color:#996C25"/>
		<stop  offset="0.9063" style="stop-color:#9D7025"/>
		<stop  offset="0.936" style="stop-color:#A97B23"/>
		<stop  offset="0.9657" style="stop-color:#BD8F21"/>
		<stop  offset="0.9952" style="stop-color:#D9AA1E"/>
		<stop  offset="1" style="stop-color:#DEAF1D"/>
	</linearGradient>
	<path class="st3" d="M239.6,83.7c0.2,0,0.3,0.1,0.5,0.2c0.2,0.1,0.2,0.3,0.2,0.5c-1.3,1.5-2.7,3-4.4,4.5c-1.7,1.5-3.5,2.9-5.5,4.1
		c-2,1.2-4,2.2-6.1,2.9c-2.1,0.7-4.2,1.1-6.3,1.1c-1.7,0-3-0.4-3.8-1.1c-0.8-0.7-1.2-1.8-1.2-3.1c0-0.8,0.2-1.8,0.7-2.9
		c0.5-1.2,1.1-2.3,1.8-3.3c0.7-1,1.5-1.9,2.3-2.7c0.8-0.7,1.6-1.1,2.2-1.1c0.4,0,0.7,0.1,1,0.2c0.3,0.2,0.4,0.4,0.4,0.8
		c0,0.3-0.3,0.8-0.9,1.6c-0.6,0.7-1.3,1.6-2.1,2.7c-0.7,1-1.5,2.1-2.1,3.1c-0.7,1.1-1,2.1-1,3c0,1.3,0.8,1.9,2.4,1.9
		c2,0,4-0.4,6-1.1c2-0.7,4-1.7,6-2.8c2-1.2,3.8-2.5,5.5-4C236.7,86.7,238.2,85.2,239.6,83.7z M224.6,79.4c-0.2-0.2-0.2-0.3-0.2-0.5
		c0-0.5,0.3-1,0.9-1.7c0.6-0.6,1.3-0.9,2.2-0.9c0.5,0,1,0.1,1.3,0.4c0.3,0.2,0.5,0.4,0.5,0.6c0,0.5-0.5,1-1.5,1.5
		c-1,0.5-1.8,0.8-2.5,0.8C224.9,79.5,224.7,79.4,224.6,79.4z"/>
	<linearGradient id="SVGID_5_" gradientUnits="userSpaceOnUse" x1="257.5824" y1="-25.1927" x2="246.9158" y2="205.474">
		<stop  offset="6.666670e-02" style="stop-color:#FFF8B1"/>
		<stop  offset="0.1951" style="stop-color:#FCF5AE"/>
		<stop  offset="0.3015" style="stop-color:#F3EAA5"/>
		<stop  offset="0.4001" style="stop-color:#E5D996"/>
		<stop  offset="0.494" style="stop-color:#D0C180"/>
		<stop  offset="0.5845" style="stop-color:#B5A165"/>
		<stop  offset="0.6713" style="stop-color:#957C43"/>
		<stop  offset="0.736" style="stop-color:#785A26"/>
		<stop  offset="0.8764" style="stop-color:#996C25"/>
		<stop  offset="0.9063" style="stop-color:#9D7025"/>
		<stop  offset="0.936" style="stop-color:#A97B23"/>
		<stop  offset="0.9657" style="stop-color:#BD8F21"/>
		<stop  offset="0.9952" style="stop-color:#D9AA1E"/>
		<stop  offset="1" style="stop-color:#DEAF1D"/>
	</linearGradient>
	<path class="st4" d="M270,83.7c0.4,0,0.6,0.2,0.6,0.7c-1.6,1.7-3.4,3.5-5.6,5.4c-2.2,2-4.5,3.8-7,5.5c-2.5,1.7-5.1,3.1-7.7,4.2
		c-2.6,1.1-5.1,1.7-7.5,1.7c-3,0-5.2-0.8-6.6-2.3c-1.4-1.5-2.1-3.4-2.1-5.5c0-1.4,0.3-2.8,0.9-4.3c0.6-1.5,1.4-2.8,2.4-3.9
		c1-1.1,2.2-2.1,3.5-2.8c1.3-0.7,2.7-1.1,4.1-1.1c0.9,0,1.7,0.3,2.4,0.9c0.7,0.6,1,1.4,1,2.3c0,0.7-0.1,1.2-0.4,1.5
		c-0.3,0.3-0.5,0.5-0.8,0.5s-0.4-0.1-0.4-0.4c0.4-0.5,0.6-1.1,0.6-1.7c0-0.5-0.1-0.9-0.4-1.3c-0.2-0.4-0.6-0.6-1.2-0.6
		c-1,0-2.1,0.4-3.1,1.2c-1.1,0.8-2,1.8-2.9,3c-0.9,1.2-1.6,2.5-2.2,3.8c-0.6,1.4-0.9,2.6-0.9,3.7c0,1.6,0.5,2.9,1.4,4.1
		c0.9,1.2,2.5,1.8,4.7,1.8c2.3,0,4.7-0.6,7.3-1.7c2.6-1.1,5.1-2.5,7.5-4.2c2.4-1.7,4.7-3.4,6.9-5.4C266.7,87,268.5,85.3,270,83.7z"
		/>
	<linearGradient id="SVGID_6_" gradientUnits="userSpaceOnUse" x1="281.9294" y1="-24.0668" x2="271.2628" y2="206.5998">
		<stop  offset="6.666670e-02" style="stop-color:#FFF8B1"/>
		<stop  offset="0.1951" style="stop-color:#FCF5AE"/>
		<stop  offset="0.3015" style="stop-color:#F3EAA5"/>
		<stop  offset="0.4001" style="stop-color:#E5D996"/>
		<stop  offset="0.494" style="stop-color:#D0C180"/>
		<stop  offset="0.5845" style="stop-color:#B5A165"/>
		<stop  offset="0.6713" style="stop-color:#957C43"/>
		<stop  offset="0.736" style="stop-color:#785A26"/>
		<stop  offset="0.8764" style="stop-color:#996C25"/>
		<stop  offset="0.9063" style="stop-color:#9D7025"/>
		<stop  offset="0.936" style="stop-color:#A97B23"/>
		<stop  offset="0.9657" style="stop-color:#BD8F21"/>
		<stop  offset="0.9952" style="stop-color:#D9AA1E"/>
		<stop  offset="1" style="stop-color:#DEAF1D"/>
	</linearGradient>
	<path class="st5" d="M289.7,83.7c0.2,0,0.3,0.1,0.5,0.2c0.2,0.1,0.2,0.3,0.2,0.5c-1.3,1.5-2.7,3-4.4,4.5c-1.7,1.5-3.5,2.9-5.5,4.1
		c-2,1.2-4,2.2-6.1,2.9c-2.1,0.7-4.2,1.1-6.3,1.1c-1.7,0-3-0.4-3.8-1.1c-0.8-0.7-1.2-1.8-1.2-3.1c0-0.8,0.2-1.8,0.7-2.9
		c0.5-1.2,1.1-2.3,1.8-3.3c0.7-1,1.5-1.9,2.3-2.7c0.8-0.7,1.6-1.1,2.2-1.1c0.4,0,0.7,0.1,1,0.2c0.3,0.2,0.4,0.4,0.4,0.8
		c0,0.3-0.3,0.8-0.9,1.6c-0.6,0.7-1.3,1.6-2.1,2.7c-0.7,1-1.5,2.1-2.1,3.1c-0.7,1.1-1,2.1-1,3c0,1.3,0.8,1.9,2.4,1.9
		c2,0,4-0.4,6-1.1c2-0.7,4-1.7,6-2.8c2-1.2,3.8-2.5,5.5-4C286.8,86.7,288.4,85.2,289.7,83.7z M274.7,79.4c-0.2-0.2-0.2-0.3-0.2-0.5
		c0-0.5,0.3-1,0.9-1.7c0.6-0.6,1.3-0.9,2.2-0.9c0.5,0,1,0.1,1.3,0.4c0.3,0.2,0.5,0.4,0.5,0.6c0,0.5-0.5,1-1.5,1.5
		c-1,0.5-1.8,0.8-2.5,0.8C275,79.5,274.8,79.4,274.7,79.4z"/>
	<linearGradient id="SVGID_7_" gradientUnits="userSpaceOnUse" x1="304.1667" y1="-23.0385" x2="293.5" y2="207.6281">
		<stop  offset="6.666670e-02" style="stop-color:#FFF8B1"/>
		<stop  offset="0.1951" style="stop-color:#FCF5AE"/>
		<stop  offset="0.3015" style="stop-color:#F3EAA5"/>
		<stop  offset="0.4001" style="stop-color:#E5D996"/>
		<stop  offset="0.494" style="stop-color:#D0C180"/>
		<stop  offset="0.5845" style="stop-color:#B5A165"/>
		<stop  offset="0.6713" style="stop-color:#957C43"/>
		<stop  offset="0.736" style="stop-color:#785A26"/>
		<stop  offset="0.8764" style="stop-color:#996C25"/>
		<stop  offset="0.9063" style="stop-color:#9D7025"/>
		<stop  offset="0.936" style="stop-color:#A97B23"/>
		<stop  offset="0.9657" style="stop-color:#BD8F21"/>
		<stop  offset="0.9952" style="stop-color:#D9AA1E"/>
		<stop  offset="1" style="stop-color:#DEAF1D"/>
	</linearGradient>
	<path class="st6" d="M316.7,83.7c0.5,0,0.7,0.2,0.7,0.7l-1.1,1.1c-0.9,0.9-2,2-3.3,3.3c-1.3,1.3-2.6,2.4-4,3.5
		c-1.4,1.1-2.8,2-4.1,2.8c-1.4,0.8-2.7,1.2-3.8,1.2c-1.3,0-2.3-0.4-2.8-1.3c-0.5-0.9-0.9-1.8-1.1-2.8c-0.2-1-0.4-1.9-0.6-2.8
		c-0.2-0.9-0.7-1.3-1.4-1.3c-0.6,0-1.4,0.4-2.4,1.2c-1.1,0.8-2.2,1.7-3.3,2.8c-1.1,1.1-2.2,2.1-3.3,3.2c-1.1,1.1-1.9,2-2.5,2.6
		l-0.5,0.5c-0.2,0.6-0.7,0.8-1.3,0.8c-0.5,0-0.8-0.2-1.1-0.5c-0.3-0.3-0.4-0.7-0.4-1.1c0-0.2,0-0.4,0.1-0.6c0.5-1,1.1-2.3,1.9-3.9
		c0.8-1.6,1.7-3.1,2.6-4.6c0.9-1.5,1.9-2.8,2.8-3.9c0.9-1.1,1.8-1.7,2.6-1.7c0.9,0,1.4,0.3,1.4,0.9c0,0.4-0.2,0.8-0.5,1.2
		c-1.3,1.7-2.6,3.3-3.7,5.1c-1.1,1.7-2.2,3.5-3.1,5.4c0.9-0.9,1.8-2,2.9-3.1c1.1-1.1,2.2-2.1,3.3-3.1c1.1-0.9,2.2-1.7,3.2-2.4
		c1.1-0.6,1.9-0.9,2.7-0.9c1.2,0,1.9,0.5,2.3,1.4c0.4,0.9,0.6,2,0.8,3.1c0.2,1.1,0.4,2.2,0.6,3.1s0.8,1.4,1.7,1.4
		c0.8,0,1.9-0.5,3.4-1.5c1.5-1,2.9-2.1,4.4-3.5c1.5-1.3,2.8-2.6,4.1-3.9C315.2,85.3,316.1,84.4,316.7,83.7z"/>
	<linearGradient id="SVGID_8_" gradientUnits="userSpaceOnUse" x1="333.4595" y1="-21.684" x2="322.7928" y2="208.9827">
		<stop  offset="6.666670e-02" style="stop-color:#FFF8B1"/>
		<stop  offset="0.1951" style="stop-color:#FCF5AE"/>
		<stop  offset="0.3015" style="stop-color:#F3EAA5"/>
		<stop  offset="0.4001" style="stop-color:#E5D996"/>
		<stop  offset="0.494" style="stop-color:#D0C180"/>
		<stop  offset="0.5845" style="stop-color:#B5A165"/>
		<stop  offset="0.6713" style="stop-color:#957C43"/>
		<stop  offset="0.736" style="stop-color:#785A26"/>
		<stop  offset="0.8764" style="stop-color:#996C25"/>
		<stop  offset="0.9063" style="stop-color:#9D7025"/>
		<stop  offset="0.936" style="stop-color:#A97B23"/>
		<stop  offset="0.9657" style="stop-color:#BD8F21"/>
		<stop  offset="0.9952" style="stop-color:#D9AA1E"/>
		<stop  offset="1" style="stop-color:#DEAF1D"/>
	</linearGradient>
	<path class="st7" d="M345.8,83.7c0.4,0,0.6,0.2,0.6,0.7c-1.2,1.3-2.6,2.7-4.3,4.4c-1.7,1.7-3.5,3.2-5.5,4.7c-2,1.5-4,2.7-6.1,3.7
		c-2.1,1-4,1.5-5.8,1.5c-1.1,0-2.1-0.3-3-0.9c-0.9-0.6-1.4-1.7-1.4-3.3c0-1.8,0.4-3.7,1.1-5.5c-1.6,1.4-3.2,2.7-4.8,3.9
		c-1.7,1.2-2.9,1.8-3.9,1.8c-0.5,0-1.1-0.1-1.6-0.4c-0.5-0.3-0.8-0.8-0.8-1.7c0-0.9,0.3-2,0.9-3.1c0.6-1.1,1.3-2.1,2.2-3.1
		c0.9-1,1.9-1.8,2.9-2.4c1-0.6,2-0.9,2.9-0.9c0.9,0,1.6,0.2,2.3,0.7c0.7,0.5,1.2,1,1.6,1.5c0.4-0.5,0.7-0.9,1.1-1.4
		c0.3-0.5,0.9-0.7,1.7-0.7c0.3,0,0.6,0.1,0.9,0.2c0.3,0.2,0.4,0.4,0.4,0.8c0,0.2-0.3,0.8-0.8,1.7c-0.5,0.9-1.1,1.9-1.7,3.1
		c-0.6,1.2-1.1,2.4-1.6,3.6c-0.5,1.2-0.7,2.3-0.7,3.2c0,0.8,0.2,1.3,0.7,1.6c0.5,0.3,1,0.4,1.5,0.4c1.7,0,3.5-0.5,5.5-1.5
		c2-1,4-2.3,6-3.7c2-1.5,3.8-3,5.5-4.6C343.3,86.3,344.7,84.9,345.8,83.7z M322.8,86c-0.2-0.2-0.6-0.6-1.1-1.1
		c-0.5-0.5-1-0.8-1.4-0.8c-0.5,0-1.2,0.4-2.1,1.1c-0.9,0.7-1.9,1.5-2.8,2.5s-1.8,1.9-2.5,2.9c-0.7,1-1.1,1.8-1.1,2.3
		c0,0.5,0.2,0.7,0.7,0.7s1.1-0.2,2-0.7c0.9-0.5,1.8-1.1,2.7-1.8c0.9-0.7,1.9-1.6,2.9-2.4C321.2,87.7,322,86.8,322.8,86z"/>
	<linearGradient id="SVGID_9_" gradientUnits="userSpaceOnUse" x1="427.3" y1="-17.3445" x2="416.6333" y2="213.3222">
		<stop  offset="6.666670e-02" style="stop-color:#FFF8B1"/>
		<stop  offset="0.1951" style="stop-color:#FCF5AE"/>
		<stop  offset="0.3015" style="stop-color:#F3EAA5"/>
		<stop  offset="0.4001" style="stop-color:#E5D996"/>
		<stop  offset="0.494" style="stop-color:#D0C180"/>
		<stop  offset="0.5845" style="stop-color:#B5A165"/>
		<stop  offset="0.6713" style="stop-color:#957C43"/>
		<stop  offset="0.736" style="stop-color:#785A26"/>
		<stop  offset="0.8764" style="stop-color:#996C25"/>
		<stop  offset="0.9063" style="stop-color:#9D7025"/>
		<stop  offset="0.936" style="stop-color:#A97B23"/>
		<stop  offset="0.9657" style="stop-color:#BD8F21"/>
		<stop  offset="0.9952" style="stop-color:#D9AA1E"/>
		<stop  offset="1" style="stop-color:#DEAF1D"/>
	</linearGradient>
	<path class="st8" d="M459.7,32.4c1.6,0.2,2.4,1.1,2.4,2.7c0,1.4-0.9,3.4-2.7,5.8c-1.8,2.5-4.2,5.3-7.2,8.4c-3,3.1-6.5,6.4-10.4,9.8
		c-4,3.5-8.1,6.9-12.4,10.4c-4.3,3.5-8.6,6.8-13,9.9c-4.4,3.1-8.5,5.9-12.4,8.4c-2.8,3.8-5.1,7.1-6.7,10c-1.7,2.9-2.5,5.2-2.5,6.7
		c0,1.6,0.9,2.4,2.8,2.4c2.3,0,5.1-0.8,8.4-2.5c3.3-1.7,6.8-3.7,10.3-6.1c2.3-1.6,4.5-3.2,6.7-4.9c2.2-1.7,4.1-3.3,5.8-4.9
		c1.1-1,2.2-2.1,3.2-3.2c1-1.1,1.6-1.7,1.8-1.7c0.4,0,0.6,0.2,0.6,0.6c-1,1.2-2.4,2.6-4.1,4.2c-1.7,1.6-3.7,3.3-5.9,5.1
		c-2.2,1.8-4.5,3.5-7,5.2c-2.4,1.7-4.9,3.2-7.3,4.6c-2.4,1.4-4.7,2.5-6.9,3.3c-2.2,0.8-4.1,1.2-5.7,1.2c-1.6,0-2.7-0.4-3.4-1.1
		c-0.7-0.7-1.1-1.7-1.1-2.8c0-1.4,0.5-3.3,1.5-5.5c1-2.3,2.3-4.8,4.1-7.4c-2.8,1.3-5,2.4-6.7,3.2c-1.7,0.8-3.3,1.2-4.6,1.2
		c-0.6,0-1.2-0.2-1.7-0.5c-0.5-0.3-0.7-0.9-0.7-1.9c0-1.2,0.3-2.4,0.9-3.7c0.6-1.3,1.4-2.4,2.3-3.5c0.9-1.1,2-1.9,3.2-2.6
		c1.2-0.7,2.4-1,3.6-1c1.6,0,2.9,0.5,4,1.4c1.1,0.9,1.7,2.2,1.9,3.8c2.5-3.8,5.5-7.8,8.9-12c3.4-4.2,7-8.4,10.8-12.4
		c3.8-4.1,7.7-8,11.6-11.7c3.9-3.7,7.6-7,11.1-9.8c3.5-2.8,6.7-5,9.6-6.7C455.7,33.3,458,32.4,459.7,32.4z M395,92
		c0.4-0.2,0.9-0.5,1.4-0.7c0.5-0.2,1.1-0.5,1.7-0.8c0.5-0.3,1-0.7,1.4-1.1c0.4-0.4,0.5-0.9,0.5-1.4c0-0.9-0.2-1.7-0.7-2.6
		c-0.5-0.9-1.2-1.3-2.2-1.3c-0.9,0-1.9,0.4-3.1,1.2c-1.2,0.8-2.4,1.7-3.5,2.8s-2,2.1-2.8,3.2c-0.8,1.1-1.2,2-1.2,2.7
		c0,0.5,0.4,0.7,1.1,0.7c0.9,0,1.9-0.2,3.1-0.7C391.8,93.5,393.3,92.8,395,92z M437.8,61.4c3.3-2.8,6.4-5.6,9.2-8.3
		c2.8-2.7,5.3-5.1,7.4-7.4c2.1-2.3,3.8-4.3,5-6.2c1.2-1.8,1.8-3.4,1.8-4.5c0-1.1-0.5-1.7-1.4-1.7c-1.2,0-2.9,0.8-5.2,2.4
		c-2.3,1.6-5,3.7-8.1,6.3c-3.1,2.6-6.4,5.7-10,9.2c-3.6,3.5-7.2,7.2-10.8,11.1s-7.2,7.8-10.7,11.9c-3.5,4-6.6,7.9-9.4,11.6
		c5-3.2,10.3-7,16-11.2C427.2,70.3,432.6,65.9,437.8,61.4z"/>
	<linearGradient id="SVGID_10_" gradientUnits="userSpaceOnUse" x1="448.2184" y1="-16.3772" x2="437.5517" y2="214.2895">
		<stop  offset="6.666670e-02" style="stop-color:#FFF8B1"/>
		<stop  offset="0.1951" style="stop-color:#FCF5AE"/>
		<stop  offset="0.3015" style="stop-color:#F3EAA5"/>
		<stop  offset="0.4001" style="stop-color:#E5D996"/>
		<stop  offset="0.494" style="stop-color:#D0C180"/>
		<stop  offset="0.5845" style="stop-color:#B5A165"/>
		<stop  offset="0.6713" style="stop-color:#957C43"/>
		<stop  offset="0.736" style="stop-color:#785A26"/>
		<stop  offset="0.8764" style="stop-color:#996C25"/>
		<stop  offset="0.9063" style="stop-color:#9D7025"/>
		<stop  offset="0.936" style="stop-color:#A97B23"/>
		<stop  offset="0.9657" style="stop-color:#BD8F21"/>
		<stop  offset="0.9952" style="stop-color:#D9AA1E"/>
		<stop  offset="1" style="stop-color:#DEAF1D"/>
	</linearGradient>
	<path class="st9" d="M456.7,83.7c0.5,0,0.7,0.2,0.7,0.7c-1.3,1.5-2.9,3-4.5,4.5c-1.7,1.5-3.5,2.8-5.4,4c-1.9,1.2-3.9,2.1-6,2.9
		c-2.1,0.7-4.2,1.1-6.3,1.1c-1.9,0-3.3-0.5-4.1-1.6c-0.9-1.1-1.4-2.4-1.5-4c0-1.2,0.2-2.4,0.5-3.6c0.3-1.2,0.8-2.3,1.5-3.4
		c0.6-1,1.4-1.9,2.4-2.5c0.9-0.7,2-1,3.3-1c1.7,0,2.7,0.6,2.8,1.7c0,0.6-0.2,1.1-0.7,1.6c-0.5,0.5-1,1-1.7,1.5
		c-0.7,0.5-1.4,0.9-2.2,1.2c-0.8,0.4-1.5,0.6-2.2,0.8c-0.6,1.5-0.9,2.9-0.9,4.4c0.1,1.1,0.4,2,1.1,2.7c0.6,0.7,1.6,1.1,2.9,1.1
		c1.9,0,3.8-0.4,5.7-1.1c1.9-0.7,3.7-1.7,5.5-2.8c1.8-1.1,3.5-2.4,5.1-3.8C454.1,86.6,455.5,85.1,456.7,83.7z M438.9,82
		c-1,0-2,0.5-2.9,1.4c-0.9,0.9-1.7,2-2.3,3.2c1.1-0.4,2.3-1,3.6-1.8c1.3-0.8,1.9-1.6,1.9-2.3C439.2,82.1,439.1,82,438.9,82z"/>
	<linearGradient id="SVGID_11_" gradientUnits="userSpaceOnUse" x1="470.1989" y1="-15.3607" x2="459.5322" y2="215.3059">
		<stop  offset="6.666670e-02" style="stop-color:#FFF8B1"/>
		<stop  offset="0.1951" style="stop-color:#FCF5AE"/>
		<stop  offset="0.3015" style="stop-color:#F3EAA5"/>
		<stop  offset="0.4001" style="stop-color:#E5D996"/>
		<stop  offset="0.494" style="stop-color:#D0C180"/>
		<stop  offset="0.5845" style="stop-color:#B5A165"/>
		<stop  offset="0.6713" style="stop-color:#957C43"/>
		<stop  offset="0.736" style="stop-color:#785A26"/>
		<stop  offset="0.8764" style="stop-color:#996C25"/>
		<stop  offset="0.9063" style="stop-color:#9D7025"/>
		<stop  offset="0.936" style="stop-color:#A97B23"/>
		<stop  offset="0.9657" style="stop-color:#BD8F21"/>
		<stop  offset="0.9952" style="stop-color:#D9AA1E"/>
		<stop  offset="1" style="stop-color:#DEAF1D"/>
	</linearGradient>
	<path class="st10" d="M483.1,83.7c0.5,0,0.7,0.2,0.7,0.7l-1.1,1.1c-0.9,0.9-2,2-3.3,3.3c-1.3,1.3-2.6,2.4-4,3.5
		c-1.4,1.1-2.8,2-4.1,2.8c-1.4,0.8-2.7,1.2-3.8,1.2c-1.3,0-2.3-0.4-2.8-1.3c-0.5-0.9-0.9-1.8-1.1-2.8c-0.2-1-0.4-1.9-0.6-2.8
		c-0.2-0.9-0.7-1.3-1.4-1.3c-0.6,0-1.4,0.4-2.4,1.2c-1.1,0.8-2.2,1.7-3.3,2.8c-1.1,1.1-2.2,2.1-3.3,3.2c-1.1,1.1-1.9,2-2.5,2.6
		l-0.5,0.5c-0.2,0.6-0.7,0.8-1.3,0.8c-0.5,0-0.8-0.2-1.1-0.5c-0.3-0.3-0.4-0.7-0.4-1.1c0-0.2,0-0.4,0.1-0.6c0.5-1,1.1-2.3,1.9-3.9
		c0.8-1.6,1.7-3.1,2.6-4.6c0.9-1.5,1.9-2.8,2.8-3.9c0.9-1.1,1.8-1.7,2.6-1.7c0.9,0,1.4,0.3,1.4,0.9c0,0.4-0.2,0.8-0.5,1.2
		c-1.3,1.7-2.6,3.3-3.7,5.1c-1.1,1.7-2.2,3.5-3.1,5.4c0.9-0.9,1.8-2,2.9-3.1c1.1-1.1,2.2-2.1,3.3-3.1c1.1-0.9,2.2-1.7,3.2-2.4
		c1.1-0.6,1.9-0.9,2.7-0.9c1.2,0,1.9,0.5,2.3,1.4c0.4,0.9,0.6,2,0.8,3.1c0.2,1.1,0.4,2.2,0.6,3.1s0.8,1.4,1.7,1.4
		c0.8,0,1.9-0.5,3.4-1.5c1.5-1,2.9-2.1,4.4-3.5c1.5-1.3,2.8-2.6,4.1-3.9C481.6,85.3,482.5,84.4,483.1,83.7z"/>
	<linearGradient id="SVGID_12_" gradientUnits="userSpaceOnUse" x1="521.8229" y1="-12.9735" x2="511.1562" y2="217.6932">
		<stop  offset="6.666670e-02" style="stop-color:#FFF8B1"/>
		<stop  offset="0.1951" style="stop-color:#FCF5AE"/>
		<stop  offset="0.3015" style="stop-color:#F3EAA5"/>
		<stop  offset="0.4001" style="stop-color:#E5D996"/>
		<stop  offset="0.494" style="stop-color:#D0C180"/>
		<stop  offset="0.5845" style="stop-color:#B5A165"/>
		<stop  offset="0.6713" style="stop-color:#957C43"/>
		<stop  offset="0.736" style="stop-color:#785A26"/>
		<stop  offset="0.8764" style="stop-color:#996C25"/>
		<stop  offset="0.9063" style="stop-color:#9D7025"/>
		<stop  offset="0.936" style="stop-color:#A97B23"/>
		<stop  offset="0.9657" style="stop-color:#BD8F21"/>
		<stop  offset="0.9952" style="stop-color:#D9AA1E"/>
		<stop  offset="1" style="stop-color:#DEAF1D"/>
	</linearGradient>
	<path class="st11" d="M561.6,53.2c0.2-0.6,0.6-0.9,1.1-0.9c1,0,1.5,0.6,1.5,1.8c0,0.6-0.3,1.3-0.8,1.9c-2,2.1-4.4,3.6-7.4,4.3
		c-3,0.7-6.3,1.1-9.9,1.1c-4.5,0-8.8-0.5-13-1.4c-4.2-0.9-8.4-1.9-12.6-3.1c-5.9,4.9-11.9,9.5-18,13.9c-6.1,4.4-11.6,8.2-16.4,11.3
		c-1.6,2-3,3.9-4.3,5.7c-1.3,1.8-2.5,3.6-3.6,5.4c-1.8,2.9-3.2,5.6-4.3,8c-1.1,2.4-1.6,4.6-1.6,6.4c0,0.7,0.1,1.4,0.4,2.2
		c0.3,0.7,0.6,1.5,0.8,2.1c0.3,0.7,0.7,1.4,1.2,2.3c0,0.4-0.2,0.6-0.6,0.6c-0.2,0-0.2-0.1-0.2-0.2c-1.8-2-2.7-4.4-2.7-7.2
		c0-1.7,0.3-3.5,0.9-5.4c0.6-2,1.4-4.1,2.5-6.4c1.5-3.1,3.4-6.3,5.7-9.8c2.3-3.5,4.9-7.1,7.7-10.7c2.9-3.6,6-7.3,9.3-10.9
		c3.3-3.7,6.7-7.2,10.1-10.7c-2.7-0.6-5.3-1.1-8-1.5c-2.7-0.4-5.4-0.5-8.1-0.5c-3.8,0-7.1,0.5-10,1.5c-2.9,1-4.8,2.9-5.5,5.7
		c-0.2,0.7-0.6,1.1-1.2,1.1c-0.4,0-0.7-0.2-1-0.5c-0.3-0.3-0.4-0.7-0.4-1.3c0-0.7,0.3-1.4,0.8-2c1.7-1.8,3.9-3.2,6.6-4.1
		c2.7-0.9,5.6-1.4,8.8-1.4c3.3,0,6.5,0.2,9.6,0.6c3.1,0.4,6.2,0.9,9.1,1.7c4.2-4.1,8.2-7.8,12.1-11.2c3.9-3.4,7.5-6.3,10.8-8.7
		c3.3-2.4,6.3-4.3,8.9-5.7c2.6-1.3,4.7-2,6.3-2c0.6,0,1.2,0.1,1.7,0.4c0.5,0.3,0.7,0.8,0.7,1.6c0,1.3-0.8,3.1-2.4,5.2
		c-1.6,2.2-3.6,4.5-6.1,7.1c-2.5,2.6-5.4,5.3-8.7,8.2c-3.3,2.9-6.6,5.7-10,8.5c4.2,1.1,8.3,2.1,12.4,2.9c4.1,0.9,8.4,1.3,12.8,1.3
		c3.7,0,6.9-0.5,9.7-1.6C559,57.8,560.8,55.9,561.6,53.2z M487.8,79.8c4.6-3.1,9.6-6.6,15.2-10.7c5.5-4,11-8.2,16.4-12.6
		c-1.4-0.4-2.8-0.8-4.2-1.1c-1.4-0.4-2.8-0.7-4.2-1.1c-4.1,4.1-8.1,8.3-12.1,12.6C494.9,71.3,491.2,75.6,487.8,79.8z M543.9,26.8
		c-1.6,0.7-3.5,1.9-5.8,3.5c-2.3,1.7-4.9,3.7-7.7,6s-5.8,5-9,7.9c-3.2,2.9-6.4,6-9.7,9.3c1.5,0.4,2.9,0.8,4.4,1.2
		c1.4,0.4,2.8,0.8,4.2,1.2c3.3-2.7,6.6-5.4,9.8-8.3c3.3-2.9,6.2-5.6,8.8-8.2c2.6-2.6,4.7-5,6.3-7.1c1.6-2.1,2.4-3.8,2.4-5.1
		c0-0.9-0.4-1.3-1.2-1.3c-0.4,0-0.8,0.1-1.3,0.3C544.6,26.4,544.2,26.6,543.9,26.8z"/>
	<linearGradient id="SVGID_13_" gradientUnits="userSpaceOnUse" x1="519.2587" y1="-13.0921" x2="508.592" y2="217.5746">
		<stop  offset="6.666670e-02" style="stop-color:#FFF8B1"/>
		<stop  offset="0.1951" style="stop-color:#FCF5AE"/>
		<stop  offset="0.3015" style="stop-color:#F3EAA5"/>
		<stop  offset="0.4001" style="stop-color:#E5D996"/>
		<stop  offset="0.494" style="stop-color:#D0C180"/>
		<stop  offset="0.5845" style="stop-color:#B5A165"/>
		<stop  offset="0.6713" style="stop-color:#957C43"/>
		<stop  offset="0.736" style="stop-color:#785A26"/>
		<stop  offset="0.8764" style="stop-color:#996C25"/>
		<stop  offset="0.9063" style="stop-color:#9D7025"/>
		<stop  offset="0.936" style="stop-color:#A97B23"/>
		<stop  offset="0.9657" style="stop-color:#BD8F21"/>
		<stop  offset="0.9952" style="stop-color:#D9AA1E"/>
		<stop  offset="1" style="stop-color:#DEAF1D"/>
	</linearGradient>
	<path class="st12" d="M532,83.7c0.4,0,0.6,0.2,0.6,0.7c-1.2,1.3-2.6,2.7-4.3,4.4c-1.7,1.7-3.5,3.2-5.5,4.7c-2,1.5-4,2.7-6.1,3.7
		c-2.1,1-4,1.5-5.8,1.5c-1.1,0-2.1-0.3-3-0.9c-0.9-0.6-1.4-1.7-1.4-3.3c0-1.8,0.4-3.7,1.1-5.5c-1.6,1.4-3.2,2.7-4.8,3.9
		c-1.7,1.2-2.9,1.8-3.9,1.8c-0.5,0-1.1-0.1-1.6-0.4c-0.5-0.3-0.8-0.8-0.8-1.7c0-0.9,0.3-2,0.9-3.1c0.6-1.1,1.3-2.1,2.2-3.1
		c0.9-1,1.9-1.8,2.9-2.4c1-0.6,2-0.9,2.9-0.9c0.9,0,1.6,0.2,2.3,0.7c0.7,0.5,1.2,1,1.6,1.5c0.4-0.5,0.7-0.9,1.1-1.4
		c0.3-0.5,0.9-0.7,1.7-0.7c0.3,0,0.6,0.1,0.9,0.2c0.3,0.2,0.4,0.4,0.4,0.8c0,0.2-0.3,0.8-0.8,1.7c-0.5,0.9-1.1,1.9-1.7,3.1
		c-0.6,1.2-1.1,2.4-1.6,3.6c-0.5,1.2-0.7,2.3-0.7,3.2c0,0.8,0.2,1.3,0.7,1.6c0.5,0.3,1,0.4,1.5,0.4c1.7,0,3.5-0.5,5.5-1.5
		c2-1,4-2.3,6-3.7c2-1.5,3.8-3,5.5-4.6C529.5,86.3,530.9,84.9,532,83.7z M509,86c-0.2-0.2-0.6-0.6-1.1-1.1c-0.5-0.5-1-0.8-1.4-0.8
		c-0.5,0-1.2,0.4-2.1,1.1c-0.9,0.7-1.9,1.5-2.8,2.5s-1.8,1.9-2.5,2.9c-0.7,1-1.1,1.8-1.1,2.3c0,0.5,0.2,0.7,0.7,0.7s1.1-0.2,2-0.7
		s1.8-1.1,2.7-1.8c0.9-0.7,1.9-1.6,2.9-2.4C507.4,87.7,508.2,86.8,509,86z M513.5,71.3c0.2,0,0.4,0.1,0.5,0.3s0.3,0.4,0.3,0.8
		c0,0.1-0.1,0.3-0.2,0.6l-3.9,4.7c-0.1,0.1-0.2,0.1-0.3,0.1c-0.2,0-0.3-0.2-0.3-0.7l3.2-5.3C513.1,71.5,513.3,71.3,513.5,71.3z"/>
	<linearGradient id="SVGID_14_" gradientUnits="userSpaceOnUse" x1="545.9874" y1="-11.8561" x2="535.3207" y2="218.8106">
		<stop  offset="6.666670e-02" style="stop-color:#FFF8B1"/>
		<stop  offset="0.1951" style="stop-color:#FCF5AE"/>
		<stop  offset="0.3015" style="stop-color:#F3EAA5"/>
		<stop  offset="0.4001" style="stop-color:#E5D996"/>
		<stop  offset="0.494" style="stop-color:#D0C180"/>
		<stop  offset="0.5845" style="stop-color:#B5A165"/>
		<stop  offset="0.6713" style="stop-color:#957C43"/>
		<stop  offset="0.736" style="stop-color:#785A26"/>
		<stop  offset="0.8764" style="stop-color:#996C25"/>
		<stop  offset="0.9063" style="stop-color:#9D7025"/>
		<stop  offset="0.936" style="stop-color:#A97B23"/>
		<stop  offset="0.9657" style="stop-color:#BD8F21"/>
		<stop  offset="0.9952" style="stop-color:#D9AA1E"/>
		<stop  offset="1" style="stop-color:#DEAF1D"/>
	</linearGradient>
	<path class="st13" d="M554.3,83.7c0.2,0,0.3,0.1,0.4,0.2c0.1,0.2,0.2,0.3,0.2,0.5c-0.9,0.9-2.3,2.3-4.2,4.2c-1.9,1.8-4,3.7-6.3,5.4
		c-2.3,1.8-4.5,3.3-6.7,4.7c-2.2,1.3-4,2-5.3,2c-1.7,0-2.6-1-2.6-3.1c0-0.9,0.2-1.9,0.7-2.8s1-1.9,1.5-2.8c0.5-0.9,1.1-1.9,1.6-2.8
		c0.5-0.9,0.8-2,0.9-3.1v-0.5c0-0.5-0.1-1-0.2-1.5c-0.2-0.4-0.3-0.9-0.5-1.4c-0.6,1-1.4,2-2.3,2.9c-0.9,0.9-1.8,1.8-2.8,2.7
		c-0.1,0.1-0.2,0.1-0.4,0.1c-0.2,0-0.4-0.2-0.4-0.5c0-0.2,0.1-0.3,0.2-0.5c0.9-0.9,1.9-1.8,2.8-2.7c0.9-0.9,1.7-2,2.3-3.1
		c-0.3-0.6-0.6-1.3-0.8-2c-0.2-0.7-0.4-1.5-0.4-2.4v-0.5c0.1-1.1,0.3-1.9,0.8-2.5c0.4-0.6,0.9-0.9,1.5-0.9c0.4,0,0.8,0.2,1.1,0.7
		s0.5,1.3,0.5,2.4c-0.1,1.1-0.3,2.2-0.7,3.3l0.2,0.4l0.2,0.4c0.2,0.5,0.4,0.7,0.4,0.6c0.4,0.6,0.7,1.3,1,2.1
		c0.3,0.7,0.4,1.6,0.4,2.4v0.6c-0.1,1.4-0.4,2.7-1.1,4c-0.6,1.2-1.3,2.3-2,3.4c-0.7,1-1.4,2-1.9,2.9c-0.6,0.9-0.9,1.8-1,2.5
		c0,0.6,0.3,0.8,0.8,0.8c1.3,0,3-0.7,5.2-2.1c2.2-1.4,4.4-2.9,6.7-4.7c2.2-1.8,4.3-3.5,6.2-5.3S553.6,84.6,554.3,83.7z M533.7,75.4
		c0,0.6,0.1,1.2,0.3,1.7c0.2,0.5,0.5,1,0.8,1.6l0.4-2.2v-0.5c0-1.1-0.3-1.7-0.8-1.7C533.9,74.3,533.7,74.6,533.7,75.4z"/>
	<linearGradient id="SVGID_15_" gradientUnits="userSpaceOnUse" x1="564.9244" y1="-10.9804" x2="554.2577" y2="219.6863">
		<stop  offset="6.666670e-02" style="stop-color:#FFF8B1"/>
		<stop  offset="0.1951" style="stop-color:#FCF5AE"/>
		<stop  offset="0.3015" style="stop-color:#F3EAA5"/>
		<stop  offset="0.4001" style="stop-color:#E5D996"/>
		<stop  offset="0.494" style="stop-color:#D0C180"/>
		<stop  offset="0.5845" style="stop-color:#B5A165"/>
		<stop  offset="0.6713" style="stop-color:#957C43"/>
		<stop  offset="0.736" style="stop-color:#785A26"/>
		<stop  offset="0.8764" style="stop-color:#996C25"/>
		<stop  offset="0.9063" style="stop-color:#9D7025"/>
		<stop  offset="0.936" style="stop-color:#A97B23"/>
		<stop  offset="0.9657" style="stop-color:#BD8F21"/>
		<stop  offset="0.9952" style="stop-color:#D9AA1E"/>
		<stop  offset="1" style="stop-color:#DEAF1D"/>
	</linearGradient>
	<path class="st14" d="M573.3,83.7c0.2,0,0.3,0.1,0.5,0.2c0.2,0.1,0.2,0.3,0.2,0.5c-1.3,1.5-2.7,3-4.4,4.5c-1.7,1.5-3.5,2.9-5.5,4.1
		c-2,1.2-4,2.2-6.1,2.9c-2.1,0.7-4.2,1.1-6.2,1.1c-1.7,0-3-0.4-3.8-1.1c-0.8-0.7-1.2-1.8-1.2-3.1c0-0.8,0.2-1.8,0.7-2.9
		c0.5-1.2,1.1-2.3,1.8-3.3c0.7-1,1.5-1.9,2.3-2.7c0.8-0.7,1.6-1.1,2.2-1.1c0.4,0,0.7,0.1,1,0.2c0.3,0.2,0.4,0.4,0.4,0.8
		c0,0.3-0.3,0.8-0.9,1.6c-0.6,0.7-1.3,1.6-2.1,2.7c-0.7,1-1.5,2.1-2.1,3.1c-0.7,1.1-1,2.1-1,3c0,1.3,0.8,1.9,2.4,1.9
		c2,0,4-0.4,6-1.1c2-0.7,4-1.7,6-2.8c2-1.2,3.8-2.5,5.5-4C570.4,86.7,572,85.2,573.3,83.7z M558.3,79.4c-0.2-0.2-0.2-0.3-0.2-0.5
		c0-0.5,0.3-1,0.9-1.7c0.6-0.6,1.3-0.9,2.2-0.9c0.5,0,1,0.1,1.3,0.4c0.3,0.2,0.5,0.4,0.5,0.6c0,0.5-0.5,1-1.5,1.5
		c-1,0.5-1.8,0.8-2.5,0.8C558.6,79.5,558.4,79.4,558.3,79.4z"/>
	<linearGradient id="SVGID_16_" gradientUnits="userSpaceOnUse" x1="589.7442" y1="-9.8326" x2="579.0775" y2="220.834">
		<stop  offset="6.666670e-02" style="stop-color:#FFF8B1"/>
		<stop  offset="0.1951" style="stop-color:#FCF5AE"/>
		<stop  offset="0.3015" style="stop-color:#F3EAA5"/>
		<stop  offset="0.4001" style="stop-color:#E5D996"/>
		<stop  offset="0.494" style="stop-color:#D0C180"/>
		<stop  offset="0.5845" style="stop-color:#B5A165"/>
		<stop  offset="0.6713" style="stop-color:#957C43"/>
		<stop  offset="0.736" style="stop-color:#785A26"/>
		<stop  offset="0.8764" style="stop-color:#996C25"/>
		<stop  offset="0.9063" style="stop-color:#9D7025"/>
		<stop  offset="0.936" style="stop-color:#A97B23"/>
		<stop  offset="0.9657" style="stop-color:#BD8F21"/>
		<stop  offset="0.9952" style="stop-color:#D9AA1E"/>
		<stop  offset="1" style="stop-color:#DEAF1D"/>
	</linearGradient>
	<path class="st15" d="M602.7,83.7c0.4,0,0.6,0.2,0.6,0.7c-1.2,1.3-2.6,2.7-4.3,4.4c-1.7,1.7-3.5,3.2-5.5,4.7c-2,1.5-4,2.7-6.1,3.7
		c-2.1,1-4,1.5-5.8,1.5c-1.1,0-2.1-0.3-3-0.9c-0.9-0.6-1.4-1.7-1.4-3.3c0-1.8,0.4-3.7,1.1-5.5c-1.6,1.4-3.2,2.7-4.8,3.9
		c-1.7,1.2-2.9,1.8-3.9,1.8c-0.5,0-1.1-0.1-1.6-0.4c-0.5-0.3-0.8-0.8-0.8-1.7c0-0.9,0.3-2,0.9-3.1c0.6-1.1,1.3-2.1,2.2-3.1
		c0.9-1,1.9-1.8,2.9-2.4c1-0.6,2-0.9,2.9-0.9c0.9,0,1.6,0.2,2.3,0.7c0.7,0.5,1.2,1,1.6,1.5c0.4-0.5,0.7-0.9,1.1-1.4
		c0.3-0.5,0.9-0.7,1.7-0.7c0.3,0,0.6,0.1,0.9,0.2c0.3,0.2,0.4,0.4,0.4,0.8c0,0.2-0.3,0.8-0.8,1.7c-0.5,0.9-1.1,1.9-1.7,3.1
		c-0.6,1.2-1.1,2.4-1.6,3.6c-0.5,1.2-0.7,2.3-0.7,3.2c0,0.8,0.2,1.3,0.7,1.6c0.5,0.3,1,0.4,1.5,0.4c1.7,0,3.5-0.5,5.5-1.5
		c2-1,4-2.3,6-3.7c2-1.5,3.8-3,5.5-4.6C600.2,86.3,601.6,84.9,602.7,83.7z M579.7,86c-0.2-0.2-0.6-0.6-1.1-1.1
		c-0.5-0.5-1-0.8-1.4-0.8c-0.5,0-1.2,0.4-2.1,1.1c-0.9,0.7-1.9,1.5-2.8,2.5s-1.8,1.9-2.5,2.9c-0.7,1-1.1,1.8-1.1,2.3
		c0,0.5,0.2,0.7,0.7,0.7s1.1-0.2,2-0.7s1.8-1.1,2.7-1.8c0.9-0.7,1.9-1.6,2.9-2.4C578,87.7,578.9,86.8,579.7,86z"/>
	<linearGradient id="SVGID_17_" gradientUnits="userSpaceOnUse" x1="691.8716" y1="-5.11" x2="681.2049" y2="225.5567">
		<stop  offset="6.666670e-02" style="stop-color:#FFF8B1"/>
		<stop  offset="0.1951" style="stop-color:#FCF5AE"/>
		<stop  offset="0.3015" style="stop-color:#F3EAA5"/>
		<stop  offset="0.4001" style="stop-color:#E5D996"/>
		<stop  offset="0.494" style="stop-color:#D0C180"/>
		<stop  offset="0.5845" style="stop-color:#B5A165"/>
		<stop  offset="0.6713" style="stop-color:#957C43"/>
		<stop  offset="0.736" style="stop-color:#785A26"/>
		<stop  offset="0.8764" style="stop-color:#996C25"/>
		<stop  offset="0.9063" style="stop-color:#9D7025"/>
		<stop  offset="0.936" style="stop-color:#A97B23"/>
		<stop  offset="0.9657" style="stop-color:#BD8F21"/>
		<stop  offset="0.9952" style="stop-color:#D9AA1E"/>
		<stop  offset="1" style="stop-color:#DEAF1D"/>
	</linearGradient>
	<path class="st16" d="M694.3,67.5c-5.6-1.8-11.1-2.7-16.6-2.7c-7.5,0-14.8,1.7-21.8,5c-7,3.3-13.1,7.8-18.5,13.3
		c-5.4,5.5-9.7,11.9-12.9,18.9c-3.2,7.1-4.8,14.4-4.8,21.9c0,5,0.9,9.2,2.6,12.7c1.7,3.5,4.1,6.4,7,8.7c2.9,2.3,6.4,4,10.4,5
		c4,1.1,8.2,1.6,12.7,1.6c5.4,0,11.3-1.1,17.6-3.4c6.3-2.3,12.7-5.3,19.2-9.1c6.5-3.8,13-8.1,19.5-12.9c6.4-4.8,12.6-9.8,18.4-14.8
		c5.8-5,11.2-10,16.2-14.9c5-4.9,9.2-9.3,12.6-13.1c0.5,0,0.7,0.2,0.7,0.6c0,0.1-0.3,0.5-0.9,1.2c-0.6,0.7-1.2,1.3-1.7,1.8
		c-1.3,1.5-2.8,3-4.3,4.5c-1.5,1.5-3.2,3.2-4.9,4.9c-4.1,4-8.5,8.2-13.4,12.5c-4.8,4.3-9.9,8.6-15.2,12.7
		c-5.3,4.2-10.7,8.1-16.3,11.9c-5.5,3.7-11,7-16.5,9.8c-5.5,2.8-10.8,5.1-16.1,6.7c-5.3,1.7-10.2,2.5-14.9,2.5
		c-4.9,0-9.4-0.6-13.7-1.9c-4.2-1.3-8-3.2-11.1-5.8c-3.2-2.6-5.7-5.9-7.5-9.8c-1.8-4-2.8-8.7-2.8-14.1c0-5.1,0.7-10.1,2.2-14.9
		c1.5-4.8,3.6-9.3,6.3-13.6c2.7-4.3,5.8-8.2,9.5-11.7c3.7-3.5,7.6-6.6,12-9.2c4.3-2.6,8.9-4.6,13.7-6s9.7-2.1,14.7-2.1
		c2.8,0,5.6,0.2,8.4,0.6c2.8,0.4,5.5,0.9,8.3,1.7c-2.6-2-4.7-4.3-6.3-6.9c-1.6-2.6-2.4-5.6-2.4-9c0-3.2,0.7-6.3,2.1-9.3
		c1.4-2.9,3.2-5.7,5.5-8.3c2.3-2.6,4.9-4.9,7.8-6.9c2.9-2,6.1-3.8,9.3-5.2c3.3-1.5,6.5-2.6,9.8-3.4c3.3-0.8,6.4-1.2,9.3-1.2
		c3.1,0,6,0.5,8.8,1.4c2.8,0.9,5.3,2.3,7.4,4.1c2.2,1.8,3.9,3.9,5.1,6.5c1.3,2.6,1.9,5.5,1.9,8.8c0,3.2-0.6,6.3-1.9,9.2
		c-1.3,2.9-3.1,5.5-5.3,7.7c-2.2,2.2-4.8,4-7.7,5.4c-2.9,1.3-5.9,2-9.1,2c-0.7,0-1.5-0.1-2.4-0.2c-0.9-0.1-1.7-0.3-2.5-0.6
		c-0.8-0.3-1.5-0.7-2.1-1.2c-0.6-0.5-1.1-1.2-1.4-1.9c-0.1-0.1-0.1-0.2-0.1-0.4c0-0.4,0.2-0.6,0.6-0.6c0.2,0,0.2,0.1,0.2,0.2
		c0.2,0.8,0.6,1.4,1.2,1.9c0.6,0.5,1.3,0.9,2.1,1.2c0.8,0.3,1.6,0.5,2.4,0.5c0.8,0.1,1.6,0.1,2.3,0.1c3.1,0,6.1-0.7,8.8-2
		c2.8-1.3,5.2-3.1,7.3-5.4c2.1-2.2,3.7-4.8,5-7.7c1.2-2.9,1.8-5.8,1.8-8.9c0-2.9-0.6-5.5-1.7-7.8c-1.1-2.3-2.6-4.2-4.5-5.8
		c-1.9-1.6-4.1-2.8-6.6-3.5c-2.5-0.8-5.2-1.2-8-1.2c-3.1,0-6.3,0.4-9.6,1.3c-3.3,0.9-6.6,2.1-9.9,3.6c-3.3,1.5-6.4,3.4-9.4,5.5
		c-3,2.1-5.6,4.5-7.8,7c-2.2,2.6-4,5.3-5.4,8.1c-1.3,2.9-2,5.8-2,8.8c0,3.2,1,6,2.9,8.4c2,2.4,4.2,4.5,6.8,6.2c0,0.1,0,0.2-0.1,0.5
		C694.6,67.3,694.4,67.5,694.3,67.5z"/>
	<linearGradient id="SVGID_18_" gradientUnits="userSpaceOnUse" x1="762.6639" y1="-1.8363" x2="751.9973" y2="228.8303">
		<stop  offset="6.666670e-02" style="stop-color:#FFF8B1"/>
		<stop  offset="0.1951" style="stop-color:#FCF5AE"/>
		<stop  offset="0.3015" style="stop-color:#F3EAA5"/>
		<stop  offset="0.4001" style="stop-color:#E5D996"/>
		<stop  offset="0.494" style="stop-color:#D0C180"/>
		<stop  offset="0.5845" style="stop-color:#B5A165"/>
		<stop  offset="0.6713" style="stop-color:#957C43"/>
		<stop  offset="0.736" style="stop-color:#785A26"/>
		<stop  offset="0.8764" style="stop-color:#996C25"/>
		<stop  offset="0.9063" style="stop-color:#9D7025"/>
		<stop  offset="0.936" style="stop-color:#A97B23"/>
		<stop  offset="0.9657" style="stop-color:#BD8F21"/>
		<stop  offset="0.9952" style="stop-color:#D9AA1E"/>
		<stop  offset="1" style="stop-color:#DEAF1D"/>
	</linearGradient>
	<path class="st17" d="M776.2,83.7c0.5,0,0.8,0.1,0.8,0.4c0,0.1,0,0.1-0.1,0.2c0,0-0.1,0.1-0.1,0.2c-2.4,2.6-4.5,4.7-6.5,6.2
		c-2,1.5-3.9,2.8-5.8,3.7c-1.9,0.9-3.8,1.7-5.6,2.4c-1.8,0.6-3.8,1.3-6,2c-1.3,3.3-2.9,6.2-4.7,8.6c-1.8,2.4-3.8,3.7-6.1,3.7
		c-1.2,0-2-0.3-2.5-0.8c-0.5-0.6-0.7-1.2-0.7-1.9c0-1.3,0.3-2.4,0.9-3.3c0.6-0.9,1.4-1.8,2.4-2.5c0.9-0.7,2-1.3,3.2-1.8
		c1.2-0.5,2.3-1,3.4-1.5l0.9-0.4c0.9-2.4,1.8-4.8,2.7-7.4c0.8-2.6,1.7-5,2.5-7.1c0.8-2.2,1.7-4,2.5-5.4c0.9-1.4,1.8-2.1,2.7-2.1
		c0.3,0,0.5,0.2,0.5,0.7c-0.5,0.4-1,1.3-1.5,2.6c-0.5,1.3-1.1,2.9-1.7,4.8c-0.6,1.9-1.3,4-2,6.2c-0.7,2.2-1.5,4.4-2.2,6.5
		c2-0.7,3.9-1.4,5.7-2c1.8-0.6,3.6-1.4,5.4-2.4c1.8-0.9,3.6-2.2,5.5-3.7C772,88.1,774,86.2,776.2,83.7z M742,109.9
		c1.5,0,2.9-0.9,4.1-2.8c1.2-1.9,2.4-4.2,3.5-7.1c-0.8,0.4-1.7,0.8-2.8,1.2c-1.1,0.4-2.1,1-3.1,1.6c-1,0.6-1.8,1.4-2.5,2.3
		c-0.7,0.9-1.1,1.9-1.1,3.1c0,1,0.5,1.6,1.4,1.7H742z"/>
	<linearGradient id="SVGID_19_" gradientUnits="userSpaceOnUse" x1="768.3937" y1="-1.5714" x2="757.7271" y2="229.0953">
		<stop  offset="6.666670e-02" style="stop-color:#FFF8B1"/>
		<stop  offset="0.1951" style="stop-color:#FCF5AE"/>
		<stop  offset="0.3015" style="stop-color:#F3EAA5"/>
		<stop  offset="0.4001" style="stop-color:#E5D996"/>
		<stop  offset="0.494" style="stop-color:#D0C180"/>
		<stop  offset="0.5845" style="stop-color:#B5A165"/>
		<stop  offset="0.6713" style="stop-color:#957C43"/>
		<stop  offset="0.736" style="stop-color:#785A26"/>
		<stop  offset="0.8764" style="stop-color:#996C25"/>
		<stop  offset="0.9063" style="stop-color:#9D7025"/>
		<stop  offset="0.936" style="stop-color:#A97B23"/>
		<stop  offset="0.9657" style="stop-color:#BD8F21"/>
		<stop  offset="0.9952" style="stop-color:#D9AA1E"/>
		<stop  offset="1" style="stop-color:#DEAF1D"/>
	</linearGradient>
	<path class="st18" d="M803.7,83.7c0.5,0,0.7,0.2,0.7,0.6c-0.6,0.9-1.3,1.6-1.9,2.3c-0.7,0.7-1.4,1.3-2.2,1.9
		c-2.8,2.1-6.1,3.7-9.7,4.8c-2.4,0.7-5,1.2-7.7,1.4c-0.9,0.8-1.8,1.5-2.9,2.1s-2.1,0.9-3.2,0.9c-2.4,0-3.5-0.5-3.5-1.5
		c0-0.9,0.6-1.6,1.9-1.8c1.3-0.3,2.5-0.4,3.6-0.4c0.2,0,0.5,0,0.7,0.1c0.2,0,0.4,0.1,0.6,0.1h0.6c0.9-1,1.7-2.1,2.3-3.4
		c0.6-1.2,0.9-2.3,0.9-3.1c0-1.1-0.4-1.7-1.3-1.7c-0.6,0-1.4,0.3-2.4,0.8c-0.9,0.5-2,1.2-3.1,2c-1.1,0.8-2.2,1.7-3.3,2.7
		c-1.1,0.9-2.1,1.9-3.1,2.8l-15.9,21.9c-1.6,2.2-3.4,4.7-5.4,7.5c-2,2.8-4.1,5.7-6.3,8.6c-2.2,2.9-4.3,5.8-6.5,8.6
		c-2.2,2.8-4.2,5.3-6.1,7.5c-1.9,2.2-3.7,4-5.2,5.3c-1.5,1.3-2.7,2-3.6,2c-0.5,0-0.7-0.3-0.7-0.8c0-0.2,0.1-0.7,0.4-1.3
		c0.5-1.1,1.6-2.9,3.3-5.4c1.7-2.5,3.8-5.3,6.3-8.5c2.4-3.2,5.1-6.7,8-10.3c2.9-3.7,5.7-7.2,8.5-10.6c2.8-3.4,5.4-6.6,7.8-9.6
		c2.4-2.9,4.4-5.3,5.9-7c2.2-3.1,4.4-6.2,6.7-9.3c2.3-3.1,4.5-5.9,6.6-8.5c2.1-2.6,4-4.6,5.8-6.2c1.7-1.6,3.1-2.4,4.2-2.4
		c0.8,0,1.1,0.4,1.1,1.1c0,0.6-0.5,1.5-1.5,2.7c-1,1.1-2.8,2.4-5.3,3.7l-4.8,6.4c2-1.7,3.9-3.1,5.6-4c1.7-0.9,3.1-1.4,4.3-1.4
		c0.9,0,1.6,0.3,2,0.8c0.4,0.6,0.6,1.3,0.6,2.1c0,2.2-0.9,4.4-2.7,6.7c3.8-0.4,7.4-1.4,10.8-2.9C798.2,89.4,801.2,87,803.7,83.7z
		 M724.1,152.9c2.6-3,5.2-6.2,7.7-9.6c2.6-3.4,5.1-6.8,7.6-10.4c2.5-3.5,5-7.1,7.4-10.6c2.4-3.5,4.8-6.9,7.1-10.2
		c-2,2-4.1,4.4-6.4,7.3c-2.3,2.9-4.7,5.9-7.1,9.1c-2.4,3.2-4.7,6.3-7,9.4c-2.2,3.1-4.2,5.9-5.9,8.4c-1.7,2.5-3,4.5-4.1,6.1
		c-1,1.5-1.5,2.3-1.4,2.3c0.2,0,0.5-0.3,1-0.8C723.6,153.5,724,153.1,724.1,152.9z M775.4,96.8c1.4,0,2.8-0.6,4.2-1.8h-1.2
		c-0.6,0-1.4,0.1-2.5,0.2c-1.1,0.1-1.7,0.5-1.8,1C774.2,96.6,774.6,96.8,775.4,96.8z M783.9,77.6c-0.4,0.3-0.9,0.8-1.4,1.4
		c-0.6,0.6-1.1,1.2-1.8,1.9c0.5-0.3,1.3-0.8,2.3-1.5c1-0.7,1.5-1.4,1.5-2.3l-0.1,0.1c-0.1,0.1-0.2,0.1-0.2,0.2
		C784.1,77.5,784,77.5,783.9,77.6z"/>
	<linearGradient id="SVGID_20_" gradientUnits="userSpaceOnUse" x1="817.5837" y1="0.7033" x2="806.9171" y2="231.37">
		<stop  offset="6.666670e-02" style="stop-color:#FFF8B1"/>
		<stop  offset="0.1951" style="stop-color:#FCF5AE"/>
		<stop  offset="0.3015" style="stop-color:#F3EAA5"/>
		<stop  offset="0.4001" style="stop-color:#E5D996"/>
		<stop  offset="0.494" style="stop-color:#D0C180"/>
		<stop  offset="0.5845" style="stop-color:#B5A165"/>
		<stop  offset="0.6713" style="stop-color:#957C43"/>
		<stop  offset="0.736" style="stop-color:#785A26"/>
		<stop  offset="0.8764" style="stop-color:#996C25"/>
		<stop  offset="0.9063" style="stop-color:#9D7025"/>
		<stop  offset="0.936" style="stop-color:#A97B23"/>
		<stop  offset="0.9657" style="stop-color:#BD8F21"/>
		<stop  offset="0.9952" style="stop-color:#D9AA1E"/>
		<stop  offset="1" style="stop-color:#DEAF1D"/>
	</linearGradient>
	<path class="st19" d="M826.8,83.7c0.5,0,0.7,0.2,0.7,0.7c-1.3,1.5-2.9,3-4.5,4.5c-1.7,1.5-3.5,2.8-5.4,4c-1.9,1.2-3.9,2.1-6,2.9
		c-2.1,0.7-4.2,1.1-6.3,1.1c-1.9,0-3.3-0.5-4.1-1.6c-0.9-1.1-1.4-2.4-1.5-4c0-1.2,0.2-2.4,0.5-3.6c0.3-1.2,0.8-2.3,1.5-3.4
		c0.6-1,1.4-1.9,2.4-2.5c0.9-0.7,2-1,3.3-1c1.7,0,2.7,0.6,2.8,1.7c0,0.6-0.2,1.1-0.7,1.6c-0.5,0.5-1,1-1.7,1.5
		c-0.7,0.5-1.4,0.9-2.2,1.2c-0.8,0.4-1.5,0.6-2.2,0.8c-0.6,1.5-0.9,2.9-0.9,4.4c0.1,1.1,0.4,2,1.1,2.7c0.6,0.7,1.6,1.1,2.9,1.1
		c1.9,0,3.8-0.4,5.7-1.1c1.9-0.7,3.7-1.7,5.5-2.8c1.8-1.1,3.5-2.4,5.1-3.8C824.2,86.6,825.6,85.1,826.8,83.7z M809,82
		c-1,0-2,0.5-2.9,1.4c-0.9,0.9-1.7,2-2.3,3.2c1.1-0.4,2.3-1,3.6-1.8s1.9-1.6,1.9-2.3C809.4,82.1,809.3,82,809,82z"/>
	<linearGradient id="SVGID_21_" gradientUnits="userSpaceOnUse" x1="842.9891" y1="1.8781" x2="832.3224" y2="232.5448">
		<stop  offset="6.666670e-02" style="stop-color:#FFF8B1"/>
		<stop  offset="0.1951" style="stop-color:#FCF5AE"/>
		<stop  offset="0.3015" style="stop-color:#F3EAA5"/>
		<stop  offset="0.4001" style="stop-color:#E5D996"/>
		<stop  offset="0.494" style="stop-color:#D0C180"/>
		<stop  offset="0.5845" style="stop-color:#B5A165"/>
		<stop  offset="0.6713" style="stop-color:#957C43"/>
		<stop  offset="0.736" style="stop-color:#785A26"/>
		<stop  offset="0.8764" style="stop-color:#996C25"/>
		<stop  offset="0.9063" style="stop-color:#9D7025"/>
		<stop  offset="0.936" style="stop-color:#A97B23"/>
		<stop  offset="0.9657" style="stop-color:#BD8F21"/>
		<stop  offset="0.9952" style="stop-color:#D9AA1E"/>
		<stop  offset="1" style="stop-color:#DEAF1D"/>
	</linearGradient>
	<path class="st20" d="M856.7,83.7c0.4,0,0.6,0.2,0.6,0.7c-1.6,1.7-3.4,3.5-5.6,5.4c-2.2,2-4.5,3.8-7,5.5c-2.5,1.7-5.1,3.1-7.7,4.2
		c-2.6,1.1-5.1,1.7-7.5,1.7c-3,0-5.2-0.8-6.6-2.3c-1.4-1.5-2.1-3.4-2.1-5.5c0-1.4,0.3-2.8,0.9-4.3c0.6-1.5,1.4-2.8,2.4-3.9
		c1-1.1,2.2-2.1,3.5-2.8c1.3-0.7,2.7-1.1,4.1-1.1c0.9,0,1.7,0.3,2.4,0.9c0.7,0.6,1,1.4,1,2.3c0,0.7-0.1,1.2-0.4,1.5
		c-0.3,0.3-0.5,0.5-0.8,0.5s-0.4-0.1-0.4-0.4c0.4-0.5,0.6-1.1,0.6-1.7c0-0.5-0.1-0.9-0.4-1.3c-0.2-0.4-0.6-0.6-1.2-0.6
		c-1,0-2.1,0.4-3.1,1.2s-2,1.8-2.9,3c-0.9,1.2-1.6,2.5-2.2,3.8c-0.6,1.4-0.9,2.6-0.9,3.7c0,1.6,0.5,2.9,1.4,4.1s2.5,1.8,4.7,1.8
		c2.3,0,4.7-0.6,7.3-1.7c2.6-1.1,5.1-2.5,7.5-4.2c2.4-1.7,4.7-3.4,6.9-5.4C853.3,87,855.2,85.3,856.7,83.7z"/>
	<linearGradient id="SVGID_22_" gradientUnits="userSpaceOnUse" x1="867.3363" y1="3.004" x2="856.6696" y2="233.6707">
		<stop  offset="6.666670e-02" style="stop-color:#FFF8B1"/>
		<stop  offset="0.1951" style="stop-color:#FCF5AE"/>
		<stop  offset="0.3015" style="stop-color:#F3EAA5"/>
		<stop  offset="0.4001" style="stop-color:#E5D996"/>
		<stop  offset="0.494" style="stop-color:#D0C180"/>
		<stop  offset="0.5845" style="stop-color:#B5A165"/>
		<stop  offset="0.6713" style="stop-color:#957C43"/>
		<stop  offset="0.736" style="stop-color:#785A26"/>
		<stop  offset="0.8764" style="stop-color:#996C25"/>
		<stop  offset="0.9063" style="stop-color:#9D7025"/>
		<stop  offset="0.936" style="stop-color:#A97B23"/>
		<stop  offset="0.9657" style="stop-color:#BD8F21"/>
		<stop  offset="0.9952" style="stop-color:#D9AA1E"/>
		<stop  offset="1" style="stop-color:#DEAF1D"/>
	</linearGradient>
	<path class="st21" d="M876.4,83.7c0.2,0,0.3,0.1,0.5,0.2c0.2,0.1,0.2,0.3,0.2,0.5c-1.3,1.5-2.7,3-4.4,4.5c-1.7,1.5-3.5,2.9-5.5,4.1
		c-2,1.2-4,2.2-6.1,2.9c-2.1,0.7-4.2,1.1-6.2,1.1c-1.7,0-3-0.4-3.8-1.1c-0.8-0.7-1.2-1.8-1.2-3.1c0-0.8,0.2-1.8,0.7-2.9
		c0.5-1.2,1.1-2.3,1.8-3.3c0.7-1,1.5-1.9,2.3-2.7c0.8-0.7,1.6-1.1,2.2-1.1c0.4,0,0.7,0.1,1,0.2c0.3,0.2,0.4,0.4,0.4,0.8
		c0,0.3-0.3,0.8-0.9,1.6c-0.6,0.7-1.3,1.6-2.1,2.7c-0.7,1-1.5,2.1-2.1,3.1c-0.7,1.1-1,2.1-1,3c0,1.3,0.8,1.9,2.4,1.9
		c2,0,4-0.4,6-1.1c2-0.7,4-1.7,6-2.8c2-1.2,3.8-2.5,5.5-4C873.5,86.7,875,85.2,876.4,83.7z M861.4,79.4c-0.2-0.2-0.2-0.3-0.2-0.5
		c0-0.5,0.3-1,0.9-1.7c0.6-0.6,1.3-0.9,2.2-0.9c0.5,0,1,0.1,1.3,0.4c0.3,0.2,0.5,0.4,0.5,0.6c0,0.5-0.5,1-1.5,1.5
		c-1,0.5-1.8,0.8-2.5,0.8C861.6,79.5,861.5,79.4,861.4,79.4z"/>
	<linearGradient id="SVGID_23_" gradientUnits="userSpaceOnUse" x1="892.1561" y1="4.1517" x2="881.4894" y2="234.8184">
		<stop  offset="6.666670e-02" style="stop-color:#FFF8B1"/>
		<stop  offset="0.1951" style="stop-color:#FCF5AE"/>
		<stop  offset="0.3015" style="stop-color:#F3EAA5"/>
		<stop  offset="0.4001" style="stop-color:#E5D996"/>
		<stop  offset="0.494" style="stop-color:#D0C180"/>
		<stop  offset="0.5845" style="stop-color:#B5A165"/>
		<stop  offset="0.6713" style="stop-color:#957C43"/>
		<stop  offset="0.736" style="stop-color:#785A26"/>
		<stop  offset="0.8764" style="stop-color:#996C25"/>
		<stop  offset="0.9063" style="stop-color:#9D7025"/>
		<stop  offset="0.936" style="stop-color:#A97B23"/>
		<stop  offset="0.9657" style="stop-color:#BD8F21"/>
		<stop  offset="0.9952" style="stop-color:#D9AA1E"/>
		<stop  offset="1" style="stop-color:#DEAF1D"/>
	</linearGradient>
	<path class="st22" d="M905.7,83.7c0.4,0,0.6,0.2,0.6,0.7c-1.2,1.3-2.6,2.7-4.3,4.4c-1.7,1.7-3.5,3.2-5.5,4.7c-2,1.5-4,2.7-6.1,3.7
		c-2.1,1-4,1.5-5.8,1.5c-1.1,0-2.1-0.3-3-0.9c-0.9-0.6-1.4-1.7-1.4-3.3c0-1.8,0.4-3.7,1.1-5.5c-1.6,1.4-3.2,2.7-4.8,3.9
		c-1.7,1.2-2.9,1.8-3.9,1.8c-0.5,0-1.1-0.1-1.6-0.4c-0.5-0.3-0.8-0.8-0.8-1.7c0-0.9,0.3-2,0.9-3.1c0.6-1.1,1.3-2.1,2.2-3.1
		c0.9-1,1.9-1.8,2.9-2.4c1-0.6,2-0.9,2.9-0.9c0.9,0,1.6,0.2,2.3,0.7c0.7,0.5,1.2,1,1.6,1.5c0.4-0.5,0.7-0.9,1.1-1.4
		c0.3-0.5,0.9-0.7,1.7-0.7c0.3,0,0.6,0.1,0.9,0.2c0.3,0.2,0.4,0.4,0.4,0.8c0,0.2-0.3,0.8-0.8,1.7c-0.5,0.9-1.1,1.9-1.7,3.1
		c-0.6,1.2-1.1,2.4-1.6,3.6c-0.5,1.2-0.7,2.3-0.7,3.2c0,0.8,0.2,1.3,0.7,1.6c0.5,0.3,1,0.4,1.5,0.4c1.7,0,3.5-0.5,5.5-1.5
		c2-1,4-2.3,6-3.7c2-1.5,3.8-3,5.5-4.6C903.2,86.3,904.6,84.9,905.7,83.7z M882.7,86c-0.2-0.2-0.6-0.6-1.1-1.1
		c-0.5-0.5-1-0.8-1.4-0.8c-0.5,0-1.2,0.4-2.1,1.1c-0.9,0.7-1.9,1.5-2.8,2.5s-1.8,1.9-2.5,2.9c-0.7,1-1.1,1.8-1.1,2.3
		c0,0.5,0.2,0.7,0.7,0.7s1.1-0.2,2-0.7s1.8-1.1,2.7-1.8c0.9-0.7,1.9-1.6,2.9-2.4C881,87.7,881.9,86.8,882.7,86z"/>
	<linearGradient id="SVGID_24_" gradientUnits="userSpaceOnUse" x1="938.2422" y1="6.2829" x2="927.5755" y2="236.9495">
		<stop  offset="6.666670e-02" style="stop-color:#FFF8B1"/>
		<stop  offset="0.1951" style="stop-color:#FCF5AE"/>
		<stop  offset="0.3015" style="stop-color:#F3EAA5"/>
		<stop  offset="0.4001" style="stop-color:#E5D996"/>
		<stop  offset="0.494" style="stop-color:#D0C180"/>
		<stop  offset="0.5845" style="stop-color:#B5A165"/>
		<stop  offset="0.6713" style="stop-color:#957C43"/>
		<stop  offset="0.736" style="stop-color:#785A26"/>
		<stop  offset="0.8764" style="stop-color:#996C25"/>
		<stop  offset="0.9063" style="stop-color:#9D7025"/>
		<stop  offset="0.936" style="stop-color:#A97B23"/>
		<stop  offset="0.9657" style="stop-color:#BD8F21"/>
		<stop  offset="0.9952" style="stop-color:#D9AA1E"/>
		<stop  offset="1" style="stop-color:#DEAF1D"/>
	</linearGradient>
	<path class="st23" d="M969.4,25.1c1.3,0,2.4,0.3,3.5,0.9c1.1,0.6,1.6,1.6,1.6,3.1c0,1.6-0.8,3.5-2.5,5.7c-1.7,2.2-3.9,4.7-6.6,7.4
		c-2.8,2.7-5.9,5.5-9.5,8.4c-3.6,2.9-7.3,5.9-11.1,8.8c-3.9,2.9-7.7,5.7-11.6,8.4c-3.9,2.7-7.5,5.2-10.9,7.4c-3.4,2.2-6.4,4.2-9,5.8
		c-2.6,1.6-4.5,2.8-5.8,3.5c-3,4.2-5.4,8-7.3,11.3c-1.8,3.3-2.8,5.7-2.8,7.3c0,0.9,0.3,1.6,0.9,2.1c0.6,0.5,1.7,0.8,3.2,0.8
		c1.6,0,3.3-0.3,5.2-0.9c1.9-0.6,3.9-1.5,6-2.5c3.5-1.8,7.1-4,10.6-6.4c3.5-2.5,6.7-4.9,9.4-7.3c0.3-0.3,0.8-0.7,1.4-1.3
		c0.6-0.5,1.2-1.1,1.7-1.7c0.5-0.5,1.1-1,1.5-1.5c0.5-0.4,0.8-0.6,0.9-0.6c0.3,0,0.5,0.2,0.5,0.7c-1,1.2-2.4,2.5-4.2,4.1
		c-1.8,1.5-3.7,3.1-5.8,4.8c-2.1,1.7-4.4,3.3-6.8,4.9c-2.4,1.6-4.9,3.1-7.3,4.4c-2.4,1.3-4.7,2.3-7,3.1c-2.3,0.8-4.4,1.2-6.3,1.2
		c-2,0-3.3-0.4-4-1.2c-0.7-0.8-1-1.8-1-3c0-2,0.8-4.7,2.3-8.1c1.5-3.3,3.6-7,6.3-11c2.6-4,5.7-8.2,9.2-12.7
		c3.5-4.4,7.2-8.8,11.1-13.1c3.9-4.3,8-8.4,12.1-12.4c4.1-3.9,8.1-7.4,12-10.4c3.9-3,7.5-5.4,11-7.1C963.9,26,966.9,25.1,969.4,25.1
		z M948.5,55.4c3.3-2.6,6.5-5.2,9.5-7.7c3-2.6,5.7-5,8-7.3c2.3-2.3,4.1-4.4,5.5-6.4c1.3-2,2-3.6,2-5c0-1.1-0.4-1.9-1.2-2.4
		s-1.8-0.7-2.8-0.7c-2,0-4.4,0.8-7.4,2.5c-3,1.7-6.3,4-9.8,6.9c-3.5,2.9-7.3,6.3-11.1,10.1c-3.9,3.8-7.7,7.8-11.6,12
		c-3.8,4.2-7.5,8.4-11.1,12.7c-3.6,4.3-6.8,8.5-9.6,12.4c1.7-1,4.1-2.5,7-4.4s6.2-4,9.8-6.5c3.6-2.4,7.3-5.1,11.3-7.8
		C940.9,61.2,944.7,58.3,948.5,55.4z"/>
	<linearGradient id="SVGID_25_" gradientUnits="userSpaceOnUse" x1="948.2931" y1="6.7477" x2="937.6264" y2="237.4143">
		<stop  offset="6.666670e-02" style="stop-color:#FFF8B1"/>
		<stop  offset="0.1951" style="stop-color:#FCF5AE"/>
		<stop  offset="0.3015" style="stop-color:#F3EAA5"/>
		<stop  offset="0.4001" style="stop-color:#E5D996"/>
		<stop  offset="0.494" style="stop-color:#D0C180"/>
		<stop  offset="0.5845" style="stop-color:#B5A165"/>
		<stop  offset="0.6713" style="stop-color:#957C43"/>
		<stop  offset="0.736" style="stop-color:#785A26"/>
		<stop  offset="0.8764" style="stop-color:#996C25"/>
		<stop  offset="0.9063" style="stop-color:#9D7025"/>
		<stop  offset="0.936" style="stop-color:#A97B23"/>
		<stop  offset="0.9657" style="stop-color:#BD8F21"/>
		<stop  offset="0.9952" style="stop-color:#D9AA1E"/>
		<stop  offset="1" style="stop-color:#DEAF1D"/>
	</linearGradient>
	<path class="st24" d="M957.5,83.7c0.2,0,0.3,0.1,0.5,0.2c0.2,0.1,0.2,0.3,0.2,0.5c-1.3,1.5-2.7,3-4.4,4.5c-1.7,1.5-3.5,2.9-5.5,4.1
		c-2,1.2-4,2.2-6.1,2.9c-2.1,0.7-4.2,1.1-6.2,1.1c-1.7,0-3-0.4-3.8-1.1c-0.8-0.7-1.2-1.8-1.2-3.1c0-0.8,0.2-1.8,0.7-2.9
		c0.5-1.2,1.1-2.3,1.8-3.3c0.7-1,1.5-1.9,2.3-2.7c0.8-0.7,1.6-1.1,2.2-1.1c0.4,0,0.7,0.1,1,0.2c0.3,0.2,0.4,0.4,0.4,0.8
		c0,0.3-0.3,0.8-0.9,1.6c-0.6,0.7-1.3,1.6-2.1,2.7c-0.7,1-1.5,2.1-2.1,3.1c-0.7,1.1-1,2.1-1,3c0,1.3,0.8,1.9,2.4,1.9
		c2,0,4-0.4,6-1.1c2-0.7,4-1.7,6-2.8c2-1.2,3.8-2.5,5.5-4C954.6,86.7,956.1,85.2,957.5,83.7z M942.5,79.4c-0.2-0.2-0.2-0.3-0.2-0.5
		c0-0.5,0.3-1,0.9-1.7c0.6-0.6,1.3-0.9,2.2-0.9c0.5,0,1,0.1,1.3,0.4c0.3,0.2,0.5,0.4,0.5,0.6c0,0.5-0.5,1-1.5,1.5
		c-1,0.5-1.8,0.8-2.5,0.8C942.8,79.5,942.6,79.4,942.5,79.4z"/>
	<linearGradient id="SVGID_26_" gradientUnits="userSpaceOnUse" x1="947.5622" y1="6.7139" x2="936.8955" y2="237.3805">
		<stop  offset="6.666670e-02" style="stop-color:#FFF8B1"/>
		<stop  offset="0.1951" style="stop-color:#FCF5AE"/>
		<stop  offset="0.3015" style="stop-color:#F3EAA5"/>
		<stop  offset="0.4001" style="stop-color:#E5D996"/>
		<stop  offset="0.494" style="stop-color:#D0C180"/>
		<stop  offset="0.5845" style="stop-color:#B5A165"/>
		<stop  offset="0.6713" style="stop-color:#957C43"/>
		<stop  offset="0.736" style="stop-color:#785A26"/>
		<stop  offset="0.8764" style="stop-color:#996C25"/>
		<stop  offset="0.9063" style="stop-color:#9D7025"/>
		<stop  offset="0.936" style="stop-color:#A97B23"/>
		<stop  offset="0.9657" style="stop-color:#BD8F21"/>
		<stop  offset="0.9952" style="stop-color:#D9AA1E"/>
		<stop  offset="1" style="stop-color:#DEAF1D"/>
	</linearGradient>
	<path class="st25" d="M979.9,83.7c0.1,0,0.2,0.1,0.4,0.2c0.2,0.1,0.3,0.3,0.3,0.4c-2,2.8-5.1,5.3-9.1,7.8c-4,2.4-8.6,4.9-13.7,7.4
		c-1.4,3.1-3.7,6.7-6.9,10.6c-3.2,3.9-6.7,7.8-10.6,11.6c-3.9,3.8-7.9,7.3-11.9,10.6c-4,3.2-7.7,5.7-11,7.4c-1.1,0.6-2.4,1.2-4,1.7
		c-1.5,0.5-3,0.7-4.3,0.7c-1.2,0-2.2-0.3-2.9-0.9c-0.8-0.6-1.2-1.7-1.2-3.2c0-3.4,1.4-6.7,4.1-9.8c2.8-3.2,6.3-6.3,10.7-9.3
		c4.4-3,9.2-5.9,14.6-8.6c5.3-2.8,10.6-5.4,15.8-8l4.8-2.4c0.7-1.3,1.3-2.4,1.8-3.4c0.5-1,0.7-1.9,0.7-2.7c0-0.6-0.3-0.9-0.9-0.9
		h-0.7c-0.4,0-0.7-0.2-0.9-0.6c-0.2-0.4-0.3-0.8-0.3-1.2c0-0.6,0.2-1,0.5-1.1c1-0.3,2.1-0.8,3.2-1.4c1.1-0.6,2.2-1.2,3.1-1.9
		c0.9-0.7,1.7-1.4,2.3-2.1c0.6-0.7,0.9-1.3,0.9-1.8c0-0.2-0.2-0.2-0.5-0.2H963c-0.6,0-1.3,0-2-0.1c-0.7-0.1-1.4-0.3-2-0.6
		c0,0.9-0.4,1.8-1.1,2.7c-0.7,0.9-1.4,1.6-2,2.2c-0.4,0-0.6-0.2-0.6-0.7c0.5-0.4,1.1-1,1.8-1.9c0.7-0.9,1.1-1.7,1.1-2.4
		c0-0.1,0-0.2-0.1-0.2c0-0.1-0.1-0.2-0.1-0.2c0-0.2,0.1-0.3,0.2-0.4c0.2-0.1,0.3-0.2,0.5-0.2c0.2,0,0.3,0,0.4,0.1
		c0.5,0.4,1.2,0.6,1.9,0.7c0.7,0.1,1.4,0.1,2.1,0.1h0.9c1.4,0,2.1,0.6,2.1,1.8c0,0.6-0.2,1.3-0.6,2c-0.4,0.7-1,1.4-1.7,2.1
		c-0.7,0.7-1.5,1.4-2.4,2.1c-0.9,0.7-1.7,1.3-2.6,1.8c0.2,0.6,0.4,1.4,0.4,2.2c0,0.6-0.1,1.3-0.2,2.1c-0.1,0.7-0.4,1.6-0.8,2.4
		c4.9-2.4,9.2-4.8,13-7.2C975.1,88.7,978,86.2,979.9,83.7z M916.2,138.1c3-1.9,6.3-4.3,9.9-7.3c3.6-3,7.2-6.2,10.7-9.6
		c3.5-3.4,6.8-6.9,9.8-10.3c3-3.5,5.5-6.6,7.4-9.4c-3.8,1.9-7.6,3.8-11.6,5.7c-4,1.9-7.8,3.9-11.5,5.9c-3.7,2-7.2,4.1-10.4,6.3
		c-3.2,2.2-6,4.5-8.3,6.8c-2.3,2.4-3.9,4.6-5,6.6c-1,2-1.5,3.8-1.5,5.2c0,1.1,0.3,1.9,0.8,2.3c0.5,0.4,1.1,0.7,1.8,0.8
		c1.3,0,2.7-0.4,4.2-1.1C914.1,139.3,915.3,138.6,916.2,138.1z"/>
	<linearGradient id="SVGID_27_" gradientUnits="userSpaceOnUse" x1="995.3524" y1="8.9238" x2="984.6858" y2="239.5905">
		<stop  offset="6.666670e-02" style="stop-color:#FFF8B1"/>
		<stop  offset="0.1951" style="stop-color:#FCF5AE"/>
		<stop  offset="0.3015" style="stop-color:#F3EAA5"/>
		<stop  offset="0.4001" style="stop-color:#E5D996"/>
		<stop  offset="0.494" style="stop-color:#D0C180"/>
		<stop  offset="0.5845" style="stop-color:#B5A165"/>
		<stop  offset="0.6713" style="stop-color:#957C43"/>
		<stop  offset="0.736" style="stop-color:#785A26"/>
		<stop  offset="0.8764" style="stop-color:#996C25"/>
		<stop  offset="0.9063" style="stop-color:#9D7025"/>
		<stop  offset="0.936" style="stop-color:#A97B23"/>
		<stop  offset="0.9657" style="stop-color:#BD8F21"/>
		<stop  offset="0.9952" style="stop-color:#D9AA1E"/>
		<stop  offset="1" style="stop-color:#DEAF1D"/>
	</linearGradient>
	<path class="st26" d="M1009.1,83.7c0.4,0,0.6,0.2,0.6,0.7c-1.2,1.3-2.6,2.7-4.3,4.4c-1.7,1.7-3.5,3.2-5.5,4.7c-2,1.5-4,2.7-6.1,3.7
		c-2.1,1-4,1.5-5.8,1.5c-1.1,0-2.1-0.3-3-0.9c-0.9-0.6-1.4-1.7-1.4-3.3c0-1.8,0.4-3.7,1.1-5.5c-1.6,1.4-3.2,2.7-4.8,3.9
		c-1.7,1.2-2.9,1.8-3.9,1.8c-0.5,0-1.1-0.1-1.6-0.4c-0.5-0.3-0.8-0.8-0.8-1.7c0-0.9,0.3-2,0.9-3.1c0.6-1.1,1.3-2.1,2.2-3.1
		c0.9-1,1.9-1.8,2.9-2.4c1-0.6,2-0.9,2.9-0.9c0.9,0,1.6,0.2,2.3,0.7c0.7,0.5,1.2,1,1.6,1.5c0.4-0.5,0.7-0.9,1.1-1.4
		c0.3-0.5,0.9-0.7,1.7-0.7c0.3,0,0.6,0.1,0.9,0.2c0.3,0.2,0.4,0.4,0.4,0.8c0,0.2-0.3,0.8-0.8,1.7c-0.5,0.9-1.1,1.9-1.7,3.1
		c-0.6,1.2-1.1,2.4-1.6,3.6c-0.5,1.2-0.7,2.3-0.7,3.2c0,0.8,0.2,1.3,0.7,1.6c0.5,0.3,1,0.4,1.5,0.4c1.7,0,3.5-0.5,5.5-1.5
		c2-1,4-2.3,6-3.7c2-1.5,3.8-3,5.5-4.6C1006.6,86.3,1008,84.9,1009.1,83.7z M986.1,86c-0.2-0.2-0.6-0.6-1.1-1.1
		c-0.5-0.5-1-0.8-1.4-0.8c-0.5,0-1.2,0.4-2.1,1.1c-0.9,0.7-1.9,1.5-2.8,2.5s-1.8,1.9-2.5,2.9c-0.7,1-1.1,1.8-1.1,2.3
		c0,0.5,0.2,0.7,0.7,0.7s1.1-0.2,2-0.7s1.8-1.1,2.7-1.8c0.9-0.7,1.9-1.6,2.9-2.4C984.5,87.7,985.3,86.8,986.1,86z"/>
	<linearGradient id="SVGID_28_" gradientUnits="userSpaceOnUse" x1="1043.0656" y1="11.1302" x2="1032.3988" y2="241.7969">
		<stop  offset="6.666670e-02" style="stop-color:#FFF8B1"/>
		<stop  offset="0.1951" style="stop-color:#FCF5AE"/>
		<stop  offset="0.3015" style="stop-color:#F3EAA5"/>
		<stop  offset="0.4001" style="stop-color:#E5D996"/>
		<stop  offset="0.494" style="stop-color:#D0C180"/>
		<stop  offset="0.5845" style="stop-color:#B5A165"/>
		<stop  offset="0.6713" style="stop-color:#957C43"/>
		<stop  offset="0.736" style="stop-color:#785A26"/>
		<stop  offset="0.8764" style="stop-color:#996C25"/>
		<stop  offset="0.9063" style="stop-color:#9D7025"/>
		<stop  offset="0.936" style="stop-color:#A97B23"/>
		<stop  offset="0.9657" style="stop-color:#BD8F21"/>
		<stop  offset="0.9952" style="stop-color:#D9AA1E"/>
		<stop  offset="1" style="stop-color:#DEAF1D"/>
	</linearGradient>
	<path class="st27" d="M1076.8,32.4c1.6,0.2,2.4,1.1,2.4,2.7c0,1.4-0.9,3.4-2.7,5.8c-1.8,2.5-4.2,5.3-7.2,8.4
		c-3,3.1-6.5,6.4-10.4,9.8c-4,3.5-8.1,6.9-12.4,10.4c-4.3,3.5-8.6,6.8-13,9.9c-4.4,3.1-8.5,5.9-12.4,8.4c-2.8,3.8-5.1,7.1-6.7,10
		c-1.7,2.9-2.5,5.2-2.5,6.7c0,1.6,0.9,2.4,2.8,2.4c2.3,0,5.1-0.8,8.4-2.5c3.3-1.7,6.8-3.7,10.3-6.1c2.3-1.6,4.5-3.2,6.7-4.9
		c2.2-1.7,4.1-3.3,5.8-4.9c1.1-1,2.2-2.1,3.2-3.2c1-1.1,1.6-1.7,1.8-1.7c0.4,0,0.6,0.2,0.6,0.6c-1,1.2-2.4,2.6-4.1,4.2
		c-1.7,1.6-3.7,3.3-5.9,5.1c-2.2,1.8-4.5,3.5-7,5.2c-2.4,1.7-4.9,3.2-7.3,4.6c-2.4,1.4-4.7,2.5-6.9,3.3c-2.2,0.8-4.1,1.2-5.7,1.2
		c-1.6,0-2.7-0.4-3.4-1.1c-0.7-0.7-1.1-1.7-1.1-2.8c0-1.4,0.5-3.3,1.5-5.5c1-2.3,2.3-4.8,4.1-7.4c-2.8,1.3-5,2.4-6.7,3.2
		s-3.3,1.2-4.6,1.2c-0.6,0-1.2-0.2-1.7-0.5c-0.5-0.3-0.7-0.9-0.7-1.9c0-1.2,0.3-2.4,0.9-3.7c0.6-1.3,1.4-2.4,2.3-3.5
		c0.9-1.1,2-1.9,3.2-2.6c1.2-0.7,2.4-1,3.6-1c1.6,0,2.9,0.5,4,1.4c1.1,0.9,1.7,2.2,1.9,3.8c2.5-3.8,5.5-7.8,8.9-12
		c3.4-4.2,7-8.4,10.8-12.4c3.8-4.1,7.7-8,11.6-11.7c3.9-3.7,7.6-7,11.1-9.8c3.5-2.8,6.7-5,9.6-6.7
		C1072.8,33.3,1075.1,32.4,1076.8,32.4z M1012.1,92c0.4-0.2,0.9-0.5,1.4-0.7c0.5-0.2,1.1-0.5,1.7-0.8c0.5-0.3,1-0.7,1.4-1.1
		c0.4-0.4,0.5-0.9,0.5-1.4c0-0.9-0.2-1.7-0.7-2.6c-0.5-0.9-1.2-1.3-2.2-1.3c-0.9,0-1.9,0.4-3.1,1.2c-1.2,0.8-2.4,1.7-3.5,2.8
		s-2,2.1-2.8,3.2c-0.8,1.1-1.2,2-1.2,2.7c0,0.5,0.4,0.7,1.1,0.7c0.9,0,1.9-0.2,3.1-0.7S1010.3,92.8,1012.1,92z M1054.9,61.4
		c3.3-2.8,6.4-5.6,9.2-8.3c2.8-2.7,5.3-5.1,7.4-7.4c2.1-2.3,3.8-4.3,5-6.2c1.2-1.8,1.8-3.4,1.8-4.5c0-1.1-0.5-1.7-1.4-1.7
		c-1.2,0-2.9,0.8-5.2,2.4c-2.3,1.6-5,3.7-8.1,6.3c-3.1,2.6-6.4,5.7-10,9.2c-3.6,3.5-7.2,7.2-10.8,11.1s-7.2,7.8-10.7,11.9
		c-3.5,4-6.6,7.9-9.4,11.6c5-3.2,10.3-7,16-11.2C1044.3,70.3,1049.7,65.9,1054.9,61.4z"/>
	<linearGradient id="SVGID_29_" gradientUnits="userSpaceOnUse" x1="1065.4838" y1="12.1669" x2="1054.817" y2="242.8335">
		<stop  offset="6.666670e-02" style="stop-color:#FFF8B1"/>
		<stop  offset="0.1951" style="stop-color:#FCF5AE"/>
		<stop  offset="0.3015" style="stop-color:#F3EAA5"/>
		<stop  offset="0.4001" style="stop-color:#E5D996"/>
		<stop  offset="0.494" style="stop-color:#D0C180"/>
		<stop  offset="0.5845" style="stop-color:#B5A165"/>
		<stop  offset="0.6713" style="stop-color:#957C43"/>
		<stop  offset="0.736" style="stop-color:#785A26"/>
		<stop  offset="0.8764" style="stop-color:#996C25"/>
		<stop  offset="0.9063" style="stop-color:#9D7025"/>
		<stop  offset="0.936" style="stop-color:#A97B23"/>
		<stop  offset="0.9657" style="stop-color:#BD8F21"/>
		<stop  offset="0.9952" style="stop-color:#D9AA1E"/>
		<stop  offset="1" style="stop-color:#DEAF1D"/>
	</linearGradient>
	<path class="st28" d="M1079.4,83.7c0.4,0,0.6,0.2,0.6,0.7c-1.2,1.3-2.6,2.7-4.3,4.4c-1.7,1.7-3.5,3.2-5.5,4.7c-2,1.5-4,2.7-6.1,3.7
		c-2.1,1-4,1.5-5.8,1.5c-1.1,0-2.1-0.3-3-0.9c-0.9-0.6-1.4-1.7-1.4-3.3c0-1.8,0.4-3.7,1.1-5.5c-1.6,1.4-3.2,2.7-4.8,3.9
		c-1.7,1.2-2.9,1.8-3.9,1.8c-0.5,0-1.1-0.1-1.6-0.4c-0.5-0.3-0.8-0.8-0.8-1.7c0-0.9,0.3-2,0.9-3.1c0.6-1.1,1.3-2.1,2.2-3.1
		c0.9-1,1.9-1.8,2.9-2.4c1-0.6,2-0.9,2.9-0.9c0.9,0,1.6,0.2,2.3,0.7c0.7,0.5,1.2,1,1.6,1.5c0.4-0.5,0.7-0.9,1.1-1.4
		c0.3-0.5,0.9-0.7,1.7-0.7c0.3,0,0.6,0.1,0.9,0.2c0.3,0.2,0.4,0.4,0.4,0.8c0,0.2-0.3,0.8-0.8,1.7c-0.5,0.9-1.1,1.9-1.7,3.1
		c-0.6,1.2-1.1,2.4-1.6,3.6c-0.5,1.2-0.7,2.3-0.7,3.2c0,0.8,0.2,1.3,0.7,1.6c0.5,0.3,1,0.4,1.5,0.4c1.7,0,3.5-0.5,5.5-1.5
		c2-1,4-2.3,6-3.7c2-1.5,3.8-3,5.5-4.6C1076.9,86.3,1078.3,84.9,1079.4,83.7z M1056.4,86c-0.2-0.2-0.6-0.6-1.1-1.1
		c-0.5-0.5-1-0.8-1.4-0.8c-0.5,0-1.2,0.4-2.1,1.1c-0.9,0.7-1.9,1.5-2.8,2.5s-1.8,1.9-2.5,2.9c-0.7,1-1.1,1.8-1.1,2.3
		c0,0.5,0.2,0.7,0.7,0.7s1.1-0.2,2-0.7s1.8-1.1,2.7-1.8c0.9-0.7,1.9-1.6,2.9-2.4C1054.7,87.7,1055.6,86.8,1056.4,86z"/>
</g>
</svg>
