<?xml version="1.0" encoding="utf-8"?>
<!-- Generator: Adobe Illustrator 16.0.3, SVG Export Plug-In . SVG Version: 6.00 Build 0)  -->
<!DOCTYPE svg PUBLIC "-//W3C//DTD SVG 1.1//EN" "http://www.w3.org/Graphics/SVG/1.1/DTD/svg11.dtd">
<svg version="1.1" id="Camada_1" xmlns="http://www.w3.org/2000/svg" xmlns:xlink="http://www.w3.org/1999/xlink" x="0px" y="0px"
	 width="162px" height="166px" viewBox="0 0 162 166" enable-background="new 0 0 162 166" xml:space="preserve">
<g>
	<polygon fill="#FFFFFF" stroke="#B1B3B4" stroke-width="4" stroke-miterlimit="10" points="134.88,135.523 81.145,158.137 
		27.158,136.131 4.544,82.395 26.549,28.408 80.285,5.793 134.272,27.798 156.886,81.535 	"/>
	<path fill="#ECEDED" d="M34.041,80.383c0,0-8.886,18.658,0,22.992s33.584,7.48,61.401,3.074
		c27.817-4.408,42.15-6.863,40.817-20.635c-1.333-13.773-4.789-14.934-4.789-14.934S85.155,105.393,34.041,80.383z"/>
	<g>
		<path fill="#480E3F" d="M50.747,68.452c-2.018,0-4.411,1.689-5.913,1.689c-1.502,0-4.833-1.736-6.335-1.689
			s-4.458,1.783-4.458,6.429c0,4.646,3.285,9.292,3.285,9.292s12.999,0,14.218,0c1.22,0,3.801-5.397,3.801-9.432
			C55.346,70.704,52.765,68.452,50.747,68.452z"/>
		<polygon fill="#480E3F" points="51.216,85.814 38.358,85.814 38.358,88.066 36.27,88.066 36.27,89.615 53.469,89.615 
			53.469,88.066 51.216,88.066 		"/>
		<polygon fill="#480E3F" points="50.378,90.695 39.2,90.695 39.2,92.654 37.385,92.654 37.385,94 52.337,94 52.337,92.654 
			50.378,92.654 		"/>
		<polygon fill="#480E3F" points="49.265,95.168 40.004,95.168 40.004,96.791 38.5,96.791 38.5,97.906 50.887,97.906 50.887,96.791 
			49.265,96.791 		"/>
		<polygon fill="#480E3F" points="48.083,98.986 41.573,98.986 41.573,100.127 40.516,100.127 40.516,100.91 49.223,100.91 
			49.223,100.127 48.083,100.127 		"/>
		<path fill="#480E3F" d="M75.823,68.452c-2.017,0-4.411,1.689-5.912,1.689c-1.503,0-4.833-1.736-6.336-1.689
			c-1.501,0.047-4.458,1.783-4.458,6.429c0,4.646,3.285,9.292,3.285,9.292s12.999,0,14.219,0s3.801-5.397,3.801-9.432
			C80.422,70.704,77.841,68.452,75.823,68.452z"/>
		<polygon fill="#480E3F" points="76.293,85.814 63.435,85.814 63.435,88.066 61.347,88.066 61.347,89.615 78.545,89.615 
			78.545,88.066 76.293,88.066 		"/>
		<polygon fill="#480E3F" points="75.455,90.695 64.277,90.695 64.277,92.654 62.461,92.654 62.461,94 77.413,94 77.413,92.654 
			75.455,92.654 		"/>
		<polygon fill="#480E3F" points="74.342,95.168 65.081,95.168 65.081,96.791 63.577,96.791 63.577,97.906 75.963,97.906 
			75.963,96.791 74.342,96.791 		"/>
		<polygon fill="#480E3F" points="73.159,98.986 66.649,98.986 66.649,100.127 65.592,100.127 65.592,100.91 74.3,100.91 
			74.3,100.127 73.159,100.127 		"/>
		<path fill="#480E3F" d="M101.496,68.452c-2.017,0-4.411,1.689-5.912,1.689c-1.503,0-4.833-1.736-6.336-1.689
			c-1.501,0.047-4.458,1.783-4.458,6.429c0,4.646,3.285,9.292,3.285,9.292s13,0,14.219,0c1.22,0,3.801-5.397,3.801-9.432
			C106.095,70.704,103.514,68.452,101.496,68.452z"/>
		<polygon fill="#480E3F" points="101.966,85.814 89.108,85.814 89.108,88.066 87.02,88.066 87.02,89.615 104.218,89.615 
			104.218,88.066 101.966,88.066 		"/>
		<polygon fill="#480E3F" points="101.128,90.695 89.95,90.695 89.95,92.654 88.134,92.654 88.134,94 103.086,94 103.086,92.654 
			101.128,92.654 		"/>
		<polygon fill="#480E3F" points="100.015,95.168 90.754,95.168 90.754,96.791 89.25,96.791 89.25,97.906 101.636,97.906 
			101.636,96.791 100.015,96.791 		"/>
		<polygon fill="#480E3F" points="98.832,98.986 92.322,98.986 92.322,100.127 91.266,100.127 91.266,100.91 99.973,100.91 
			99.973,100.127 98.832,100.127 		"/>
		<path fill="#480E3F" d="M127.67,78.741c1.22,0,3.801-5.396,3.801-9.432c0-4.037-2.581-6.289-4.599-6.289
			c-2.017,0-4.412,1.69-5.912,1.69c-1.503,0-4.833-1.737-6.336-1.69c-1.502,0.048-4.458,1.783-4.458,6.43
			c0,4.646,3.285,9.291,3.285,9.291S126.45,78.741,127.67,78.741z"/>
		<polygon fill="#480E3F" points="127.342,80.383 114.484,80.383 114.484,82.636 112.396,82.636 112.396,84.186 129.594,84.186 
			129.594,82.636 127.342,82.636 		"/>
		<polygon fill="#480E3F" points="126.504,85.264 115.325,85.264 115.325,87.223 113.51,87.223 113.51,88.568 128.462,88.568 
			128.462,87.223 126.504,87.223 		"/>
		<polygon fill="#480E3F" points="125.391,89.738 116.129,89.738 116.129,91.359 114.626,91.359 114.626,92.475 127.012,92.475 
			127.012,91.359 125.391,91.359 		"/>
		<polygon fill="#480E3F" points="124.208,93.555 117.698,93.555 117.698,94.695 116.641,94.695 116.641,95.479 125.349,95.479 
			125.349,94.695 124.208,94.695 		"/>
	</g>
</g>
</svg>
