<?xml version="1.0" encoding="utf-8"?>
<!-- Generator: Adobe Illustrator 16.0.3, SVG Export Plug-In . SVG Version: 6.00 Build 0)  -->
<!DOCTYPE svg PUBLIC "-//W3C//DTD SVG 1.1//EN" "http://www.w3.org/Graphics/SVG/1.1/DTD/svg11.dtd">
<svg version="1.1" id="Camada_1" xmlns="http://www.w3.org/2000/svg" xmlns:xlink="http://www.w3.org/1999/xlink" x="0px" y="0px"
	 width="162px" height="166px" viewBox="0 0 162 166" enable-background="new 0 0 162 166" xml:space="preserve">
<g id="Camada_3">
	<g>
		<polygon fill="#FFFFFF" stroke="#B1B3B4" stroke-width="4" stroke-miterlimit="10" points="135.287,135.876 81.551,158.49 
			27.565,136.484 4.951,82.749 26.956,28.762 80.692,6.147 134.68,28.153 157.292,81.889 		"/>
		<g>
			<path fill="#480E3F" d="M99.372,80.965c3.25,0,10.125-14.375,10.125-25.125s-6.875-16.752-12.25-16.752s-11.75,4.502-15.75,4.502
				s-12.875-4.625-16.875-4.5s-11.875,4.75-11.875,17.125s8.75,24.75,8.75,24.75S96.122,80.965,99.372,80.965z"/>
			<polygon fill="#480E3F" points="98.497,85.34 64.247,85.34 64.247,91.34 58.684,91.34 58.684,95.465 104.497,95.465 
				104.497,91.34 98.497,91.34 			"/>
			<polygon fill="#480E3F" points="96.266,98.34 66.489,98.34 66.489,103.557 61.653,103.557 61.653,107.143 101.482,107.143 
				101.482,103.557 96.266,103.557 			"/>
			<polygon fill="#480E3F" points="93.297,110.257 68.63,110.257 68.63,114.578 64.625,114.578 64.625,117.549 97.619,117.549 
				97.619,114.578 93.297,114.578 			"/>
			<polygon fill="#480E3F" points="90.148,120.423 72.81,120.423 72.81,123.461 69.995,123.461 69.995,125.549 93.186,125.549 
				93.186,123.461 90.148,123.461 			"/>
		</g>
	</g>
</g>
</svg>
