<?xml version="1.0" encoding="utf-8"?>
<!-- Generator: Adobe Illustrator 16.0.3, SVG Export Plug-In . SVG Version: 6.00 Build 0)  -->
<!DOCTYPE svg PUBLIC "-//W3C//DTD SVG 1.1//EN" "http://www.w3.org/Graphics/SVG/1.1/DTD/svg11.dtd">
<svg version="1.1" id="Camada_5" xmlns="http://www.w3.org/2000/svg" xmlns:xlink="http://www.w3.org/1999/xlink" x="0px" y="0px"
	 width="162px" height="166px" viewBox="0 0 162 166" enable-background="new 0 0 162 166" xml:space="preserve">
<g>
	<polygon fill="#FFFFFF" stroke="#B1B3B4" stroke-width="4" stroke-miterlimit="10" points="135.756,135.877 82.021,158.49 
		28.034,136.484 5.419,82.748 27.424,28.761 81.161,6.146 135.148,28.151 157.762,81.888 	"/>
	<path fill="#480E3F" d="M95.748,37.359c-6.334,0-13.331,3.827-13.331,3.827c-3.625,1.798-8.667-3.702-17-3.702
		s-18.5,6.125-10.386,29.583c3.833,18.833,1.833,35.334,1.833,43.167c0,7.834,12.5,17.168,12.5,17.168
		c0-22.668,0.667-39.834,13-39.834s11.667,39.834,11.667,39.834c14.333-12.502,11.167-22.5,9.5-38.834
		c-1.667-16.334,4-22.334,6-34.334S102.082,37.359,95.748,37.359z M92.548,66.233h-7.042v7.041h-7.958v-7h-6.917v-8.041h6.792
		v-5.959h0.125h8.125v6h6.875V66.233z"/>
</g>
</svg>
