<?xml version="1.0" encoding="utf-8"?>
<!-- Generator: Adobe Illustrator 16.0.3, SVG Export Plug-In . SVG Version: 6.00 Build 0)  -->
<!DOCTYPE svg PUBLIC "-//W3C//DTD SVG 1.1//EN" "http://www.w3.org/Graphics/SVG/1.1/DTD/svg11.dtd">
<svg version="1.1" id="Camada_1" xmlns="http://www.w3.org/2000/svg" xmlns:xlink="http://www.w3.org/1999/xlink" x="0px" y="0px"
	 width="162px" height="166px" viewBox="0 0 162 166" enable-background="new 0 0 162 166" xml:space="preserve">
<g id="Camada_2">
	<g>
		<polygon fill="#FFFFFF" stroke="#B1B3B4" stroke-width="4" stroke-miterlimit="10" points="135.755,135.893 82.02,158.505 
			28.034,136.499 5.419,82.764 27.425,28.776 81.161,6.162 135.148,28.167 157.762,81.903 		"/>
		<g>
			<polygon fill="#480E3F" points="65.525,39.896 42.239,58.786 56.734,76.479 56.734,93.729 53.192,102.563 53.192,126.146 
				67.109,126.146 67.109,102.313 63.942,93.813 63.942,76.229 45.859,58.812 67.609,42.062 			"/>
			<path fill="#480E3F" d="M120.941,59.958c0-11.84-9.598-21.438-21.438-21.438s-21.438,9.598-21.438,21.438
				c0,11.058,8.374,20.154,19.125,21.309v12.379l-4,8.5v24h13v-24l-4.125-8.5V81.229C112.695,79.96,120.941,70.929,120.941,59.958z
				 M99.504,78.458c-10.217,0-18.5-8.283-18.5-18.5c0-10.217,8.283-18.5,18.5-18.5s18.5,8.283,18.5,18.5
				S109.721,78.458,99.504,78.458z"/>
		</g>
	</g>
</g>
</svg>
