<?xml version="1.0" encoding="utf-8"?>
<!-- Generator: Adobe Illustrator 16.0.3, SVG Export Plug-In . SVG Version: 6.00 Build 0)  -->
<!DOCTYPE svg PUBLIC "-//W3C//DTD SVG 1.1//EN" "http://www.w3.org/Graphics/SVG/1.1/DTD/svg11.dtd">
<svg version="1.1" id="Camada_1" xmlns="http://www.w3.org/2000/svg" xmlns:xlink="http://www.w3.org/1999/xlink" x="0px" y="0px"
	 width="162px" height="166px" viewBox="0 0 162 166" enable-background="new 0 0 162 166" xml:space="preserve">
<g>
	<polygon fill="#FFFFFF" stroke="#B1B3B4" stroke-width="4" stroke-miterlimit="10" points="135.166,135.524 81.43,158.138 
		27.443,136.132 4.829,82.396 26.834,28.408 80.57,5.793 134.559,27.798 157.172,81.534 	"/>
	<path fill="#480E3F" d="M95.157,37.006c-6.334,0-13.331,3.827-13.331,3.827c-3.625,1.798-8.667-3.702-17-3.702
		s-18.5,6.125-10.386,29.583c3.833,18.833,1.833,35.334,1.833,43.167c0,7.834,12.5,17.168,12.5,17.168
		c0-22.669,0.666-39.835,13-39.835c12.332,0,11.666,39.835,11.666,39.835c14.334-12.502,11.168-22.501,9.5-38.835
		c-1.666-16.335,4-22.334,6-34.334S101.491,37.006,95.157,37.006z M63.91,42.712c0,4.168,4.625,4.856,4.625,4.856
		c-4.594,0-5.032,5.25-5.032,3.25c-0.281-3.406-2.958-3.181-3.438-3.375C63.597,46.818,63.91,42.712,63.91,42.712z M62.252,57.817
		c-0.179-2.167-1.881-2.023-2.187-2.146c2.246-0.397,2.444-3.009,2.444-3.009c0,2.651,2.942,3.088,2.942,3.088
		C62.531,55.75,62.252,59.089,62.252,57.817z M70.169,55.817c-0.179-2.167-1.881-2.023-2.187-2.146
		c2.246-0.397,2.444-3.009,2.444-3.009c0,2.651,2.942,3.088,2.942,3.088C70.447,53.75,70.169,57.089,70.169,55.817z"/>
</g>
</svg>
