<?xml version="1.0" encoding="utf-8"?>
<!-- Generator: Adobe Illustrator 23.0.1, SVG Export Plug-In . SVG Version: 6.00 Build 0)  -->
<svg version="1.1" id="Camada_1" xmlns="http://www.w3.org/2000/svg" xmlns:xlink="http://www.w3.org/1999/xlink" x="0px" y="0px"
	 viewBox="0 0 162 166" style="enable-background:new 0 0 162 166;" xml:space="preserve">
<style type="text/css">
	.st0{fill:#FFFFFF;}
</style>
<g>
	<path class="st0" d="M98.9,33.4c-3.1-4.3-7.5-7.6-12.7-9.7c-5.2-2.2-11.1-3.3-17.7-3.3c-6.9,0-13,1.2-18.3,3.5s-9.3,5.6-12.4,9.8
		c-3,4.3-4.9,8.9-5.5,14.1c-0.6,5.1-0.8,13.9-0.8,26.2v21.1c0,12.7,0.3,21.5,0.9,26.7c0.6,5,2.5,9.8,5.7,14.1
		c3.1,4.3,7.5,7.6,12.7,9.7c5.2,2.2,11.1,3.3,17.7,3.3c6.9,0,13-1.2,18.3-3.5s9.3-5.6,12.4-9.8c3-4.3,4.9-8.9,5.5-14.1
		c0.6-5.1,0.8-13.9,0.8-26.2V74.1c0-12.7-0.3-21.5-0.9-26.7C104,42.4,102.1,37.7,98.9,33.4z M73.5,111.3c0,7.2-0.3,11.9-0.9,13.7
		c-0.6,1.9-2,2.9-4.2,2.9c-2.1,0-3.5-0.8-4.1-2.5c-0.6-1.7-0.8-6.1-0.8-13.2V54.7c0-6.3,0.4-10.2,1.4-11.4c0.8-1.3,2.2-1.9,3.9-1.9
		c2,0,3.3,0.8,3.9,2.4s0.9,5.2,0.9,11C73.5,54.8,73.5,111.3,73.5,111.3z"/>
</g>
<g>
	<path class="st0" d="M126.5,126.6c1.4,0.5,2.4,1.2,3.1,2.3c0.7,1,1,3.5,1,7.4c0,2.9-0.3,5.1-1,6.7c-0.7,1.6-1.8,2.8-3.4,3.6
		c-1.6,0.8-3.7,1.2-6.2,1.2c-2.9,0-5.1-0.5-6.7-1.4c-1.6-1-2.7-2.1-3.2-3.5c-0.5-1.4-0.8-3.8-0.8-7.2v-2.9h9v5.9
		c0,1.6,0.1,2.6,0.3,3c0.2,0.4,0.6,0.6,1.2,0.6c0.7,0,1.2-0.3,1.4-0.8c0.2-0.5,0.3-1.9,0.3-4.2v-2.5c0-1.4-0.2-2.4-0.5-3
		c-0.3-0.6-0.8-1.1-1.4-1.3c-0.6-0.2-1.8-0.3-3.5-0.3v-5.2c2.1,0,3.5-0.1,4-0.2c0.5-0.2,0.9-0.5,1.1-1.1c0.2-0.5,0.3-1.4,0.3-2.6v-2
		c0-1.3-0.1-2.1-0.4-2.5c-0.3-0.4-0.7-0.6-1.2-0.6c-0.6,0-1.1,0.2-1.3,0.6c-0.2,0.4-0.3,1.3-0.3,2.7v3h-9v-3.1c0-3.4,0.8-5.8,2.4-7
		c1.6-1.2,4.1-1.8,7.5-1.8c4.3,0,7.2,0.8,8.7,2.5c1.5,1.7,2.3,4,2.3,7c0,2-0.3,3.5-0.8,4.4C128.8,125,127.8,125.9,126.5,126.6z"/>
</g>
</svg>
