<?xml version="1.0" encoding="utf-8"?>
<!-- Generator: Adobe Illustrator 23.0.1, SVG Export Plug-In . SVG Version: 6.00 Build 0)  -->
<svg version="1.1" id="Camada_1" xmlns="http://www.w3.org/2000/svg" xmlns:xlink="http://www.w3.org/1999/xlink" x="0px" y="0px"
	 viewBox="0 0 583 132" style="enable-background:new 0 0 583 132;" xml:space="preserve">
<style type="text/css">
	.st0{fill:url(#SVGID_1_);}
	.st1{fill:url(#SVGID_2_);}
	.st2{fill:url(#SVGID_3_);}
	.st3{fill:url(#SVGID_4_);}
	.st4{fill:url(#SVGID_5_);}
	.st5{fill:url(#SVGID_6_);}
	.st6{fill:url(#SVGID_7_);}
	.st7{fill:url(#SVGID_8_);}
	.st8{fill:url(#SVGID_9_);}
	.st9{fill:url(#SVGID_10_);}
	.st10{fill:url(#SVGID_11_);}
	.st11{fill:url(#SVGID_12_);}
	.st12{fill:url(#SVGID_13_);}
	.st13{fill:url(#SVGID_14_);}
	.st14{fill:url(#SVGID_15_);}
	.st15{fill:url(#SVGID_16_);}
	.st16{fill:url(#SVGID_17_);}
</style>
<g>
	<linearGradient id="SVGID_1_" gradientUnits="userSpaceOnUse" x1="80.3442" y1="-43.0994" x2="61.6776" y2="151.5673">
		<stop  offset="6.666670e-02" style="stop-color:#FFF8B1"/>
		<stop  offset="0.1951" style="stop-color:#FCF5AE"/>
		<stop  offset="0.3015" style="stop-color:#F3EAA5"/>
		<stop  offset="0.4001" style="stop-color:#E5D996"/>
		<stop  offset="0.494" style="stop-color:#D0C180"/>
		<stop  offset="0.5845" style="stop-color:#B5A165"/>
		<stop  offset="0.6713" style="stop-color:#957C43"/>
		<stop  offset="0.736" style="stop-color:#785A26"/>
		<stop  offset="0.8764" style="stop-color:#996C25"/>
		<stop  offset="0.9063" style="stop-color:#9D7025"/>
		<stop  offset="0.936" style="stop-color:#A97B23"/>
		<stop  offset="0.9657" style="stop-color:#BD8F21"/>
		<stop  offset="0.9952" style="stop-color:#D9AA1E"/>
		<stop  offset="1" style="stop-color:#DEAF1D"/>
	</linearGradient>
	<path class="st0" d="M74.5,52.2c-4.5-1.5-9-2.2-13.4-2.2c-6.1,0-12,1.4-17.6,4.1c-5.6,2.7-10.6,6.3-15,10.8
		c-4.4,4.5-7.8,9.6-10.4,15.3s-3.9,11.6-3.9,17.7c0,4,0.7,7.4,2.1,10.3c1.4,2.9,3.3,5.2,5.7,7.1c2.4,1.8,5.2,3.2,8.4,4.1
		c3.2,0.9,6.6,1.3,10.3,1.3c4.4,0,9.1-0.9,14.2-2.8c5.1-1.8,10.3-4.3,15.5-7.3c5.3-3.1,10.5-6.5,15.7-10.4c5.2-3.9,10.2-7.9,14.9-12
		c4.7-4.1,9.1-8.1,13.1-12.1c4-4,7.4-7.5,10.2-10.6c0.4,0,0.6,0.2,0.6,0.5c0,0.1-0.3,0.4-0.8,1c-0.5,0.6-1,1-1.3,1.4
		c-1.1,1.2-2.2,2.4-3.5,3.7c-1.2,1.2-2.6,2.6-4,4c-3.3,3.2-6.9,6.6-10.8,10.1c-3.9,3.5-8,6.9-12.3,10.3c-4.3,3.4-8.7,6.6-13.2,9.6
		c-4.5,3-8.9,5.7-13.4,8c-4.4,2.3-8.8,4.1-13,5.4c-4.3,1.3-8.3,2-12,2c-3.9,0-7.6-0.5-11.1-1.5c-3.4-1-6.4-2.6-9-4.7
		c-2.6-2.1-4.6-4.8-6.1-8c-1.5-3.2-2.2-7-2.2-11.4c0-4.1,0.6-8.1,1.8-12c1.2-3.9,2.9-7.5,5.1-11c2.2-3.5,4.7-6.6,7.7-9.5
		c3-2.9,6.2-5.3,9.7-7.4c3.5-2.1,7.2-3.7,11.1-4.9s7.9-1.7,11.9-1.7c2.3,0,4.5,0.2,6.8,0.5c2.2,0.3,4.5,0.8,6.7,1.3
		c-2.1-1.6-3.8-3.4-5.1-5.6c-1.3-2.1-2-4.6-2-7.3c0-2.6,0.6-5.1,1.7-7.5c1.1-2.4,2.6-4.6,4.4-6.7c1.8-2.1,4-3.9,6.3-5.6
		c2.4-1.7,4.9-3.1,7.5-4.2c2.6-1.2,5.3-2.1,8-2.7c2.7-0.6,5.2-1,7.5-1c2.5,0,4.8,0.4,7.1,1.1c2.3,0.8,4.3,1.9,6,3.3
		c1.7,1.4,3.1,3.2,4.1,5.2c1,2.1,1.5,4.4,1.5,7.1c0,2.6-0.5,5.1-1.6,7.4c-1,2.4-2.5,4.4-4.3,6.2c-1.8,1.8-3.9,3.3-6.2,4.3
		c-2.4,1.1-4.8,1.6-7.3,1.6c-0.6,0-1.2,0-1.9-0.1c-0.7-0.1-1.4-0.3-2-0.5c-0.6-0.3-1.2-0.6-1.7-1c-0.5-0.4-0.9-0.9-1.1-1.6
		c-0.1-0.1-0.1-0.2-0.1-0.3c0-0.3,0.2-0.5,0.5-0.5c0.1,0,0.2,0.1,0.2,0.2c0.2,0.6,0.5,1.2,1,1.6c0.5,0.4,1,0.7,1.7,1
		c0.6,0.2,1.3,0.4,2,0.4c0.7,0.1,1.3,0.1,1.9,0.1c2.5,0,4.9-0.5,7.2-1.6c2.2-1.1,4.2-2.5,5.9-4.3c1.7-1.8,3-3.9,4-6.2
		c1-2.3,1.5-4.7,1.5-7.2c0-2.4-0.4-4.5-1.3-6.3c-0.9-1.8-2.1-3.4-3.6-4.7c-1.5-1.3-3.3-2.2-5.3-2.9c-2-0.6-4.2-1-6.5-1
		c-2.5,0-5.1,0.3-7.8,1c-2.7,0.7-5.4,1.7-8,2.9c-2.6,1.2-5.2,2.7-7.6,4.4c-2.4,1.7-4.5,3.6-6.3,5.7c-1.8,2.1-3.3,4.3-4.3,6.6
		c-1.1,2.3-1.6,4.7-1.6,7.1c0,2.6,0.8,4.9,2.4,6.8c1.6,1.9,3.4,3.6,5.5,5c0,0.1,0,0.2-0.1,0.4C74.7,52.1,74.6,52.2,74.5,52.2z"/>
	<linearGradient id="SVGID_2_" gradientUnits="userSpaceOnUse" x1="137.0021" y1="-37.6665" x2="118.3354" y2="157.0002">
		<stop  offset="6.666670e-02" style="stop-color:#FFF8B1"/>
		<stop  offset="0.1951" style="stop-color:#FCF5AE"/>
		<stop  offset="0.3015" style="stop-color:#F3EAA5"/>
		<stop  offset="0.4001" style="stop-color:#E5D996"/>
		<stop  offset="0.494" style="stop-color:#D0C180"/>
		<stop  offset="0.5845" style="stop-color:#B5A165"/>
		<stop  offset="0.6713" style="stop-color:#957C43"/>
		<stop  offset="0.736" style="stop-color:#785A26"/>
		<stop  offset="0.8764" style="stop-color:#996C25"/>
		<stop  offset="0.9063" style="stop-color:#9D7025"/>
		<stop  offset="0.936" style="stop-color:#A97B23"/>
		<stop  offset="0.9657" style="stop-color:#BD8F21"/>
		<stop  offset="0.9952" style="stop-color:#D9AA1E"/>
		<stop  offset="1" style="stop-color:#DEAF1D"/>
	</linearGradient>
	<path class="st1" d="M140.8,65.4c0.4,0,0.7,0.1,0.7,0.3c0,0.1,0,0.1,0,0.1c0,0,0,0.1,0,0.1c-1.9,2.1-3.7,3.8-5.2,5
		c-1.6,1.2-3.1,2.2-4.7,3c-1.5,0.8-3,1.4-4.5,1.9c-1.5,0.5-3.1,1-4.8,1.6c-1.1,2.7-2.3,5-3.8,7s-3.1,3-4.9,3c-1,0-1.6-0.2-2-0.7
		c-0.4-0.4-0.6-1-0.6-1.5c0-1,0.3-1.9,0.8-2.7c0.5-0.8,1.1-1.4,1.9-2c0.8-0.6,1.6-1.1,2.6-1.5c1-0.4,1.9-0.8,2.8-1.2l0.8-0.3
		c0.8-1.9,1.5-3.9,2.1-6s1.3-4,2-5.8c0.7-1.7,1.4-3.2,2.1-4.3c0.7-1.1,1.4-1.7,2.2-1.7c0.3,0,0.4,0.2,0.4,0.6
		c-0.4,0.3-0.8,1-1.2,2.1c-0.4,1.1-0.9,2.4-1.4,3.9c-0.5,1.5-1,3.2-1.6,5c-0.6,1.8-1.2,3.6-1.8,5.3c1.6-0.6,3.1-1.1,4.6-1.6
		c1.5-0.5,2.9-1.1,4.3-1.9c1.4-0.8,2.9-1.7,4.5-3C137.4,69,139,67.4,140.8,65.4z M113.1,86.6c1.2,0,2.3-0.8,3.3-2.3
		c1-1.5,1.9-3.4,2.8-5.7c-0.6,0.3-1.4,0.7-2.2,1c-0.9,0.4-1.7,0.8-2.5,1.3c-0.8,0.5-1.5,1.1-2.1,1.9c-0.6,0.7-0.9,1.6-0.9,2.5
		c0,0.8,0.4,1.3,1.1,1.3H113.1z"/>
	<linearGradient id="SVGID_3_" gradientUnits="userSpaceOnUse" x1="176.9236" y1="-33.8384" x2="158.2569" y2="160.8283">
		<stop  offset="6.666670e-02" style="stop-color:#FFF8B1"/>
		<stop  offset="0.1951" style="stop-color:#FCF5AE"/>
		<stop  offset="0.3015" style="stop-color:#F3EAA5"/>
		<stop  offset="0.4001" style="stop-color:#E5D996"/>
		<stop  offset="0.494" style="stop-color:#D0C180"/>
		<stop  offset="0.5845" style="stop-color:#B5A165"/>
		<stop  offset="0.6713" style="stop-color:#957C43"/>
		<stop  offset="0.736" style="stop-color:#785A26"/>
		<stop  offset="0.8764" style="stop-color:#996C25"/>
		<stop  offset="0.9063" style="stop-color:#9D7025"/>
		<stop  offset="0.936" style="stop-color:#A97B23"/>
		<stop  offset="0.9657" style="stop-color:#BD8F21"/>
		<stop  offset="0.9952" style="stop-color:#D9AA1E"/>
		<stop  offset="1" style="stop-color:#DEAF1D"/>
	</linearGradient>
	<path class="st2" d="M204.3,40.7c0.2-0.5,0.5-0.8,0.9-0.8c0.8,0,1.2,0.5,1.2,1.4c0,0.5-0.2,1-0.7,1.5c-1.6,1.7-3.6,2.9-6,3.5
		c-2.4,0.6-5.1,0.9-8,0.9c-3.6,0-7.1-0.4-10.5-1.1c-3.4-0.7-6.8-1.6-10.2-2.5c-4.8,3.9-9.6,7.7-14.6,11.3c-5,3.6-9.4,6.6-13.3,9.2
		c-1.3,1.6-2.4,3.1-3.5,4.6c-1,1.5-2,2.9-2.9,4.3c-1.5,2.4-2.6,4.5-3.5,6.5c-0.9,2-1.3,3.7-1.3,5.2c0,0.6,0.1,1.2,0.3,1.8
		c0.2,0.6,0.4,1.2,0.7,1.7c0.2,0.5,0.6,1.2,1,1.9c0,0.3-0.2,0.5-0.5,0.5c-0.1,0-0.2-0.1-0.2-0.2c-1.5-1.6-2.2-3.5-2.2-5.8
		c0-1.3,0.2-2.8,0.7-4.4c0.5-1.6,1.2-3.3,2.1-5.2c1.2-2.5,2.7-5.1,4.6-8c1.8-2.8,3.9-5.7,6.2-8.6c2.3-2.9,4.8-5.9,7.5-8.8
		c2.7-3,5.4-5.8,8.2-8.6c-2.2-0.5-4.3-0.9-6.5-1.2c-2.2-0.3-4.4-0.4-6.6-0.4c-3.1,0-5.8,0.4-8.1,1.2c-2.4,0.8-3.8,2.4-4.5,4.6
		c-0.2,0.6-0.5,0.9-1,0.9c-0.3,0-0.6-0.1-0.8-0.4c-0.2-0.3-0.3-0.6-0.3-1c0-0.6,0.2-1.1,0.7-1.6c1.4-1.5,3.2-2.6,5.3-3.3
		c2.2-0.7,4.5-1.1,7.2-1.1c2.7,0,5.3,0.2,7.8,0.5c2.5,0.3,5,0.8,7.4,1.3c3.4-3.3,6.6-6.3,9.8-9.1c3.1-2.7,6.1-5.1,8.8-7.1
		c2.7-2,5.1-3.5,7.2-4.6c2.1-1.1,3.8-1.6,5.1-1.6c0.5,0,1,0.1,1.3,0.3c0.4,0.2,0.6,0.7,0.6,1.3c0,1.1-0.6,2.5-1.9,4.2
		c-1.3,1.8-2.9,3.7-5,5.8c-2,2.1-4.4,4.3-7.1,6.6c-2.7,2.3-5.4,4.6-8.1,6.9c3.4,0.9,6.7,1.7,10.1,2.4c3.3,0.7,6.8,1,10.3,1
		c3,0,5.6-0.4,7.9-1.3C202.2,44.5,203.7,42.9,204.3,40.7z M144.6,62.2c3.7-2.5,7.8-5.4,12.3-8.6c4.5-3.3,8.9-6.7,13.3-10.2
		c-1.1-0.3-2.3-0.6-3.4-0.9s-2.3-0.6-3.4-0.9c-3.3,3.3-6.6,6.7-9.8,10.2C150.3,55.3,147.4,58.8,144.6,62.2z M190,19.3
		c-1.3,0.6-2.8,1.5-4.7,2.9c-1.9,1.3-4,3-6.2,4.9s-4.7,4-7.3,6.4c-2.6,2.4-5.2,4.9-7.9,7.5c1.2,0.3,2.4,0.6,3.5,1
		c1.1,0.3,2.3,0.6,3.4,1c2.7-2.2,5.3-4.4,8-6.7c2.6-2.3,5-4.5,7.1-6.6c2.1-2.1,3.8-4,5.1-5.7c1.3-1.7,2-3.1,2-4.1c0-0.7-0.3-1-1-1
		c-0.3,0-0.7,0.1-1,0.2C190.6,19.1,190.3,19.2,190,19.3z"/>
	<linearGradient id="SVGID_4_" gradientUnits="userSpaceOnUse" x1="174.3475" y1="-34.0854" x2="155.6808" y2="160.5813">
		<stop  offset="6.666670e-02" style="stop-color:#FFF8B1"/>
		<stop  offset="0.1951" style="stop-color:#FCF5AE"/>
		<stop  offset="0.3015" style="stop-color:#F3EAA5"/>
		<stop  offset="0.4001" style="stop-color:#E5D996"/>
		<stop  offset="0.494" style="stop-color:#D0C180"/>
		<stop  offset="0.5845" style="stop-color:#B5A165"/>
		<stop  offset="0.6713" style="stop-color:#957C43"/>
		<stop  offset="0.736" style="stop-color:#785A26"/>
		<stop  offset="0.8764" style="stop-color:#996C25"/>
		<stop  offset="0.9063" style="stop-color:#9D7025"/>
		<stop  offset="0.936" style="stop-color:#A97B23"/>
		<stop  offset="0.9657" style="stop-color:#BD8F21"/>
		<stop  offset="0.9952" style="stop-color:#D9AA1E"/>
		<stop  offset="1" style="stop-color:#DEAF1D"/>
	</linearGradient>
	<path class="st3" d="M175.2,65.4c0.4,0,0.6,0.2,0.6,0.6c-1.1,1.2-2.3,2.4-3.7,3.6c-1.4,1.2-2.8,2.3-4.4,3.2c-1.6,1-3.2,1.7-4.9,2.3
		c-1.7,0.6-3.4,0.9-5.1,0.9c-1.5,0-2.6-0.4-3.3-1.3c-0.7-0.9-1.1-1.9-1.2-3.2c0-1,0.1-1.9,0.4-2.9c0.3-1,0.7-1.9,1.2-2.7
		c0.5-0.8,1.2-1.5,1.9-2c0.8-0.5,1.7-0.8,2.7-0.8c1.4,0,2.2,0.4,2.3,1.3c0,0.4-0.2,0.9-0.6,1.3c-0.4,0.4-0.8,0.8-1.4,1.2
		c-0.5,0.4-1.1,0.7-1.8,1c-0.6,0.3-1.2,0.5-1.8,0.6c-0.5,1.2-0.8,2.4-0.8,3.5c0.1,0.9,0.3,1.6,0.9,2.2c0.5,0.6,1.3,0.9,2.4,0.9
		c1.5,0,3.1-0.3,4.6-0.9c1.5-0.6,3-1.4,4.5-2.3c1.5-0.9,2.8-2,4.1-3.1C173.2,67.7,174.3,66.5,175.2,65.4z M160.6,54.1
		c0.2,0,0.4,0.1,0.6,0.2c0.2,0.2,0.3,0.4,0.3,0.6c0,0.1-0.1,0.2-0.2,0.5l-4.1,3.9c-0.1,0.1-0.2,0.1-0.3,0.1c-0.2,0-0.3-0.2-0.3-0.6
		l3.4-4.4C160.3,54.3,160.5,54.1,160.6,54.1z M160.8,64c-0.8,0-1.6,0.4-2.3,1.1c-0.7,0.7-1.4,1.6-1.9,2.6c0.9-0.3,1.9-0.8,2.9-1.5
		c1-0.7,1.6-1.3,1.6-1.9C161.1,64.1,161,64,160.8,64z"/>
	<linearGradient id="SVGID_5_" gradientUnits="userSpaceOnUse" x1="210.9457" y1="-30.576" x2="192.2791" y2="164.0907">
		<stop  offset="6.666670e-02" style="stop-color:#FFF8B1"/>
		<stop  offset="0.1951" style="stop-color:#FCF5AE"/>
		<stop  offset="0.3015" style="stop-color:#F3EAA5"/>
		<stop  offset="0.4001" style="stop-color:#E5D996"/>
		<stop  offset="0.494" style="stop-color:#D0C180"/>
		<stop  offset="0.5845" style="stop-color:#B5A165"/>
		<stop  offset="0.6713" style="stop-color:#957C43"/>
		<stop  offset="0.736" style="stop-color:#785A26"/>
		<stop  offset="0.8764" style="stop-color:#996C25"/>
		<stop  offset="0.9063" style="stop-color:#9D7025"/>
		<stop  offset="0.936" style="stop-color:#A97B23"/>
		<stop  offset="0.9657" style="stop-color:#BD8F21"/>
		<stop  offset="0.9952" style="stop-color:#D9AA1E"/>
		<stop  offset="1" style="stop-color:#DEAF1D"/>
	</linearGradient>
	<path class="st4" d="M238.7,40.7c0.2-0.5,0.5-0.8,0.9-0.8c0.8,0,1.2,0.5,1.2,1.4c0,0.5-0.2,1-0.7,1.5c-1.6,1.7-3.6,2.9-6,3.5
		c-2.4,0.6-5.1,0.9-8,0.9c-3.6,0-7.1-0.4-10.5-1.1c-3.4-0.7-6.8-1.6-10.2-2.5c-4.8,3.9-9.6,7.7-14.6,11.3c-5,3.6-9.4,6.6-13.3,9.2
		c-1.3,1.6-2.4,3.1-3.5,4.6c-1,1.5-2,2.9-2.9,4.3c-1.5,2.4-2.6,4.5-3.5,6.5c-0.9,2-1.3,3.7-1.3,5.2c0,0.6,0.1,1.2,0.3,1.8
		c0.2,0.6,0.4,1.2,0.7,1.7c0.2,0.5,0.6,1.2,1,1.9c0,0.3-0.2,0.5-0.5,0.5c-0.1,0-0.2-0.1-0.2-0.2c-1.5-1.6-2.2-3.5-2.2-5.8
		c0-1.3,0.2-2.8,0.7-4.4c0.5-1.6,1.2-3.3,2.1-5.2c1.2-2.5,2.7-5.1,4.6-8c1.8-2.8,3.9-5.7,6.2-8.6c2.3-2.9,4.8-5.9,7.5-8.8
		c2.7-3,5.4-5.8,8.2-8.6c-2.2-0.5-4.3-0.9-6.5-1.2c-2.2-0.3-4.4-0.4-6.6-0.4c-3.1,0-5.8,0.4-8.1,1.2c-2.4,0.8-3.8,2.4-4.5,4.6
		c-0.2,0.6-0.5,0.9-1,0.9c-0.3,0-0.6-0.1-0.8-0.4c-0.2-0.3-0.3-0.6-0.3-1c0-0.6,0.2-1.1,0.7-1.6c1.4-1.5,3.2-2.6,5.3-3.3
		c2.2-0.7,4.5-1.1,7.2-1.1c2.7,0,5.3,0.2,7.8,0.5c2.5,0.3,5,0.8,7.4,1.3c3.4-3.3,6.6-6.3,9.8-9.1c3.1-2.7,6.1-5.1,8.8-7.1
		c2.7-2,5.1-3.5,7.2-4.6c2.1-1.1,3.8-1.6,5.1-1.6c0.5,0,1,0.1,1.3,0.3c0.4,0.2,0.6,0.7,0.6,1.3c0,1.1-0.6,2.5-1.9,4.2
		c-1.3,1.8-2.9,3.7-5,5.8c-2,2.1-4.4,4.3-7.1,6.6c-2.7,2.3-5.4,4.6-8.1,6.9c3.4,0.9,6.7,1.7,10.1,2.4c3.3,0.7,6.8,1,10.3,1
		c3,0,5.6-0.4,7.9-1.3C236.6,44.5,238,42.9,238.7,40.7z M179,62.2c3.7-2.5,7.8-5.4,12.3-8.6c4.5-3.3,8.9-6.7,13.3-10.2
		c-1.1-0.3-2.3-0.6-3.4-0.9s-2.3-0.6-3.4-0.9c-3.3,3.3-6.6,6.7-9.8,10.2C184.7,55.3,181.7,58.8,179,62.2z M224.4,19.3
		c-1.3,0.6-2.8,1.5-4.7,2.9c-1.9,1.3-4,3-6.2,4.9s-4.7,4-7.3,6.4c-2.6,2.4-5.2,4.9-7.9,7.5c1.2,0.3,2.4,0.6,3.5,1
		c1.1,0.3,2.3,0.6,3.4,1c2.7-2.2,5.3-4.4,8-6.7c2.6-2.3,5-4.5,7.1-6.6c2.1-2.1,3.8-4,5.1-5.7c1.3-1.7,2-3.1,2-4.1c0-0.7-0.3-1-1-1
		c-0.3,0-0.7,0.1-1,0.2C224.9,19.1,224.6,19.2,224.4,19.3z"/>
	<linearGradient id="SVGID_6_" gradientUnits="userSpaceOnUse" x1="206.1235" y1="-31.0384" x2="187.4568" y2="163.6283">
		<stop  offset="6.666670e-02" style="stop-color:#FFF8B1"/>
		<stop  offset="0.1951" style="stop-color:#FCF5AE"/>
		<stop  offset="0.3015" style="stop-color:#F3EAA5"/>
		<stop  offset="0.4001" style="stop-color:#E5D996"/>
		<stop  offset="0.494" style="stop-color:#D0C180"/>
		<stop  offset="0.5845" style="stop-color:#B5A165"/>
		<stop  offset="0.6713" style="stop-color:#957C43"/>
		<stop  offset="0.736" style="stop-color:#785A26"/>
		<stop  offset="0.8764" style="stop-color:#996C25"/>
		<stop  offset="0.9063" style="stop-color:#9D7025"/>
		<stop  offset="0.936" style="stop-color:#A97B23"/>
		<stop  offset="0.9657" style="stop-color:#BD8F21"/>
		<stop  offset="0.9952" style="stop-color:#D9AA1E"/>
		<stop  offset="1" style="stop-color:#DEAF1D"/>
	</linearGradient>
	<path class="st5" d="M207,65.4c0.1,0,0.3,0,0.4,0.1c0.1,0.1,0.2,0.2,0.2,0.4c-1,1.2-2.2,2.4-3.6,3.6c-1.4,1.2-2.8,2.3-4.4,3.3
		c-1.6,1-3.2,1.8-5,2.4c-1.7,0.6-3.4,0.9-5.1,0.9c-1.4,0-2.4-0.3-3.1-0.9c-0.7-0.6-1-1.4-1-2.5c0-0.6,0.2-1.4,0.6-2.4
		c0.4-1,0.9-1.8,1.4-2.7c0.6-0.8,1.2-1.5,1.9-2.1c0.7-0.6,1.3-0.9,1.8-0.9c0.3,0,0.6,0.1,0.8,0.2c0.2,0.1,0.3,0.4,0.3,0.7
		c0,0.3-0.3,0.7-0.8,1.3c-0.5,0.6-1.1,1.3-1.7,2.1c-0.6,0.8-1.2,1.7-1.7,2.5c-0.5,0.9-0.8,1.7-0.8,2.4c0,1,0.6,1.5,1.9,1.5
		c1.6,0,3.2-0.3,4.9-0.9c1.7-0.6,3.3-1.3,4.9-2.3c1.6-1,3.1-2,4.4-3.2C204.7,67.8,205.9,66.6,207,65.4z M194.9,61.9
		c-0.1-0.1-0.2-0.3-0.2-0.4c0-0.4,0.2-0.8,0.7-1.3c0.5-0.5,1.1-0.8,1.8-0.8c0.4,0,0.8,0.1,1,0.3c0.3,0.2,0.4,0.4,0.4,0.5
		c0,0.4-0.4,0.8-1.2,1.2c-0.8,0.4-1.5,0.6-2.1,0.6C195.1,62,194.9,61.9,194.9,61.9z"/>
	<linearGradient id="SVGID_7_" gradientUnits="userSpaceOnUse" x1="226.7376" y1="-29.0617" x2="208.071" y2="165.605">
		<stop  offset="6.666670e-02" style="stop-color:#FFF8B1"/>
		<stop  offset="0.1951" style="stop-color:#FCF5AE"/>
		<stop  offset="0.3015" style="stop-color:#F3EAA5"/>
		<stop  offset="0.4001" style="stop-color:#E5D996"/>
		<stop  offset="0.494" style="stop-color:#D0C180"/>
		<stop  offset="0.5845" style="stop-color:#B5A165"/>
		<stop  offset="0.6713" style="stop-color:#957C43"/>
		<stop  offset="0.736" style="stop-color:#785A26"/>
		<stop  offset="0.8764" style="stop-color:#996C25"/>
		<stop  offset="0.9063" style="stop-color:#9D7025"/>
		<stop  offset="0.936" style="stop-color:#A97B23"/>
		<stop  offset="0.9657" style="stop-color:#BD8F21"/>
		<stop  offset="0.9952" style="stop-color:#D9AA1E"/>
		<stop  offset="1" style="stop-color:#DEAF1D"/>
	</linearGradient>
	<path class="st6" d="M231.6,65.4c0.3,0,0.5,0.2,0.5,0.6c-1.3,1.3-2.8,2.8-4.5,4.4c-1.7,1.6-3.6,3.1-5.7,4.4c-2,1.4-4.1,2.5-6.2,3.4
		c-2.1,0.9-4.1,1.3-6.1,1.3c-2.4,0-4.2-0.6-5.3-1.9c-1.1-1.2-1.7-2.7-1.7-4.4c0-1.1,0.2-2.3,0.7-3.5c0.5-1.2,1.1-2.2,2-3.1
		c0.8-0.9,1.8-1.7,2.8-2.3c1-0.6,2.1-0.9,3.3-0.9c0.8,0,1.4,0.2,2,0.7c0.5,0.5,0.8,1.1,0.8,1.9c0,0.6-0.1,1-0.3,1.2
		c-0.2,0.3-0.4,0.4-0.6,0.4c-0.2,0-0.3-0.1-0.3-0.3c0.3-0.4,0.5-0.9,0.5-1.3c0-0.4-0.1-0.7-0.3-1c-0.2-0.3-0.5-0.5-1-0.5
		c-0.8,0-1.7,0.3-2.5,1c-0.9,0.7-1.6,1.5-2.3,2.4c-0.7,1-1.3,2-1.8,3.1c-0.5,1.1-0.7,2.1-0.7,3c0,1.3,0.4,2.4,1.1,3.3s2,1.4,3.8,1.4
		c1.8,0,3.8-0.5,5.9-1.4c2.1-0.9,4.1-2.1,6.1-3.4c2-1.3,3.8-2.8,5.6-4.3C228.9,68.1,230.4,66.7,231.6,65.4z"/>
	<linearGradient id="SVGID_8_" gradientUnits="userSpaceOnUse" x1="250.3385" y1="-26.7986" x2="231.6718" y2="167.8681">
		<stop  offset="6.666670e-02" style="stop-color:#FFF8B1"/>
		<stop  offset="0.1951" style="stop-color:#FCF5AE"/>
		<stop  offset="0.3015" style="stop-color:#F3EAA5"/>
		<stop  offset="0.4001" style="stop-color:#E5D996"/>
		<stop  offset="0.494" style="stop-color:#D0C180"/>
		<stop  offset="0.5845" style="stop-color:#B5A165"/>
		<stop  offset="0.6713" style="stop-color:#957C43"/>
		<stop  offset="0.736" style="stop-color:#785A26"/>
		<stop  offset="0.8764" style="stop-color:#996C25"/>
		<stop  offset="0.9063" style="stop-color:#9D7025"/>
		<stop  offset="0.936" style="stop-color:#A97B23"/>
		<stop  offset="0.9657" style="stop-color:#BD8F21"/>
		<stop  offset="0.9952" style="stop-color:#D9AA1E"/>
		<stop  offset="1" style="stop-color:#DEAF1D"/>
	</linearGradient>
	<path class="st7" d="M255.3,65.4c0.3,0,0.5,0.2,0.5,0.6c-1,1-2.1,2.2-3.5,3.5c-1.4,1.3-2.8,2.6-4.4,3.8c-1.6,1.2-3.2,2.2-4.9,3
		c-1.7,0.8-3.3,1.2-4.7,1.2c-0.9,0-1.7-0.3-2.4-0.8c-0.7-0.5-1.1-1.4-1.1-2.7c0-1.5,0.3-3,0.9-4.5c-1.3,1.1-2.6,2.2-3.9,3.1
		s-2.4,1.4-3.1,1.4c-0.4,0-0.9-0.1-1.3-0.3c-0.4-0.2-0.6-0.7-0.6-1.4c0-0.8,0.2-1.6,0.7-2.5c0.5-0.9,1.1-1.7,1.8-2.5
		c0.7-0.8,1.5-1.4,2.3-2c0.8-0.5,1.6-0.8,2.4-0.8c0.7,0,1.3,0.2,1.9,0.6c0.5,0.4,1,0.8,1.3,1.2c0.3-0.4,0.6-0.8,0.9-1.1
		c0.3-0.4,0.7-0.6,1.3-0.6c0.3,0,0.5,0.1,0.7,0.2c0.2,0.1,0.3,0.3,0.3,0.7c0,0.2-0.2,0.7-0.6,1.4c-0.4,0.7-0.9,1.6-1.3,2.5
		s-0.9,1.9-1.3,2.9c-0.4,1-0.6,1.9-0.6,2.6c0,0.6,0.2,1.1,0.6,1.3c0.4,0.2,0.8,0.3,1.2,0.3c1.3,0,2.8-0.4,4.4-1.2
		c1.6-0.8,3.2-1.8,4.8-3c1.6-1.2,3.1-2.4,4.4-3.7C253.2,67.5,254.4,66.3,255.3,65.4z M236.7,67.2c-0.2-0.2-0.5-0.5-0.9-0.9
		c-0.4-0.4-0.8-0.6-1.1-0.6c-0.4,0-1,0.3-1.7,0.9c-0.8,0.6-1.5,1.2-2.3,2c-0.8,0.8-1.4,1.5-2,2.3c-0.6,0.8-0.9,1.4-0.9,1.9
		c0,0.4,0.2,0.6,0.6,0.6c0.4,0,0.9-0.2,1.6-0.6c0.7-0.4,1.4-0.9,2.2-1.5c0.8-0.6,1.5-1.3,2.3-2C235.3,68.6,236,67.9,236.7,67.2z"/>
	<linearGradient id="SVGID_9_" gradientUnits="userSpaceOnUse" x1="324.7421" y1="-19.664" x2="306.0754" y2="175.0027">
		<stop  offset="6.666670e-02" style="stop-color:#FFF8B1"/>
		<stop  offset="0.1951" style="stop-color:#FCF5AE"/>
		<stop  offset="0.3015" style="stop-color:#F3EAA5"/>
		<stop  offset="0.4001" style="stop-color:#E5D996"/>
		<stop  offset="0.494" style="stop-color:#D0C180"/>
		<stop  offset="0.5845" style="stop-color:#B5A165"/>
		<stop  offset="0.6713" style="stop-color:#957C43"/>
		<stop  offset="0.736" style="stop-color:#785A26"/>
		<stop  offset="0.8764" style="stop-color:#996C25"/>
		<stop  offset="0.9063" style="stop-color:#9D7025"/>
		<stop  offset="0.936" style="stop-color:#A97B23"/>
		<stop  offset="0.9657" style="stop-color:#BD8F21"/>
		<stop  offset="0.9952" style="stop-color:#D9AA1E"/>
		<stop  offset="1" style="stop-color:#DEAF1D"/>
	</linearGradient>
	<path class="st8" d="M347.4,23.9c1.3,0.1,1.9,0.9,1.9,2.2c0,1.1-0.7,2.7-2.2,4.7c-1.5,2-3.4,4.3-5.8,6.8c-2.4,2.5-5.2,5.2-8.4,8
		c-3.2,2.8-6.5,5.6-10,8.4c-3.5,2.8-7,5.5-10.5,8c-3.6,2.5-6.9,4.8-10,6.8c-2.3,3.1-4.1,5.8-5.4,8.1s-2,4.2-2,5.4
		c0,1.3,0.8,1.9,2.3,1.9c1.8,0,4.1-0.7,6.8-2.1c2.7-1.4,5.5-3,8.3-4.9c1.8-1.3,3.6-2.6,5.4-4c1.7-1.4,3.3-2.7,4.7-4
		c0.9-0.8,1.7-1.7,2.6-2.6c0.8-0.9,1.3-1.3,1.4-1.3c0.3,0,0.5,0.2,0.5,0.5c-0.8,1-1.9,2.1-3.3,3.4c-1.4,1.3-3,2.7-4.8,4.1
		c-1.8,1.4-3.7,2.8-5.6,4.2c-2,1.4-3.9,2.6-5.9,3.7c-1.9,1.1-3.8,2-5.6,2.7c-1.8,0.7-3.3,1-4.6,1c-1.3,0-2.2-0.3-2.8-0.9
		s-0.9-1.3-0.9-2.3c0-1.1,0.4-2.6,1.2-4.5c0.8-1.8,1.9-3.8,3.3-6c-2.2,1.1-4,2-5.4,2.6c-1.4,0.7-2.6,1-3.7,1c-0.5,0-1-0.1-1.3-0.4
		c-0.4-0.3-0.6-0.8-0.6-1.5c0-1,0.2-1.9,0.7-3c0.5-1,1.1-2,1.9-2.8c0.8-0.9,1.6-1.6,2.6-2.1c1-0.5,2-0.8,2.9-0.8
		c1.3,0,2.4,0.4,3.2,1.1c0.9,0.8,1.4,1.8,1.5,3.1c2-3.1,4.4-6.3,7.2-9.7c2.8-3.4,5.7-6.8,8.8-10.1c3.1-3.3,6.2-6.5,9.3-9.5
		c3.1-3,6.1-5.7,9-7.9c2.8-2.3,5.4-4.1,7.7-5.4C344.1,24.6,346,23.9,347.4,23.9z M295,72.1c0.3-0.2,0.7-0.4,1.1-0.6
		c0.4-0.2,0.9-0.4,1.3-0.7c0.4-0.3,0.8-0.5,1.1-0.9s0.4-0.7,0.4-1.1c0-0.7-0.2-1.4-0.6-2.1c-0.4-0.7-1-1-1.8-1c-0.7,0-1.5,0.3-2.5,1
		c-1,0.6-1.9,1.4-2.8,2.2s-1.7,1.7-2.3,2.6c-0.6,0.9-1,1.6-1,2.2c0,0.4,0.3,0.6,0.9,0.6c0.7,0,1.5-0.2,2.5-0.6
		C292.4,73.3,293.6,72.8,295,72.1z M329.7,47.4c2.7-2.3,5.2-4.5,7.4-6.7c2.3-2.2,4.3-4.2,6-6c1.7-1.8,3.1-3.5,4-5
		c1-1.5,1.4-2.7,1.4-3.7c0-0.9-0.4-1.3-1.1-1.3c-1,0-2.4,0.6-4.2,1.9c-1.9,1.3-4.1,3-6.5,5.1c-2.5,2.1-5.2,4.6-8.1,7.4
		c-2.9,2.8-5.8,5.8-8.8,9s-5.8,6.3-8.6,9.6c-2.8,3.2-5.3,6.4-7.6,9.3c4-2.6,8.3-5.6,12.9-9.1C321.1,54.5,325.5,51,329.7,47.4z"/>
	<linearGradient id="SVGID_10_" gradientUnits="userSpaceOnUse" x1="340.6072" y1="-18.1427" x2="321.9405" y2="176.524">
		<stop  offset="6.666670e-02" style="stop-color:#FFF8B1"/>
		<stop  offset="0.1951" style="stop-color:#FCF5AE"/>
		<stop  offset="0.3015" style="stop-color:#F3EAA5"/>
		<stop  offset="0.4001" style="stop-color:#E5D996"/>
		<stop  offset="0.494" style="stop-color:#D0C180"/>
		<stop  offset="0.5845" style="stop-color:#B5A165"/>
		<stop  offset="0.6713" style="stop-color:#957C43"/>
		<stop  offset="0.736" style="stop-color:#785A26"/>
		<stop  offset="0.8764" style="stop-color:#996C25"/>
		<stop  offset="0.9063" style="stop-color:#9D7025"/>
		<stop  offset="0.936" style="stop-color:#A97B23"/>
		<stop  offset="0.9657" style="stop-color:#BD8F21"/>
		<stop  offset="0.9952" style="stop-color:#D9AA1E"/>
		<stop  offset="1" style="stop-color:#DEAF1D"/>
	</linearGradient>
	<path class="st9" d="M342.8,65.4c0.3,0,0.5,0.2,0.5,0.6c-1.8,2.2-3.8,3.9-5.7,5.1c-2,1.2-4.1,1.8-6.3,1.8c-0.6,0-1.1,0-1.7-0.1
		c-0.6-0.1-1.1-0.2-1.7-0.4c-0.7,0.7-1.5,1.3-2.3,1.8c-0.8,0.5-1.6,0.8-2.4,0.8c-0.6,0-1-0.2-1.4-0.5c-0.4-0.3-0.6-0.9-0.6-1.7
		c0-1.1,0.5-2.5,1.5-4.2c-0.1-0.1-0.2-0.2-0.2-0.5c0-0.3,0-0.4,0-0.6c0-1.3,0.5-2.4,1.6-3.3c1-0.9,2.2-1.3,3.6-1.3
		c1.1,0,1.9,0.3,2.6,0.9c0.6,0.6,1,1.3,1,2.3c0,1.1-0.3,2.1-0.9,3.1c-0.6,1-1.2,1.9-1.9,2.7c0.8,0.3,1.7,0.4,2.8,0.4
		c2.1,0,4.1-0.6,6-1.8C339.1,69.2,341,67.6,342.8,65.4z M325.1,73.6c0.3-0.2,0.7-0.4,1-0.7c0.3-0.3,0.7-0.5,1-0.9
		c-0.6-0.1-1.2-0.3-1.7-0.6c-0.5-0.3-1-0.6-1.3-0.9c-0.3,0.5-0.6,1-0.9,1.5c-0.3,0.5-0.4,1-0.4,1.5c0,0.4,0.2,0.7,0.6,0.7
		c0.3,0,0.6-0.1,1-0.2C324.6,73.9,324.9,73.7,325.1,73.6z M327.6,63.6c-1.2,0-2.2,0.4-3.1,1.1c-0.9,0.7-1.3,1.7-1.3,3
		c0.4-0.5,0.9-1.1,1.4-1.7c0.5-0.6,1.1-1,1.8-1c0.3,0,0.7,0.1,1,0.2c0.3,0.1,0.5,0.4,0.5,0.7c0,0.4-0.4,0.9-1.2,1.6
		c-0.8,0.7-1.5,1.5-2.2,2.5c0.4,0.4,0.9,0.7,1.5,1c0.6,0.3,1.2,0.4,1.7,0.6c0.7-0.7,1.3-1.5,2-2.5c0.6-1,0.9-2,0.9-2.9
		c0-0.9-0.3-1.5-0.8-1.9C329.2,63.8,328.5,63.6,327.6,63.6z"/>
	<linearGradient id="SVGID_11_" gradientUnits="userSpaceOnUse" x1="423.9001" y1="-10.1557" x2="405.2335" y2="184.511">
		<stop  offset="6.666670e-02" style="stop-color:#FFF8B1"/>
		<stop  offset="0.1951" style="stop-color:#FCF5AE"/>
		<stop  offset="0.3015" style="stop-color:#F3EAA5"/>
		<stop  offset="0.4001" style="stop-color:#E5D996"/>
		<stop  offset="0.494" style="stop-color:#D0C180"/>
		<stop  offset="0.5845" style="stop-color:#B5A165"/>
		<stop  offset="0.6713" style="stop-color:#957C43"/>
		<stop  offset="0.736" style="stop-color:#785A26"/>
		<stop  offset="0.8764" style="stop-color:#996C25"/>
		<stop  offset="0.9063" style="stop-color:#9D7025"/>
		<stop  offset="0.936" style="stop-color:#A97B23"/>
		<stop  offset="0.9657" style="stop-color:#BD8F21"/>
		<stop  offset="0.9952" style="stop-color:#D9AA1E"/>
		<stop  offset="1" style="stop-color:#DEAF1D"/>
	</linearGradient>
	<path class="st10" d="M486.5,7.9c1.7,0.1,3,0.5,4.1,1.3c1.1,0.8,1.7,2.1,1.7,3.7c0,1.8-0.8,4.1-2.4,6.9c-1.6,2.8-4.3,5.9-8.2,9.3
		c-3.9,3.5-8.8,6.9-14.7,10.3c-5.9,3.4-12.4,6.5-19.4,9.3l-3.1,1.2c-2.9,4.3-5.9,8.6-8.9,13c-3,4.4-6.1,8.7-9.3,13.1
		c2.5,0.6,4.9,1,7.4,1.4c2.4,0.4,4.9,0.5,7.3,0.5c4.2,0,8.3-0.7,12.2-2c3.9-1.3,7.8-3.6,11.6-7c0.3-0.3,0.6-0.6,1-1
		c0.4-0.4,0.9-0.8,1.2-1.2c0.4-0.4,0.7-0.7,1-1s0.5-0.4,0.5-0.4c0.3,0,0.5,0.2,0.5,0.6c-2.1,2.2-4.2,4.1-6.3,5.7
		c-3.5,2.7-7,4.5-10.6,5.5c-3.6,1-7.3,1.5-11,1.5c-2.5,0-5-0.2-7.5-0.6c-2.5-0.4-5.1-0.9-7.7-1.4c-4.5,6.1-9,11.9-13.8,17.5
		c-4.7,5.6-9.7,10.4-14.8,14.6c-5.1,4.2-10.4,7.5-15.8,10.1c-5.4,2.5-11.1,3.8-17,3.8c-3.8,0-7.1-0.5-9.9-1.5c-2.8-1-5.1-2.3-6.9-4
		c-1.8-1.7-3.1-3.6-4-5.9c-0.9-2.3-1.3-4.7-1.3-7.2c0-4,1-8.1,3-12.4c2-4.3,4.8-8.2,8.5-11.7c3.7-3.5,8.1-6.4,13.4-8.7
		c5.2-2.3,11.1-3.4,17.5-3.4c3.4,0,6.7,0.3,10,0.8c3.3,0.5,6.6,1.1,9.8,1.9c3.2,0.8,6.5,1.6,9.6,2.4c3.2,0.9,6.3,1.7,9.4,2.4
		c2.9-4,5.8-8,8.6-12.1c2.8-4,5.6-8.1,8.3-12.1c-2.8,1-6,2-9.5,3c-3.5,1-7.2,2-11,2.9c-3.8,0.9-7.7,1.6-11.5,2.1
		c-3.9,0.6-7.6,0.9-11.3,0.9c-4,0-7.7-0.4-11.1-1.3c-3.4-0.9-6.1-2.3-8.3-4.3c-0.6-0.5-1.3-1.3-2.1-2.3c-0.8-1-1.2-2-1.2-2.9
		c0-0.2,0.1-0.3,0.3-0.3s0.3,0.1,0.4,0.2c0.8,1.9,1.8,3.5,3.2,4.8c1.4,1.3,3.1,2.3,5,3.1c1.9,0.8,4,1.4,6.3,1.8
		c2.3,0.3,4.8,0.5,7.4,0.5c3.7,0,7.5-0.3,11.6-0.9c4-0.6,8-1.4,11.9-2.2c3.9-0.9,7.6-1.9,11.2-3c3.5-1.1,6.7-2.1,9.5-3.1
		c4-5.7,7.9-11.2,11.8-16.3c3.8-5.2,7.6-9.6,11.4-13.5c3.8-3.8,7.5-6.9,11.1-9.2C479.3,9,482.9,7.9,486.5,7.9z M364.5,121.9
		c5.4,0,10.7-1.2,15.8-3.7c5.2-2.5,10.2-5.8,15-10.1c4.9-4.2,9.6-9.1,14.3-14.6c4.6-5.5,9.2-11.3,13.6-17.5
		c-3.1-0.8-6.1-1.6-9.3-2.4c-3.1-0.9-6.3-1.7-9.5-2.4c-3.2-0.7-6.5-1.4-9.7-1.9c-3.3-0.5-6.6-0.8-10-0.8c-6.4,0-12.1,1.1-17.2,3.4
		c-5.1,2.3-9.5,5.1-13.1,8.6c-3.6,3.5-6.4,7.3-8.3,11.4c-1.9,4.2-2.9,8.2-2.9,12.1c0,2.5,0.4,4.8,1.2,7c0.8,2.2,2.1,4.1,3.9,5.7
		c1.7,1.6,4,2.9,6.6,3.8C357.6,121.5,360.8,121.9,364.5,121.9z M491.5,13.2c0-1.5-0.4-2.7-1.3-3.4c-0.9-0.8-2.1-1.1-3.6-1.1
		c-3.2,0-6.5,1.1-9.8,3.2c-3.3,2.2-6.7,5.1-10.1,8.7c-3.4,3.7-6.9,7.9-10.5,12.8c-3.6,4.9-7.2,10.1-10.9,15.5
		c0.4-0.2,0.7-0.3,1.1-0.5c0.3-0.1,0.7-0.3,1-0.4c6.9-2.9,13.4-6,19.3-9.3c5.9-3.3,10.8-6.7,14.6-10.2c3.6-3.2,6.2-6.2,7.8-8.8
		C490.6,17.3,491.4,15.1,491.5,13.2z"/>
	<linearGradient id="SVGID_12_" gradientUnits="userSpaceOnUse" x1="481.6143" y1="-4.6215" x2="462.9477" y2="190.0452">
		<stop  offset="6.666670e-02" style="stop-color:#FFF8B1"/>
		<stop  offset="0.1951" style="stop-color:#FCF5AE"/>
		<stop  offset="0.3015" style="stop-color:#F3EAA5"/>
		<stop  offset="0.4001" style="stop-color:#E5D996"/>
		<stop  offset="0.494" style="stop-color:#D0C180"/>
		<stop  offset="0.5845" style="stop-color:#B5A165"/>
		<stop  offset="0.6713" style="stop-color:#957C43"/>
		<stop  offset="0.736" style="stop-color:#785A26"/>
		<stop  offset="0.8764" style="stop-color:#996C25"/>
		<stop  offset="0.9063" style="stop-color:#9D7025"/>
		<stop  offset="0.936" style="stop-color:#A97B23"/>
		<stop  offset="0.9657" style="stop-color:#BD8F21"/>
		<stop  offset="0.9952" style="stop-color:#D9AA1E"/>
		<stop  offset="1" style="stop-color:#DEAF1D"/>
	</linearGradient>
	<path class="st11" d="M485.1,65.4c0.3,0,0.5,0.2,0.5,0.6c-1.8,2.2-3.8,3.9-5.7,5.1c-2,1.2-4.1,1.8-6.3,1.8c-0.6,0-1.1,0-1.7-0.1
		c-0.6-0.1-1.1-0.2-1.7-0.4c-0.7,0.7-1.5,1.3-2.3,1.8c-0.8,0.5-1.6,0.8-2.4,0.8c-0.6,0-1-0.2-1.4-0.5c-0.4-0.3-0.6-0.9-0.6-1.7
		c0-1.1,0.5-2.5,1.5-4.2c-0.1-0.1-0.2-0.2-0.2-0.5c0-0.3,0-0.4,0-0.6c0-1.3,0.5-2.4,1.6-3.3c1-0.9,2.2-1.3,3.6-1.3
		c1.1,0,1.9,0.3,2.6,0.9c0.6,0.6,1,1.3,1,2.3c0,1.1-0.3,2.1-0.9,3.1c-0.6,1-1.2,1.9-1.9,2.7c0.8,0.3,1.7,0.4,2.8,0.4
		c2.1,0,4.1-0.6,6-1.8C481.4,69.2,483.3,67.6,485.1,65.4z M467.4,73.6c0.3-0.2,0.7-0.4,1-0.7c0.3-0.3,0.7-0.5,1-0.9
		c-0.6-0.1-1.2-0.3-1.7-0.6c-0.5-0.3-1-0.6-1.3-0.9c-0.3,0.5-0.6,1-0.9,1.5c-0.3,0.5-0.4,1-0.4,1.5c0,0.4,0.2,0.7,0.6,0.7
		c0.3,0,0.6-0.1,1-0.2C466.9,73.9,467.2,73.7,467.4,73.6z M470,63.6c-1.2,0-2.2,0.4-3.1,1.1c-0.9,0.7-1.3,1.7-1.3,3
		c0.4-0.5,0.9-1.1,1.4-1.7c0.5-0.6,1.1-1,1.8-1c0.3,0,0.7,0.1,1,0.2c0.3,0.1,0.5,0.4,0.5,0.7c0,0.4-0.4,0.9-1.2,1.6
		c-0.8,0.7-1.5,1.5-2.2,2.5c0.4,0.4,0.9,0.7,1.5,1c0.6,0.3,1.2,0.4,1.7,0.6c0.7-0.7,1.3-1.5,2-2.5c0.6-1,0.9-2,0.9-2.9
		c0-0.9-0.3-1.5-0.8-1.9C471.5,63.8,470.8,63.6,470,63.6z"/>
	<linearGradient id="SVGID_13_" gradientUnits="userSpaceOnUse" x1="499.4872" y1="-2.9076" x2="480.8206" y2="191.759">
		<stop  offset="6.666670e-02" style="stop-color:#FFF8B1"/>
		<stop  offset="0.1951" style="stop-color:#FCF5AE"/>
		<stop  offset="0.3015" style="stop-color:#F3EAA5"/>
		<stop  offset="0.4001" style="stop-color:#E5D996"/>
		<stop  offset="0.494" style="stop-color:#D0C180"/>
		<stop  offset="0.5845" style="stop-color:#B5A165"/>
		<stop  offset="0.6713" style="stop-color:#957C43"/>
		<stop  offset="0.736" style="stop-color:#785A26"/>
		<stop  offset="0.8764" style="stop-color:#996C25"/>
		<stop  offset="0.9063" style="stop-color:#9D7025"/>
		<stop  offset="0.936" style="stop-color:#A97B23"/>
		<stop  offset="0.9657" style="stop-color:#BD8F21"/>
		<stop  offset="0.9952" style="stop-color:#D9AA1E"/>
		<stop  offset="1" style="stop-color:#DEAF1D"/>
	</linearGradient>
	<path class="st12" d="M503.1,65.4c0.1,0,0.2,0.1,0.3,0.2c0.1,0.1,0.1,0.3,0.1,0.4c-0.7,0.8-1.8,1.9-3.4,3.4c-1.6,1.5-3.3,3-5.1,4.4
		c-1.8,1.4-3.7,2.7-5.4,3.8c-1.8,1.1-3.2,1.6-4.3,1.6c-1.4,0-2.1-0.8-2.1-2.5c0-0.8,0.2-1.5,0.6-2.3c0.4-0.8,0.8-1.5,1.2-2.3
		c0.4-0.8,0.9-1.5,1.3-2.3c0.4-0.8,0.7-1.6,0.7-2.5v-0.4c0-0.4-0.1-0.8-0.2-1.2c-0.1-0.3-0.3-0.7-0.4-1.1c-0.5,0.8-1.1,1.6-1.9,2.3
		c-0.7,0.7-1.5,1.4-2.2,2.1c-0.1,0.1-0.2,0.1-0.3,0.1c-0.2,0-0.3-0.1-0.3-0.4c0-0.1,0.1-0.3,0.2-0.4c0.8-0.7,1.5-1.4,2.2-2.2
		c0.7-0.8,1.3-1.6,1.9-2.5c-0.3-0.5-0.5-1-0.7-1.6c-0.2-0.6-0.3-1.2-0.3-1.9v-0.4c0.1-0.9,0.3-1.6,0.6-2.1c0.3-0.5,0.7-0.7,1.2-0.7
		c0.3,0,0.6,0.2,0.9,0.6c0.3,0.4,0.4,1,0.4,1.9c-0.1,0.9-0.3,1.8-0.6,2.7l0.2,0.3l0.2,0.3c0.2,0.4,0.3,0.5,0.3,0.5
		c0.3,0.5,0.6,1.1,0.8,1.7c0.2,0.6,0.3,1.3,0.3,2v0.5c-0.1,1.1-0.4,2.2-0.9,3.2c-0.5,1-1,1.9-1.6,2.7c-0.6,0.8-1.1,1.6-1.6,2.3
		c-0.5,0.7-0.7,1.4-0.8,2.1c0,0.4,0.2,0.7,0.7,0.7c1,0,2.4-0.6,4.2-1.7c1.8-1.1,3.6-2.4,5.4-3.8c1.8-1.4,3.5-2.9,5-4.3
		S502.6,66.1,503.1,65.4z M486.5,58.6c0,0.5,0.1,1,0.2,1.4c0.2,0.4,0.4,0.8,0.6,1.3l0.3-1.8v-0.4c0-0.9-0.2-1.3-0.7-1.3
		C486.6,57.8,486.5,58,486.5,58.6z"/>
	<linearGradient id="SVGID_14_" gradientUnits="userSpaceOnUse" x1="517.4423" y1="-1.1859" x2="498.7756" y2="193.4808">
		<stop  offset="6.666670e-02" style="stop-color:#FFF8B1"/>
		<stop  offset="0.1951" style="stop-color:#FCF5AE"/>
		<stop  offset="0.3015" style="stop-color:#F3EAA5"/>
		<stop  offset="0.4001" style="stop-color:#E5D996"/>
		<stop  offset="0.494" style="stop-color:#D0C180"/>
		<stop  offset="0.5845" style="stop-color:#B5A165"/>
		<stop  offset="0.6713" style="stop-color:#957C43"/>
		<stop  offset="0.736" style="stop-color:#785A26"/>
		<stop  offset="0.8764" style="stop-color:#996C25"/>
		<stop  offset="0.9063" style="stop-color:#9D7025"/>
		<stop  offset="0.936" style="stop-color:#A97B23"/>
		<stop  offset="0.9657" style="stop-color:#BD8F21"/>
		<stop  offset="0.9952" style="stop-color:#D9AA1E"/>
		<stop  offset="1" style="stop-color:#DEAF1D"/>
	</linearGradient>
	<path class="st13" d="M521.3,65.4c0.1,0,0.2,0.1,0.3,0.2c0.1,0.1,0.1,0.3,0.1,0.4c-0.7,0.8-1.8,1.9-3.4,3.4c-1.6,1.5-3.3,3-5.1,4.4
		c-1.8,1.4-3.7,2.7-5.4,3.8c-1.8,1.1-3.2,1.6-4.3,1.6c-1.4,0-2.1-0.8-2.1-2.5c0-0.8,0.2-1.5,0.6-2.3c0.4-0.8,0.8-1.5,1.2-2.3
		c0.4-0.8,0.9-1.5,1.3-2.3c0.4-0.8,0.7-1.6,0.7-2.5v-0.4c0-0.4-0.1-0.8-0.2-1.2c-0.1-0.3-0.3-0.7-0.4-1.1c-0.5,0.8-1.1,1.6-1.9,2.3
		c-0.7,0.7-1.5,1.4-2.2,2.1c-0.1,0.1-0.2,0.1-0.3,0.1c-0.2,0-0.3-0.1-0.3-0.4c0-0.1,0.1-0.3,0.2-0.4c0.8-0.7,1.5-1.4,2.2-2.2
		c0.7-0.8,1.3-1.6,1.9-2.5c-0.3-0.5-0.5-1-0.7-1.6c-0.2-0.6-0.3-1.2-0.3-1.9v-0.4c0.1-0.9,0.3-1.6,0.6-2.1c0.3-0.5,0.7-0.7,1.2-0.7
		c0.3,0,0.6,0.2,0.9,0.6c0.3,0.4,0.4,1,0.4,1.9c-0.1,0.9-0.3,1.8-0.6,2.7l0.2,0.3l0.2,0.3c0.2,0.4,0.3,0.5,0.3,0.5
		c0.3,0.5,0.6,1.1,0.8,1.7c0.2,0.6,0.3,1.3,0.3,2v0.5c-0.1,1.1-0.4,2.2-0.9,3.2c-0.5,1-1,1.9-1.6,2.7c-0.6,0.8-1.1,1.6-1.6,2.3
		c-0.5,0.7-0.7,1.4-0.8,2.1c0,0.4,0.2,0.7,0.7,0.7c1,0,2.4-0.6,4.2-1.7c1.8-1.1,3.6-2.4,5.4-3.8c1.8-1.4,3.5-2.9,5-4.3
		S520.7,66.1,521.3,65.4z M504.6,58.6c0,0.5,0.1,1,0.2,1.4c0.2,0.4,0.4,0.8,0.6,1.3l0.3-1.8v-0.4c0-0.9-0.2-1.3-0.7-1.3
		C504.7,57.8,504.6,58,504.6,58.6z"/>
	<linearGradient id="SVGID_15_" gradientUnits="userSpaceOnUse" x1="532.7422" y1="0.2812" x2="514.0756" y2="194.9479">
		<stop  offset="6.666670e-02" style="stop-color:#FFF8B1"/>
		<stop  offset="0.1951" style="stop-color:#FCF5AE"/>
		<stop  offset="0.3015" style="stop-color:#F3EAA5"/>
		<stop  offset="0.4001" style="stop-color:#E5D996"/>
		<stop  offset="0.494" style="stop-color:#D0C180"/>
		<stop  offset="0.5845" style="stop-color:#B5A165"/>
		<stop  offset="0.6713" style="stop-color:#957C43"/>
		<stop  offset="0.736" style="stop-color:#785A26"/>
		<stop  offset="0.8764" style="stop-color:#996C25"/>
		<stop  offset="0.9063" style="stop-color:#9D7025"/>
		<stop  offset="0.936" style="stop-color:#A97B23"/>
		<stop  offset="0.9657" style="stop-color:#BD8F21"/>
		<stop  offset="0.9952" style="stop-color:#D9AA1E"/>
		<stop  offset="1" style="stop-color:#DEAF1D"/>
	</linearGradient>
	<path class="st14" d="M536.6,65.4c0.1,0,0.3,0,0.4,0.1c0.1,0.1,0.2,0.2,0.2,0.4c-1,1.2-2.2,2.4-3.6,3.6c-1.4,1.2-2.8,2.3-4.4,3.3
		c-1.6,1-3.2,1.8-5,2.4c-1.7,0.6-3.4,0.9-5.1,0.9c-1.4,0-2.4-0.3-3.1-0.9c-0.7-0.6-1-1.4-1-2.5c0-0.6,0.2-1.4,0.6-2.4
		c0.4-1,0.9-1.8,1.4-2.7c0.6-0.8,1.2-1.5,1.9-2.1c0.7-0.6,1.3-0.9,1.8-0.9c0.3,0,0.6,0.1,0.8,0.2c0.2,0.1,0.3,0.4,0.3,0.7
		c0,0.3-0.3,0.7-0.8,1.3c-0.5,0.6-1.1,1.3-1.7,2.1c-0.6,0.8-1.2,1.7-1.7,2.5c-0.5,0.9-0.8,1.7-0.8,2.4c0,1,0.6,1.5,1.9,1.5
		c1.6,0,3.2-0.3,4.9-0.9c1.7-0.6,3.3-1.3,4.9-2.3c1.6-1,3.1-2,4.4-3.2C534.3,67.8,535.5,66.6,536.6,65.4z M524.5,61.9
		c-0.1-0.1-0.2-0.3-0.2-0.4c0-0.4,0.2-0.8,0.7-1.3c0.5-0.5,1.1-0.8,1.8-0.8c0.4,0,0.8,0.1,1,0.3c0.3,0.2,0.4,0.4,0.4,0.5
		c0,0.4-0.4,0.8-1.2,1.2c-0.8,0.4-1.5,0.6-2.1,0.6C524.7,62,524.6,61.9,524.5,61.9z"/>
	<linearGradient id="SVGID_16_" gradientUnits="userSpaceOnUse" x1="545.0835" y1="1.4646" x2="526.4168" y2="196.1313">
		<stop  offset="6.666670e-02" style="stop-color:#FFF8B1"/>
		<stop  offset="0.1951" style="stop-color:#FCF5AE"/>
		<stop  offset="0.3015" style="stop-color:#F3EAA5"/>
		<stop  offset="0.4001" style="stop-color:#E5D996"/>
		<stop  offset="0.494" style="stop-color:#D0C180"/>
		<stop  offset="0.5845" style="stop-color:#B5A165"/>
		<stop  offset="0.6713" style="stop-color:#957C43"/>
		<stop  offset="0.736" style="stop-color:#785A26"/>
		<stop  offset="0.8764" style="stop-color:#996C25"/>
		<stop  offset="0.9063" style="stop-color:#9D7025"/>
		<stop  offset="0.936" style="stop-color:#A97B23"/>
		<stop  offset="0.9657" style="stop-color:#BD8F21"/>
		<stop  offset="0.9952" style="stop-color:#D9AA1E"/>
		<stop  offset="1" style="stop-color:#DEAF1D"/>
	</linearGradient>
	<path class="st15" d="M552.6,65.4c0.4,0,0.7,0.1,0.7,0.3c0,0.1,0,0.1,0,0.1c0,0,0,0.1,0,0.1c-1.9,2.1-3.7,3.8-5.2,5
		c-1.6,1.2-3.1,2.2-4.7,3c-1.5,0.8-3,1.4-4.5,1.9c-1.5,0.5-3.1,1-4.8,1.6c-1.1,2.7-2.3,5-3.8,7s-3.1,3-4.9,3c-1,0-1.6-0.2-2-0.7
		c-0.4-0.4-0.6-1-0.6-1.5c0-1,0.3-1.9,0.8-2.7c0.5-0.8,1.1-1.4,1.9-2c0.8-0.6,1.6-1.1,2.6-1.5c1-0.4,1.9-0.8,2.8-1.2l0.8-0.3
		c0.8-1.9,1.5-3.9,2.1-6c0.7-2.1,1.3-4,2-5.8c0.7-1.7,1.4-3.2,2.1-4.3c0.7-1.1,1.4-1.7,2.2-1.7c0.3,0,0.4,0.2,0.4,0.6
		c-0.4,0.3-0.8,1-1.2,2.1c-0.4,1.1-0.9,2.4-1.4,3.9c-0.5,1.5-1,3.2-1.6,5c-0.6,1.8-1.2,3.6-1.8,5.3c1.6-0.6,3.1-1.1,4.6-1.6
		c1.5-0.5,2.9-1.1,4.3-1.9c1.4-0.8,2.9-1.7,4.5-3C549.2,69,550.9,67.4,552.6,65.4z M525,86.6c1.2,0,2.3-0.8,3.3-2.3
		c1-1.5,1.9-3.4,2.8-5.7c-0.6,0.3-1.4,0.7-2.2,1c-0.9,0.4-1.7,0.8-2.5,1.3c-0.8,0.5-1.5,1.1-2.1,1.9c-0.6,0.7-0.9,1.6-0.9,2.5
		c0,0.8,0.4,1.3,1.1,1.3H525z"/>
	<linearGradient id="SVGID_17_" gradientUnits="userSpaceOnUse" x1="565.2505" y1="3.3985" x2="546.5839" y2="198.0651">
		<stop  offset="6.666670e-02" style="stop-color:#FFF8B1"/>
		<stop  offset="0.1951" style="stop-color:#FCF5AE"/>
		<stop  offset="0.3015" style="stop-color:#F3EAA5"/>
		<stop  offset="0.4001" style="stop-color:#E5D996"/>
		<stop  offset="0.494" style="stop-color:#D0C180"/>
		<stop  offset="0.5845" style="stop-color:#B5A165"/>
		<stop  offset="0.6713" style="stop-color:#957C43"/>
		<stop  offset="0.736" style="stop-color:#785A26"/>
		<stop  offset="0.8764" style="stop-color:#996C25"/>
		<stop  offset="0.9063" style="stop-color:#9D7025"/>
		<stop  offset="0.936" style="stop-color:#A97B23"/>
		<stop  offset="0.9657" style="stop-color:#BD8F21"/>
		<stop  offset="0.9952" style="stop-color:#D9AA1E"/>
		<stop  offset="1" style="stop-color:#DEAF1D"/>
	</linearGradient>
	<path class="st16" d="M569.5,65.4c0.3,0,0.5,0.2,0.5,0.6c-1.8,2.2-3.8,3.9-5.7,5.1c-2,1.2-4.1,1.8-6.3,1.8c-0.6,0-1.1,0-1.7-0.1
		c-0.6-0.1-1.1-0.2-1.7-0.4c-0.7,0.7-1.5,1.3-2.3,1.8c-0.8,0.5-1.6,0.8-2.4,0.8c-0.6,0-1-0.2-1.4-0.5c-0.4-0.3-0.6-0.9-0.6-1.7
		c0-1.1,0.5-2.5,1.5-4.2c-0.1-0.1-0.2-0.2-0.2-0.5c0-0.3,0-0.4,0-0.6c0-1.3,0.5-2.4,1.6-3.3c1-0.9,2.2-1.3,3.6-1.3
		c1.1,0,1.9,0.3,2.6,0.9c0.6,0.6,1,1.3,1,2.3c0,1.1-0.3,2.1-0.9,3.1c-0.6,1-1.2,1.9-1.9,2.7c0.8,0.3,1.7,0.4,2.8,0.4
		c2.1,0,4.1-0.6,6-1.8C565.8,69.2,567.7,67.6,569.5,65.4z M551.8,73.6c0.3-0.2,0.7-0.4,1-0.7c0.3-0.3,0.7-0.5,1-0.9
		c-0.6-0.1-1.2-0.3-1.7-0.6c-0.5-0.3-1-0.6-1.3-0.9c-0.3,0.5-0.6,1-0.9,1.5c-0.3,0.5-0.4,1-0.4,1.5c0,0.4,0.2,0.7,0.6,0.7
		c0.3,0,0.6-0.1,1-0.2C551.3,73.9,551.6,73.7,551.8,73.6z M554.4,63.6c-1.2,0-2.2,0.4-3.1,1.1c-0.9,0.7-1.3,1.7-1.3,3
		c0.4-0.5,0.9-1.1,1.4-1.7c0.5-0.6,1.1-1,1.8-1c0.3,0,0.7,0.1,1,0.2c0.3,0.1,0.5,0.4,0.5,0.7c0,0.4-0.4,0.9-1.2,1.6
		c-0.8,0.7-1.5,1.5-2.2,2.5c0.4,0.4,0.9,0.7,1.5,1c0.6,0.3,1.2,0.4,1.7,0.6c0.7-0.7,1.3-1.5,2-2.5c0.6-1,0.9-2,0.9-2.9
		c0-0.9-0.3-1.5-0.8-1.9C555.9,63.8,555.2,63.6,554.4,63.6z"/>
</g>
</svg>
