<?xml version="1.0" encoding="utf-8"?>
<!-- Generator: Adobe Illustrator 16.0.3, SVG Export Plug-In . SVG Version: 6.00 Build 0)  -->
<!DOCTYPE svg PUBLIC "-//W3C//DTD SVG 1.1//EN" "http://www.w3.org/Graphics/SVG/1.1/DTD/svg11.dtd">
<svg version="1.1" id="Camada_1" xmlns="http://www.w3.org/2000/svg" xmlns:xlink="http://www.w3.org/1999/xlink" x="0px" y="0px"
	 width="162px" height="166px" viewBox="0 0 162 166" enable-background="new 0 0 162 166" xml:space="preserve">
<g id="Camada_4">
	<g>
		<polygon fill="#FFFFFF" stroke="#B1B3B4" stroke-width="4" stroke-miterlimit="10" points="135.094,136.579 81.36,159.191 
			27.374,137.186 4.758,83.451 26.764,29.463 80.5,6.849 134.486,28.854 157.1,82.59 		"/>
		<g>
			<path fill="#480E3F" d="M31.679,75.849c0,0,19.834,33,51.167,33c31.334,0,50.668-34.667,50.668-34.667
				s-28.5,23.833-50.918,23.833C60.179,98.016,31.679,75.849,31.679,75.849z"/>
			<path fill="#480E3F" d="M82.596,66.766c9.875,0,50.918,2.375,50.918,2.375c-5.584,0-22.418-11.625-32.168-11.938
				s-18,6.563-18,6.563c-9.5-5.125-19.75-10.25-33.125-2.875s-21.875,9.125-21.875,9.125C70.846,65.641,72.721,66.766,82.596,66.766
				z"/>
			<polygon fill="#480E3F" points="120.721,76.766 120.721,74.134 127.596,74.182 127.596,72.891 120.721,72.891 120.721,70.766 
				116.346,70.766 116.346,72.891 109.096,72.891 109.096,70.766 104.721,70.766 104.721,72.891 96.971,72.891 96.971,70.766 
				92.596,70.766 92.596,72.891 84.221,72.891 84.221,70.766 79.846,70.766 79.846,72.891 72.721,72.891 72.721,70.766 
				68.346,70.766 68.346,72.891 61.346,72.891 61.346,70.766 56.971,70.766 56.971,72.891 48.971,72.891 48.971,70.766 
				44.596,70.766 44.596,72.891 34.971,72.891 34.971,73.536 44.596,73.604 44.596,76.766 48.971,76.766 48.971,73.633 
				56.971,73.69 56.971,76.766 61.346,76.766 61.346,73.72 68.346,73.769 68.346,76.766 72.721,76.766 72.721,73.799 79.846,73.849 
				79.846,76.766 84.221,76.766 84.221,73.879 92.596,73.938 92.596,76.766 96.971,76.766 96.971,73.969 104.721,74.022 
				104.721,76.766 109.096,76.766 109.096,74.053 116.346,74.104 116.346,76.766 			"/>
			<path fill="#480E3F" d="M46.713,78.799c5.381,0.979,12.617,1.902,20.133,1.717c15.125-0.375,16.625-1,16.625-1
				S61.647,80.827,46.713,78.799z"/>
			<path fill="#480E3F" d="M46.713,78.799c-5.447-0.99-8.992-2.033-8.992-2.033C40.093,77.667,43.215,78.325,46.713,78.799z"/>
		</g>
	</g>
</g>
</svg>
